<svg width="45" height="45" viewBox="0 0 45 45" fill="none" xmlns="http://www.w3.org/2000/svg">
<circle cx="22.5" cy="22.5" r="21.5" stroke="#D58637" stroke-width="2"/>
<path d="M12.335 18.81C13.585 18.81 14.545 19.11 15.215 19.71C15.885 20.3 16.22 21.195 16.22 22.395V27H14.03V25.995C13.59 26.745 12.77 27.12 11.57 27.12C10.95 27.12 10.41 27.015 9.95 26.805C9.5 26.595 9.155 26.305 8.915 25.935C8.675 25.565 8.555 25.145 8.555 24.675C8.555 23.925 8.835 23.335 9.395 22.905C9.965 22.475 10.84 22.26 12.02 22.26H13.88C13.88 21.75 13.725 21.36 13.415 21.09C13.105 20.81 12.64 20.67 12.02 20.67C11.59 20.67 11.165 20.74 10.745 20.88C10.335 21.01 9.985 21.19 9.695 21.42L8.855 19.785C9.295 19.475 9.82 19.235 10.43 19.065C11.05 18.895 11.685 18.81 12.335 18.81ZM12.155 25.545C12.555 25.545 12.91 25.455 13.22 25.275C13.53 25.085 13.75 24.81 13.88 24.45V23.625H12.275C11.315 23.625 10.835 23.94 10.835 24.57C10.835 24.87 10.95 25.11 11.18 25.29C11.42 25.46 11.745 25.545 12.155 25.545ZM26.7507 18.93V25.65C26.7507 27.13 26.3657 28.23 25.5957 28.95C24.8257 29.67 23.7007 30.03 22.2207 30.03C21.4407 30.03 20.7007 29.935 20.0007 29.745C19.3007 29.555 18.7207 29.28 18.2607 28.92L19.1907 27.24C19.5307 27.52 19.9607 27.74 20.4807 27.9C21.0007 28.07 21.5207 28.155 22.0407 28.155C22.8507 28.155 23.4457 27.97 23.8257 27.6C24.2157 27.24 24.4107 26.69 24.4107 25.95V25.605C23.8007 26.275 22.9507 26.61 21.8607 26.61C21.1207 26.61 20.4407 26.45 19.8207 26.13C19.2107 25.8 18.7257 25.34 18.3657 24.75C18.0057 24.16 17.8257 23.48 17.8257 22.71C17.8257 21.94 18.0057 21.26 18.3657 20.67C18.7257 20.08 19.2107 19.625 19.8207 19.305C20.4407 18.975 21.1207 18.81 21.8607 18.81C23.0307 18.81 23.9207 19.195 24.5307 19.965V18.93H26.7507ZM22.3257 24.69C22.9457 24.69 23.4507 24.51 23.8407 24.15C24.2407 23.78 24.4407 23.3 24.4407 22.71C24.4407 22.12 24.2407 21.645 23.8407 21.285C23.4507 20.915 22.9457 20.73 22.3257 20.73C21.7057 20.73 21.1957 20.915 20.7957 21.285C20.3957 21.645 20.1957 22.12 20.1957 22.71C20.1957 23.3 20.3957 23.78 20.7957 24.15C21.1957 24.51 21.7057 24.69 22.3257 24.69ZM36.8336 22.995C36.8336 23.025 36.8186 23.235 36.7886 23.625H30.6836C30.7936 24.125 31.0536 24.52 31.4636 24.81C31.8736 25.1 32.3836 25.245 32.9936 25.245C33.4136 25.245 33.7836 25.185 34.1036 25.065C34.4336 24.935 34.7386 24.735 35.0186 24.465L36.2636 25.815C35.5036 26.685 34.3936 27.12 32.9336 27.12C32.0236 27.12 31.2186 26.945 30.5186 26.595C29.8186 26.235 29.2786 25.74 28.8986 25.11C28.5186 24.48 28.3286 23.765 28.3286 22.965C28.3286 22.175 28.5136 21.465 28.8836 20.835C29.2636 20.195 29.7786 19.7 30.4286 19.35C31.0886 18.99 31.8236 18.81 32.6336 18.81C33.4236 18.81 34.1386 18.98 34.7786 19.32C35.4186 19.66 35.9186 20.15 36.2786 20.79C36.6486 21.42 36.8336 22.155 36.8336 22.995ZM32.6486 20.58C32.1186 20.58 31.6736 20.73 31.3136 21.03C30.9536 21.33 30.7336 21.74 30.6536 22.26H34.6286C34.5486 21.75 34.3286 21.345 33.9686 21.045C33.6086 20.735 33.1686 20.58 32.6486 20.58Z" fill="#D58637"/>
</svg>
