<svg width="45" height="45" viewBox="0 0 45 45" fill="none" xmlns="http://www.w3.org/2000/svg">
<circle cx="22.5" cy="22.5" r="21.5" stroke="#D58637" stroke-width="2"/>
<path d="M28.0504 24.3902C27.7153 23.1285 26.9908 22.0158 25.9882 21.2229C24.9856 20.4299 23.7602 20.0005 22.5 20.0005C21.2398 20.0005 20.0144 20.4299 19.0117 21.2229C18.0091 22.0158 17.2847 23.1285 16.9496 24.3902L16.151 27.3969C16.0076 27.9367 15.9862 28.5036 16.0885 29.0535C16.1907 29.6033 16.4139 30.1212 16.7406 30.5667C17.0672 31.0123 17.4886 31.3734 17.9717 31.622C18.4549 31.8706 18.9868 32 19.526 32H25.474C26.0132 32 26.5451 31.8706 27.0282 31.622C27.5114 31.3734 27.9327 31.0123 28.2594 30.5667C28.5861 30.1212 28.8093 29.6033 28.9115 29.0535C29.0138 28.5036 28.9924 27.9367 28.849 27.3969L28.0504 24.3902ZM27.1453 29.6854C26.9501 29.9537 26.6975 30.1711 26.4074 30.3204C26.1173 30.4697 25.7977 30.5468 25.474 30.5455H19.526C19.2025 30.5455 18.8833 30.4679 18.5934 30.3188C18.3035 30.1696 18.0507 29.9529 17.8547 29.6856C17.6587 29.4182 17.5248 29.1075 17.4634 28.7776C17.4021 28.4477 17.4149 28.1075 17.501 27.7836L18.2996 24.777C18.5532 23.8222 19.1014 22.9801 19.8602 22.3801C20.6189 21.78 21.5463 21.455 22.5 21.455C23.4537 21.455 24.381 21.78 25.1398 22.3801C25.8985 22.9801 26.4468 23.8222 26.7004 24.777L27.499 27.7836C27.5863 28.1074 27.5997 28.4478 27.5383 28.778C27.4769 29.1081 27.3424 29.4188 27.1453 29.6856V29.6854ZM17.6903 21.0146C17.8121 20.2237 17.6506 19.3771 17.2351 18.63C16.8197 17.883 16.1944 17.3143 15.4742 17.0285C14.7029 16.7225 13.9162 16.7713 13.2582 17.1656C11.9502 17.9499 11.606 19.883 12.4911 21.4747C12.9064 22.2218 13.5317 22.7906 14.2519 23.0763C14.571 23.2055 14.9101 23.2728 15.2525 23.275C15.6791 23.2766 16.0985 23.1607 16.4679 22.9391C17.1255 22.5447 17.5596 21.8613 17.6903 21.0146ZM16.3073 20.7847C16.2448 21.1906 16.0531 21.5083 15.7676 21.6795C15.4821 21.8507 15.1213 21.8641 14.7515 21.7175C14.3308 21.5507 13.9587 21.2061 13.7038 20.7475C13.2136 19.8657 13.3301 18.8021 13.9585 18.4252C14.1164 18.3322 14.2953 18.2842 14.4769 18.2862C14.6473 18.2881 14.8159 18.3223 14.9744 18.387C15.3952 18.554 15.7672 18.8984 16.0222 19.3571C16.2772 19.8158 16.3784 20.3229 16.3073 20.7847ZM17.842 18.0014C18.3392 18.4143 18.9071 18.6293 19.4813 18.6292C19.6533 18.6292 19.8248 18.6099 19.9929 18.5719C21.4687 18.2387 22.3636 16.5064 21.9876 14.7104C21.8113 13.8674 21.3825 13.1278 20.7803 12.6278C20.1354 12.0924 19.3715 11.8897 18.6294 12.0574C17.1536 12.3905 16.2587 14.1228 16.6346 15.9189C16.811 16.7619 17.2398 17.5014 17.842 18.0014ZM18.9268 13.4787C18.9949 13.4634 19.0643 13.4558 19.1339 13.4559C19.3942 13.4559 19.662 13.5617 19.9058 13.7641C20.2575 14.0562 20.5109 14.502 20.6191 15.0196C20.8274 16.0148 20.4044 16.9908 19.6954 17.1508C19.3732 17.2236 19.0256 17.1223 18.7165 16.8656C18.3648 16.5735 18.1114 16.1277 18.0032 15.6102C17.7948 14.6147 18.2178 13.6387 18.9268 13.4787ZM31.7417 17.1656C31.0841 16.7713 30.297 16.7225 29.5258 17.0285C28.8056 17.3142 28.1802 17.883 27.7649 18.63C27.3496 19.3771 27.188 20.2239 27.3098 21.0146C27.4403 21.8613 27.8743 22.5447 28.5322 22.9391C28.9015 23.1607 29.3209 23.2766 29.7475 23.275C30.09 23.2728 30.4291 23.2055 30.7481 23.0763C31.4684 22.7906 32.0937 22.2218 32.509 21.4747C33.3939 19.883 33.0497 17.9499 31.7417 17.1656ZM31.2962 20.7475C31.0413 21.2061 30.6692 21.5507 30.2485 21.7175C29.8788 21.8643 29.518 21.8508 29.2325 21.6795C28.947 21.5082 28.7554 21.1906 28.6927 20.7847C28.6216 20.3229 28.7228 19.8159 28.9778 19.3575C29.2328 18.8991 29.6048 18.5544 30.0255 18.3874C30.1841 18.3226 30.3527 18.2884 30.523 18.2865C30.7047 18.2844 30.8835 18.3324 31.0415 18.4255C31.6699 18.802 31.7865 19.8655 31.2962 20.7475ZM25.0071 18.5719C25.1752 18.6099 25.3467 18.6292 25.5187 18.6292C26.0929 18.6292 26.6609 18.4143 27.158 18.0014C27.7602 17.5015 28.189 16.7619 28.3654 15.9189C28.7413 14.1228 27.8464 12.3906 26.3706 12.0574C25.6285 11.8899 24.8646 12.0924 24.2197 12.6279C23.6175 13.1278 23.1887 13.8675 23.0123 14.7104C22.6364 16.5064 23.5313 18.2387 25.0071 18.5719ZM24.3808 15.0194C24.4891 14.5018 24.7425 14.0558 25.0942 13.7639C25.3381 13.5615 25.6058 13.4557 25.8661 13.4557C25.9357 13.4556 26.0051 13.4632 26.0732 13.4784C26.7822 13.6385 27.2052 14.6147 26.9969 15.6097C26.8885 16.1273 26.6352 16.5733 26.2835 16.8652C25.9745 17.1218 25.6271 17.2231 25.3047 17.1504C24.5956 16.9905 24.1725 16.0144 24.3808 15.0194Z" fill="#D58637"/>
<line x1="12.4142" y1="13" x2="32" y2="32.5858" stroke="#D58637" stroke-width="2" stroke-linecap="round"/>
</svg>
