<svg width="45" height="45" viewBox="0 0 45 45" fill="none" xmlns="http://www.w3.org/2000/svg">
<circle cx="22.5" cy="22.5" r="21.5" stroke="#D58637" stroke-width="2"/>
<path d="M25.7857 27.2095C24.8 28.6333 24.0333 30.1667 24.0333 31.5905C24.0333 32.0286 24.1429 32.4667 24.2524 33.0143C24.2524 33.1238 24.2524 33.2333 24.1429 33.3429C24.0333 33.4524 23.9238 33.3429 23.9238 33.2333C22.8286 31.8095 22.281 30.4952 22.281 28.9619C22.281 27.6476 22.719 26.3333 23.5952 25.019L22.0619 23.4857C20.8571 25.019 20.0905 26.6619 20.0905 28.3048C20.0905 28.7429 20.2 29.181 20.3095 29.7286C20.3095 29.8381 20.3095 29.9476 20.2 30.0571C20.0905 30.1667 19.981 30.0571 19.981 29.9476C18.8857 28.5238 18.3381 27.2095 18.3381 25.6762C18.3381 24.2524 18.8857 22.8286 19.981 21.2952L18.4476 19.8714C17.3524 21.1857 16.5857 22.5 16.5857 23.8143C16.5857 24.1429 16.6952 24.581 16.8048 24.8C16.8048 24.9095 16.8048 24.9095 16.6952 25.019C16.5857 25.1286 16.4762 25.019 16.4762 25.019C15.6 24.0333 15.2714 22.9381 15.2714 21.9524C15.2714 20.7476 15.819 19.5429 16.8048 18.3381L11 12.4238L12.4238 11L34 32.5762L32.5762 34L25.7857 27.2095ZM20.9667 16.8048C21.4048 16.0381 21.6238 15.2714 21.6238 14.5048C21.6238 13.519 21.2952 12.4238 20.419 11.4381C20.3095 11.3286 20.2 11.3286 20.0905 11.3286C19.981 11.3286 20.0905 11.4381 20.0905 11.5476C20.2 11.8762 20.3095 12.2048 20.3095 12.5333C20.3095 13.4095 19.981 14.2857 19.4333 15.1619L20.9667 16.8048ZM28.7429 16.2571C28.7429 18.119 27.5381 20.0905 26.0048 21.8429L28.1952 24.0333C29.8381 22.3905 30.6048 20.7476 30.6048 18.9952C30.6048 17.5714 30.0571 16.1476 28.9619 14.7238C28.8524 14.6143 28.8524 14.6143 28.7429 14.6143C28.6333 14.7238 28.6333 14.8333 28.6333 14.9429C28.6333 15.381 28.7429 15.819 28.7429 16.2571ZM24.581 20.419C25.8952 18.7762 26.5524 17.2429 26.5524 15.6C26.5524 14.1762 26.0048 12.7524 24.9095 11.3286H24.6905C24.581 11.4381 24.581 11.5476 24.581 11.6571C24.6905 12.0952 24.8 12.5333 24.8 13.081C24.8 14.8333 23.8143 16.5857 22.3905 18.3381L24.581 20.419Z" fill="#D58637"/>
</svg>
