<svg width="45" height="45" viewBox="0 0 45 45" fill="none" xmlns="http://www.w3.org/2000/svg">
<circle cx="22.5" cy="22.5" r="21.5" stroke="#D58637" stroke-width="2"/>
<path d="M30.1743 26.6816L28.9475 25.9601C28.7486 25.8456 28.6381 25.6623 28.616 25.4104C28.5939 25.1584 28.6823 24.9523 28.8812 24.7919L31.9978 22.3868C32.2188 22.2036 32.4566 22.106 32.7113 22.0941C32.9659 22.0822 33.2143 22.1454 33.4566 22.2837L34.6833 23.0053C34.8822 23.1198 34.9875 23.303 34.999 23.555C35.0104 23.807 34.9273 24.0131 34.7496 24.1735L31.6331 26.5786C31.412 26.7618 31.1746 26.8594 30.9209 26.8713C30.6672 26.8832 30.4183 26.82 30.1743 26.6816ZM24.6705 22.9366L28.1186 20.2222L18.9679 14.7592L16.9786 18.3325L24.6705 22.9366ZM14.3262 34C13.9504 34 13.6357 33.8681 13.3819 33.6042C13.1282 33.3403 13.0009 33.0141 13 32.6257C12.9991 32.2372 13.1264 31.911 13.3819 31.6471C13.6375 31.3833 13.9522 31.2513 14.3262 31.2513H19.631V23.074L15.6524 20.7032C15.0114 20.3138 14.5972 19.7586 14.4098 19.0375C14.2223 18.3165 14.316 17.6233 14.6909 16.9582L16.6802 13.3849C17.056 12.7206 17.5922 12.2914 18.2889 12.0971C18.9856 11.9029 19.654 12 20.2941 12.3885L31.2021 18.8822C31.622 19.1342 31.843 19.5067 31.8652 19.9996C31.8873 20.4925 31.7104 20.8874 31.3347 21.1843L26.2288 25.1355C25.7868 25.4562 25.3115 25.6339 24.8032 25.6687C24.2948 25.7036 23.8085 25.5831 23.3443 25.3073L22.2834 24.6888V31.2513C22.2834 32.0072 22.0239 32.6545 21.5049 33.1933C20.9859 33.732 20.3613 34.0009 19.631 34H14.3262Z" fill="#D58637"/>
</svg>
