<svg width="45" height="45" viewBox="0 0 45 45" fill="none" xmlns="http://www.w3.org/2000/svg">
<circle cx="22.5" cy="22.5" r="21.5" stroke="#D58637" stroke-width="2"/>
<path d="M13 23C13 18.757 13 16.636 14.464 15.318C15.93 14 18.286 14 23 14C27.714 14 30.071 14 31.535 15.318C32.999 16.636 33 18.758 33 23C33 27.242 33 29.364 31.535 30.682C30.072 32 27.714 32 23 32C18.286 32 15.929 32 14.464 30.682C12.999 29.364 13 27.242 13 23Z" stroke="#D58637" stroke-width="1.5" stroke-linecap="round" stroke-linejoin="round"/>
<path d="M16 27.5C17.208 24.919 21.712 24.75 23 27.5M21.5 20.5C21.5 21.0304 21.2893 21.5391 20.9142 21.9142C20.5391 22.2893 20.0304 22.5 19.5 22.5C18.9696 22.5 18.4609 22.2893 18.0858 21.9142C17.7107 21.5391 17.5 21.0304 17.5 20.5C17.5 19.9696 17.7107 19.4609 18.0858 19.0858C18.4609 18.7107 18.9696 18.5 19.5 18.5C20.0304 18.5 20.5391 18.7107 20.9142 19.0858C21.2893 19.4609 21.5 19.9696 21.5 20.5Z" stroke="#D58637" stroke-width="1.5" stroke-linecap="round"/>
<path d="M26 21H30M26 25H30" stroke="#D58637" stroke-width="1.5" stroke-linecap="round" stroke-linejoin="round"/>
</svg>
