<svg width="45" height="45" viewBox="0 0 45 45" fill="none" xmlns="http://www.w3.org/2000/svg">
<circle cx="22.5" cy="22.5" r="21.5" stroke="#D58637" stroke-width="2"/>
<path d="M26 26C26 24.895 22.866 24 19 24M26 26C26 27.105 22.866 28 19 28C15.134 28 12 27.105 12 26M26 26V30.937C26 32.076 22.866 33 19 33C15.134 33 12 32.077 12 30.937V26M26 26C29.824 26 33 25.013 33 24V14M19 24C15.134 24 12 24.895 12 26M19 24C14.582 24 11 23.013 11 22V17M19 15C14.582 15 11 15.895 11 17M11 17C11 18.105 14.582 19 19 19C19 20.013 22.253 21 26.077 21C29.901 21 33 20.013 33 19M33 14C33 12.895 29.9 12 26.077 12C22.254 12 19.154 12.895 19.154 14M33 14C33 15.105 29.9 16 26.077 16C22.254 16 19.154 15.105 19.154 14M19.154 14V24.166" stroke="#D58637" stroke-width="2"/>
</svg>
