<svg width="45" height="45" viewBox="0 0 45 45" fill="none" xmlns="http://www.w3.org/2000/svg">
<circle cx="22.5" cy="22.5" r="21.5" stroke="#D58637" stroke-width="2"/>
<path d="M16.6568 21.002L15.1868 24.31C13.3308 28.484 12.4038 30.571 13.4168 31.584C14.4298 32.597 16.5148 31.669 20.6888 29.814L23.9988 28.342C26.5158 27.223 27.7748 26.664 27.9748 25.585C28.1748 24.506 27.2008 23.532 25.2528 21.585L23.4148 19.746C21.4678 17.798 20.4938 16.824 19.4148 17.025C18.3358 17.225 17.7768 18.484 16.6578 21.001M17.4988 20.5L24.4988 27.5M15.4988 25.5L19.4988 29.5M26.9988 18L29.9988 15M25.1958 12C25.5958 12.667 25.9148 14.4 23.9988 16M32.9988 19.803C32.3318 19.403 30.5988 19.084 28.9988 21M28.9988 12V12.02M32.9988 16V16.02M31.9988 23V23.02M21.9988 13V13.02" stroke="#D58637" stroke-width="1.5" stroke-linecap="round" stroke-linejoin="round"/>
<line x1="11.4142" y1="14" x2="31" y2="33.5858" stroke="#D58637" stroke-width="2" stroke-linecap="round"/>
</svg>
