<svg width="45" height="45" viewBox="0 0 45 45" fill="none" xmlns="http://www.w3.org/2000/svg">
<circle cx="22.5" cy="22.5" r="21.5" stroke="#D58637" stroke-width="2"/>
<line x1="13.4142" y1="12" x2="33" y2="31.5858" stroke="#D58637" stroke-width="2" stroke-linecap="round"/>
<path d="M20.9652 23.9541L13 31.9208M22.4518 25.6237L22.2058 25.8697C21.6345 26.4444 21.3131 27.2215 21.3117 28.032C21.3103 28.8424 21.6288 29.6206 22.1982 30.1974L22.7086 30.714M24.535 15.6338L29.2855 20.3843L24.681 26.437C24.6146 26.5242 24.5304 26.5962 24.4339 26.6481C24.3374 26.7001 24.2309 26.7308 24.1215 26.7382C24.0122 26.7456 23.9025 26.7296 23.7999 26.6912C23.6973 26.6527 23.604 26.5928 23.5265 26.5154L18.4039 21.3928C18.3261 21.3153 18.2659 21.2221 18.2272 21.1194C18.1884 21.0167 18.1722 20.9068 18.1795 20.7973C18.1867 20.6878 18.2174 20.5811 18.2694 20.4844C18.3213 20.3877 18.3934 20.3032 18.4808 20.2367L24.535 15.6338Z" stroke="#D58637" stroke-width="1.5" stroke-linecap="round" stroke-linejoin="round"/>
<path d="M27.1009 28.0405L27.7943 28.7324M31.4071 28.0405L30.7122 28.7324M27.1009 31.9209L27.7943 31.2275M31.4071 31.9209L30.7122 31.2275M23.8909 14.9912C23.7743 14.8779 23.685 14.7397 23.6295 14.5869C23.5773 14.4487 23.563 14.299 23.588 14.1534C23.604 14.0197 23.6634 13.8949 23.7571 13.7982C23.8514 13.7039 23.9703 13.647 24.1138 13.6276L30.8122 13.0034C30.9499 12.9911 31.0886 13.0122 31.2165 13.0649C31.3561 13.1213 31.4828 13.2053 31.5893 13.3117C31.6957 13.4182 31.7796 13.5449 31.8361 13.6845C31.8888 13.8123 31.9098 13.951 31.8976 14.0888L31.2918 20.8072C31.2755 20.9403 31.2162 21.0645 31.1227 21.1608C31.0259 21.2553 30.9005 21.3153 30.7661 21.3314C30.6247 21.3552 30.4796 21.3419 30.3448 21.293C30.1956 21.2412 30.0597 21.1572 29.9466 21.047L23.8909 14.9912Z" stroke="#D58637" stroke-width="1.5" stroke-linecap="round" stroke-linejoin="round"/>
</svg>
