<svg width="45" height="45" viewBox="0 0 45 45" fill="none" xmlns="http://www.w3.org/2000/svg">
<circle cx="22.5" cy="22.5" r="21.5" stroke="#D58637" stroke-width="2"/>
<path fill-rule="evenodd" clip-rule="evenodd" d="M22 14.1111C22 14.4058 22.1171 14.6884 22.3254 14.8968C22.5338 15.1052 22.8164 15.2222 23.1111 15.2222H28.2067L22.3256 21.1033C22.1702 21.2587 22.0644 21.4567 22.0216 21.6722C21.9787 21.8877 22.0007 22.1111 22.0848 22.3141C22.1689 22.5171 22.3113 22.6906 22.4939 22.8127C22.6766 22.9348 22.8914 23 23.1111 23H30.8889C31.1836 23 31.4662 22.8829 31.6746 22.6746C31.8829 22.4662 32 22.1836 32 21.8889C32 21.5942 31.8829 21.3116 31.6746 21.1032C31.4662 20.8948 31.1836 20.7778 30.8889 20.7778H25.7933L31.6744 14.8967C31.8298 14.7413 31.9356 14.5433 31.9784 14.3278C32.0213 14.1123 31.9993 13.8889 31.9152 13.6859C31.8311 13.4829 31.6887 13.3094 31.5061 13.1873C31.3234 13.0652 31.1086 13 30.8889 13H23.1111C22.8164 13 22.5338 13.1171 22.3254 13.3254C22.1171 13.5338 22 13.8164 22 14.1111ZM13.1111 20.7778C12.8164 20.7778 12.5338 20.6607 12.3254 20.4523C12.1171 20.244 12 19.9614 12 19.6667C12 19.372 12.1171 19.0894 12.3254 18.881C12.5338 18.6726 12.8164 18.5556 13.1111 18.5556H18.6667C18.8864 18.5556 19.1012 18.6208 19.2838 18.7429C19.4665 18.865 19.6089 19.0385 19.693 19.2415C19.7771 19.4445 19.7991 19.6679 19.7562 19.8834C19.7134 20.0989 19.6076 20.2968 19.4522 20.4522L15.7933 24.1111H18.6667C18.9614 24.1111 19.244 24.2282 19.4523 24.4365C19.6607 24.6449 19.7778 24.9275 19.7778 25.2222C19.7778 25.5169 19.6607 25.7995 19.4523 26.0079C19.244 26.2163 18.9614 26.3333 18.6667 26.3333H13.1111C12.8914 26.3333 12.6766 26.2681 12.4939 26.146C12.3113 26.0239 12.1689 25.8504 12.0848 25.6474C12.0007 25.4444 11.9787 25.221 12.0216 25.0055C12.0644 24.79 12.1702 24.5921 12.3256 24.4367L15.9844 20.7778H13.1111ZM22 28.5556C21.7053 28.5556 21.4227 28.4385 21.2143 28.2301C21.006 28.0217 20.8889 27.7391 20.8889 27.4444C20.8889 27.1498 21.006 26.8671 21.2143 26.6588C21.4227 26.4504 21.7053 26.3333 22 26.3333H26.4444C26.6642 26.3334 26.8789 26.3986 27.0616 26.5207C27.2443 26.6428 27.3867 26.8163 27.4708 27.0193C27.5548 27.2223 27.5768 27.4456 27.534 27.6611C27.4911 27.8767 27.3853 28.0746 27.23 28.23L24.6822 30.7778H26.4444C26.7391 30.7778 27.0217 30.8948 27.2301 31.1032C27.4385 31.3116 27.5556 31.5942 27.5556 31.8889C27.5556 32.1836 27.4385 32.4662 27.2301 32.6746C27.0217 32.8829 26.7391 33 26.4444 33H22C21.7803 33 21.5655 32.9348 21.3828 32.8127C21.2001 32.6906 21.0578 32.5171 20.9737 32.3141C20.8896 32.1111 20.8676 31.8877 20.9105 31.6722C20.9533 31.4567 21.0591 31.2587 21.2144 31.1033L23.7622 28.5556H22Z" fill="#D58637"/>
</svg>
