<svg width="45" height="45" viewBox="0 0 45 45" fill="none" xmlns="http://www.w3.org/2000/svg">
<circle cx="22.5" cy="22.5" r="21.5" stroke="#D58637" stroke-width="2"/>
<path d="M18.2778 23.5556V27.7778M26.7222 15.1111V15.6389C26.7222 16.1988 26.9446 16.7358 27.3406 17.1317C27.7365 17.5276 28.2734 17.75 28.8333 17.75C29.3932 17.75 29.9302 17.9724 30.3261 18.3683C30.722 18.7642 30.9444 19.3012 30.9444 19.8611V20.3889M13 13L32 32M27.7778 23.5556H30.9444C31.2244 23.5556 31.4929 23.6668 31.6908 23.8647C31.8888 24.0627 32 24.3312 32 24.6111V26.7222C32 27.0178 31.8786 27.2848 31.6833 27.4759M27.7778 27.7778H14.0556C13.7756 27.7778 13.5071 27.6666 13.3092 27.4686C13.1112 27.2707 13 27.0022 13 26.7222V24.6111C13 24.3312 13.1112 24.0627 13.3092 23.8647C13.5071 23.6668 13.7756 23.5556 14.0556 23.5556H23.5556" stroke="#D58637" stroke-width="2" stroke-linecap="round" stroke-linejoin="round"/>
</svg>
