<svg width="73" height="72" viewBox="0 0 73 72" fill="none" xmlns="http://www.w3.org/2000/svg">
<path fill-rule="evenodd" clip-rule="evenodd" d="M7.35269 18.202C7.41707 21.4147 5.64455 25.7576 3.33985 28.0264C1.20127 30.1376 0 32.9998 0 35.9841C0 38.9684 1.20127 41.8306 3.33985 43.9418C5.61451 46.1768 7.28832 50.0541 7.35269 53.2202C7.41278 56.0224 8.52436 58.8076 10.6917 60.9409C12.6913 62.9171 15.3663 64.0868 18.1938 64.2214C21.5886 64.3907 26.0349 66.3378 28.4383 68.7082C30.5788 70.8161 33.48 72 36.5048 72C39.5296 72 42.4308 70.8161 44.5713 68.7082C46.9747 66.3378 51.421 64.3907 54.8158 64.2214C57.6433 64.0868 60.3183 62.9171 62.3179 60.9409C64.4025 58.8877 65.598 56.1169 65.6526 53.2118C65.717 50.0541 67.3693 46.2022 69.6397 43.9672C71.7864 41.8567 72.9952 38.9916 73 36.0021C73.0048 33.0126 71.8053 30.1437 69.6655 28.0264C67.365 25.7618 65.5882 21.4147 65.6569 18.2062C65.6892 16.6914 65.41 15.1857 64.8362 13.7802C64.2623 12.3747 63.4056 11.0984 62.3179 10.0284C61.1906 8.91364 59.8379 8.04543 58.348 7.48024C56.858 6.91505 55.2641 6.66554 53.6699 6.74795C50.6055 6.90033 46.7386 5.43577 44.5713 3.29396C42.4306 1.18476 39.5285 0 36.5027 0C33.4768 0 30.5747 1.18476 28.4341 3.29396C26.271 5.43154 22.3998 6.90033 19.3354 6.74795C17.7419 6.66614 16.1488 6.91594 14.6597 7.48112C13.1705 8.04629 11.8185 8.91418 10.6917 10.0284C9.60451 11.0979 8.74816 12.3735 8.1743 13.7783C7.60044 15.183 7.32096 16.6878 7.35269 18.202ZM49.5326 21.6983C50.0256 21.9681 50.4598 22.331 50.8105 22.7664C51.1612 23.2017 51.4215 23.7009 51.5766 24.2355C51.7316 24.7701 51.7784 25.3296 51.7141 25.882C51.6498 26.4344 51.4759 26.9689 51.2021 27.455L39.3224 48.5429C39.0147 49.1173 38.577 49.614 38.0434 49.9948C37.268 50.5481 36.3272 50.83 35.3707 50.7955C34.4142 50.7609 33.4969 50.4121 32.7645 49.8043L20.9234 40.4625C20.4832 40.115 20.1167 39.6855 19.8449 39.1984C19.573 38.7113 19.4011 38.1762 19.3389 37.6235C19.2767 37.0709 19.3255 36.5116 19.4825 35.9776C19.6395 35.4435 19.9016 34.9452 20.2539 34.5111C20.6061 34.077 21.0416 33.7155 21.5355 33.4474C22.0294 33.1793 22.572 33.0097 23.1323 32.9484C23.6927 32.8871 24.2598 32.9352 24.8012 33.09C25.3427 33.2449 25.848 33.5034 26.2882 33.8508L34.2409 40.1281L43.6957 23.3407C43.9696 22.8548 44.3379 22.4269 44.7794 22.0815C45.221 21.736 45.7273 21.4797 46.2693 21.3272C46.8113 21.1747 47.3784 21.129 47.9383 21.1926C48.4983 21.2563 49.04 21.4281 49.5326 21.6983Z" fill="#D58637"/>
</svg>
