<svg width="22" height="18" viewBox="0 0 22 18" fill="none" xmlns="http://www.w3.org/2000/svg">
<path d="M1.86111 1.89286L8.64778 7.16372L8.65 7.166C9.40333 7.734 9.78 8.01857 10.1933 8.12829C10.5584 8.22545 10.9416 8.22545 11.3067 8.12829C11.72 8.01857 12.0978 7.734 12.8533 7.16372C12.8533 7.16372 17.2056 3.72829 19.6389 1.89286M0.75 13.0929V4.40714C0.75 3.12714 0.75 2.48714 0.992222 1.998C1.20556 1.56714 1.54444 1.21857 1.96333 0.999143C2.43889 0.75 3.06111 0.75 4.30556 0.75H17.1944C18.4389 0.75 19.0611 0.75 19.5356 0.999143C19.9544 1.21857 20.2944 1.56714 20.5078 1.998C20.75 2.486 20.75 3.126 20.75 4.40371V13.0974C20.75 14.3751 20.75 15.0129 20.5078 15.502C20.2944 15.9322 19.9541 16.2819 19.5356 16.5009C19.0611 16.75 18.44 16.75 17.1978 16.75H4.30222C3.06 16.75 2.43778 16.75 1.96333 16.5009C1.54521 16.2817 1.20527 15.9321 0.992222 15.502C0.75 15.0129 0.75 14.3729 0.75 13.0929Z" stroke="#FCCFA3" stroke-width="1.5" stroke-linecap="round" stroke-linejoin="round"/>
</svg>
