<svg width="43" height="43" viewBox="0 0 43 43" fill="none" xmlns="http://www.w3.org/2000/svg">
<path d="M21.4629 8.08594C21.5186 8.08594 21.6182 8.10945 21.752 8.24414L21.7529 8.24512L37.2354 23.7402V38.501C37.2354 39.8362 36.8768 40.8266 36.2783 41.4785C35.6852 42.1244 34.7996 42.5 33.6123 42.5H26.6758V28.4609C26.6757 27.8948 26.508 27.3789 26.165 26.998C25.8171 26.6119 25.327 26.4082 24.7764 26.4082H18.2783C17.7285 26.4082 17.2357 26.6107 16.8838 26.9941C16.5356 27.3737 16.3614 27.8905 16.3613 28.4609V42.5H9.40625C8.21853 42.5 7.32737 42.1236 6.72949 41.4766C6.12684 40.8242 5.76465 39.8346 5.76465 38.501V23.8418L21.1924 8.26465L21.1943 8.2627C21.3647 8.08896 21.4466 8.08596 21.4629 8.08594ZM32.3418 0.5H34.7539C35.0343 0.500109 35.2237 0.595661 35.3477 0.733398C35.4768 0.876865 35.5781 1.11534 35.5781 1.47168V13.7617L35.7227 13.9082L42.0928 20.3477L42.0947 20.3506C42.3583 20.6131 42.4999 20.8769 42.5 21.3457C42.5 21.7116 42.3728 21.9717 42.1963 22.1406C42.0162 22.3129 41.7533 22.4209 41.4355 22.4209C41.1236 22.4209 40.8238 22.2526 40.4736 21.8818L40.4658 21.874L22.5176 3.69629C22.2211 3.39372 21.8952 3.24121 21.5176 3.24121C21.1475 3.24133 20.7957 3.37572 20.5 3.69629L2.53418 21.874L2.52637 21.8818L2.51855 21.8906C2.19528 22.2497 1.89644 22.4209 1.56445 22.4209C1.24624 22.4209 0.983586 22.3128 0.803711 22.1406C0.627395 21.9718 0.5 21.7118 0.5 21.3457C0.500069 20.8905 0.649391 20.6212 0.908203 20.3477L19.6465 1.37402L19.6475 1.37305C20.2278 0.782625 20.8761 0.520508 21.5 0.520508C22.1275 0.520508 22.7908 0.785113 23.3467 1.36719L23.3525 1.37207L30.6426 8.77441L31.498 9.64453V1.47168C31.4981 1.12434 31.6039 0.885257 31.7402 0.738281C31.8738 0.594401 32.0721 0.500113 32.3418 0.5Z" fill="#D58637" stroke="#D58637"/>
</svg>
