<svg width="18" height="24" viewBox="0 0 18 24" fill="none" xmlns="http://www.w3.org/2000/svg">
<path fill-rule="evenodd" clip-rule="evenodd" d="M3.60472 0.358471C5.1494 -0.54592 7.15604 0.338933 7.8717 2.13609L8.75869 4.35881C9.34194 5.82115 8.88939 7.46185 7.63926 8.19348L7.33685 8.37182C7.28482 8.47046 7.25648 8.58239 7.2542 8.6983C7.21969 9.15764 7.35988 10.1981 8.48164 12.191C9.6034 14.1839 10.4146 14.8334 10.8243 15.0372C10.9264 15.0938 11.0378 15.1256 11.1502 15.1303L11.6681 14.8267C12.7797 14.1768 14.2002 14.4398 15.1707 15.4268L16.8801 17.1683C18.346 18.6573 18.2293 21.1838 16.5284 22.1804L14.725 23.2355C14.1564 23.5679 13.4477 23.7706 12.6768 23.6054C10.7761 23.1968 6.496 21.5891 3.0134 15.4036C-0.236356 9.62975 -0.179406 5.51197 0.14686 3.57758C0.312938 2.5998 0.930391 1.92438 1.61303 1.52555L3.60472 0.358471ZM6.42013 2.71155C6.0639 1.81809 5.10716 1.45212 4.4319 1.84753L2.43942 3.0132C2.02059 3.25833 1.77021 3.59612 1.7066 3.97476C1.44705 5.51189 1.31726 9.20196 4.35896 14.6054C7.55015 20.2731 11.3745 21.6266 12.8974 21.9533C13.2081 22.0208 13.5476 21.9511 13.8965 21.7472L15.6991 20.6907C16.4326 20.2619 16.5565 19.0955 15.8241 18.3512L14.1145 16.6108C13.6415 16.131 12.9837 16.0305 12.4963 16.3161L11.9186 16.6549L11.5035 15.9099C11.9186 16.6549 11.9174 16.6556 11.9163 16.6553L11.9148 16.6571L11.911 16.6594L11.9024 16.6636L11.8836 16.6737C11.8307 16.7021 11.7753 16.7254 11.718 16.7434C11.623 16.7743 11.4997 16.8032 11.3511 16.8125C11.0492 16.833 10.6682 16.7743 10.2306 16.557C9.37222 16.1312 8.33547 15.1209 7.13584 12.9902C5.93723 10.8599 5.60266 9.43736 5.67563 8.46229C5.71225 7.96443 5.85583 7.59734 6.0263 7.34023C6.12093 7.19514 6.23801 7.06882 6.37298 6.96616L6.41437 6.93895L6.4324 6.92739L6.44003 6.92289L6.44384 6.92065L6.44638 6.91915L6.81184 6.70549C7.35544 6.38586 7.58905 5.64507 7.3061 4.93394L6.42013 2.71155Z" fill="#FCCFA3"/>
</svg>
