<svg width="1065" height="97" viewBox="0 0 1065 97" fill="none" xmlns="http://www.w3.org/2000/svg">
<mask id="path-1-outside-1_8_11" maskUnits="userSpaceOnUse" x="-0.623993" y="-0.864014" width="1065" height="98" fill="black">
<rect fill="white" x="-0.623993" y="-0.864014" width="1065" height="98"/>
<path d="M67.792 46.544C72.912 48.1653 76.9227 50.896 79.824 54.736C82.7253 58.4907 84.176 63.1413 84.176 68.688C84.176 76.5387 81.104 82.5973 74.96 86.864C68.9013 91.0453 60.0267 93.136 48.336 93.136H2.00001V3.53598H45.776C56.6987 3.53598 65.0613 5.62665 70.864 9.80798C76.752 13.9893 79.696 19.664 79.696 26.832C79.696 31.184 78.6293 35.0667 76.496 38.48C74.448 41.8933 71.5467 44.5813 67.792 46.544ZM22.608 19.152V40.272H43.216C48.336 40.272 52.2187 39.376 54.864 37.584C57.5093 35.792 58.832 33.1467 58.832 29.648C58.832 26.1493 57.5093 23.5467 54.864 21.84C52.2187 20.048 48.336 19.152 43.216 19.152H22.608ZM46.8 77.52C52.2613 77.52 56.3573 76.624 59.088 74.832C61.904 73.04 63.312 70.2667 63.312 66.512C63.312 59.088 57.808 55.376 46.8 55.376H22.608V77.52H46.8ZM158.883 73.936H117.283L109.347 93.136H88.099L128.035 3.53598H148.515L188.579 93.136H166.819L158.883 73.936ZM152.355 58.192L138.147 23.888L123.939 58.192H152.355ZM254.963 93.136L237.683 68.176H236.659H218.611V93.136H197.875V3.53598H236.659C244.595 3.53598 251.464 4.85865 257.267 7.50398C263.155 10.1493 267.678 13.904 270.835 18.768C273.992 23.632 275.571 29.392 275.571 36.048C275.571 42.704 273.95 48.464 270.707 53.328C267.55 58.1067 263.027 61.776 257.139 64.336L277.235 93.136H254.963ZM254.579 36.048C254.579 31.0133 252.958 27.1733 249.715 24.528C246.472 21.7973 241.736 20.432 235.507 20.432H218.611V51.664H235.507C241.736 51.664 246.472 50.2987 249.715 47.568C252.958 44.8373 254.579 40.9973 254.579 36.048ZM374.176 3.53598V93.136H357.152L312.48 38.736V93.136H292V3.53598H309.152L353.696 57.936V3.53598H374.176ZM464.751 76.496V93.136H395.375V3.53598H463.087V20.176H415.983V39.632H457.583V55.76H415.983V76.496H464.751ZM510.69 94.672C503.607 94.672 496.738 93.7333 490.082 91.856C483.511 89.8933 478.221 87.376 474.21 84.304L481.25 68.688C485.09 71.504 489.655 73.7653 494.946 75.472C500.237 77.1787 505.527 78.032 510.818 78.032C516.706 78.032 521.058 77.1787 523.874 75.472C526.69 73.68 528.098 71.3333 528.098 68.432C528.098 66.2987 527.245 64.5493 525.538 63.184C523.917 61.7333 521.783 60.5813 519.138 59.728C516.578 58.8747 513.079 57.936 508.642 56.912C501.815 55.2907 496.226 53.6693 491.874 52.048C487.522 50.4267 483.767 47.824 480.61 44.24C477.538 40.656 476.002 35.8773 476.002 29.904C476.002 24.6987 477.41 20.0053 480.226 15.824C483.042 11.5573 487.266 8.18665 492.898 5.71198C498.615 3.23732 505.57 1.99998 513.762 1.99998C519.479 1.99998 525.069 2.68265 530.53 4.04798C535.991 5.41332 540.77 7.37598 544.866 9.93598L538.466 25.68C530.189 20.9867 521.911 18.64 513.634 18.64C507.831 18.64 503.522 19.5787 500.706 21.456C497.975 23.3333 496.61 25.808 496.61 28.88C496.61 31.952 498.189 34.256 501.346 35.792C504.589 37.2427 509.495 38.6933 516.066 40.144C522.893 41.7653 528.482 43.3867 532.834 45.008C537.186 46.6293 540.898 49.1893 543.97 52.688C547.127 56.1867 548.706 60.9227 548.706 66.896C548.706 72.016 547.255 76.7093 544.354 80.976C541.538 85.1573 537.271 88.4853 531.554 90.96C525.837 93.4347 518.882 94.672 510.69 94.672ZM681.301 3.53598V93.136H660.565V56.4H619.861V93.136H599.125V3.53598H619.861V38.864H660.565V3.53598H681.301ZM745.892 94.672C736.591 94.672 728.185 92.6667 720.676 88.656C713.252 84.6453 707.407 79.1413 703.14 72.144C698.959 65.0613 696.868 57.1253 696.868 48.336C696.868 39.5467 698.959 31.6533 703.14 24.656C707.407 17.5733 713.252 12.0266 720.676 8.01598C728.185 4.00532 736.591 1.99998 745.892 1.99998C755.193 1.99998 763.556 4.00532 770.98 8.01598C778.404 12.0266 784.249 17.5733 788.516 24.656C792.783 31.6533 794.916 39.5467 794.916 48.336C794.916 57.1253 792.783 65.0613 788.516 72.144C784.249 79.1413 778.404 84.6453 770.98 88.656C763.556 92.6667 755.193 94.672 745.892 94.672ZM745.892 77.008C751.183 77.008 755.961 75.8133 760.228 73.424C764.495 70.9493 767.823 67.536 770.212 63.184C772.687 58.832 773.924 53.8826 773.924 48.336C773.924 42.7893 772.687 37.84 770.212 33.488C767.823 29.136 764.495 25.7653 760.228 23.376C755.961 20.9013 751.183 19.664 745.892 19.664C740.601 19.664 735.823 20.9013 731.556 23.376C727.289 25.7653 723.919 29.136 721.444 33.488C719.055 37.84 717.86 42.7893 717.86 48.336C717.86 53.8826 719.055 58.832 721.444 63.184C723.919 67.536 727.289 70.9493 731.556 73.424C735.823 75.8133 740.601 77.008 745.892 77.008ZM850.308 94.672C837.508 94.672 827.524 91.1307 820.356 84.048C813.273 76.9653 809.732 66.8533 809.732 53.712V3.53598H830.468V52.944C830.468 68.9867 837.124 77.008 850.436 77.008C856.921 77.008 861.871 75.088 865.284 71.248C868.697 67.3227 870.404 61.2213 870.404 52.944V3.53598H890.884V53.712C890.884 66.8533 887.3 76.9653 880.132 84.048C873.049 91.1307 863.108 94.672 850.308 94.672ZM940.815 94.672C933.732 94.672 926.863 93.7333 920.207 91.856C913.636 89.8933 908.346 87.376 904.335 84.304L911.375 68.688C915.215 71.504 919.78 73.7653 925.071 75.472C930.362 77.1787 935.652 78.032 940.943 78.032C946.831 78.032 951.183 77.1787 953.999 75.472C956.815 73.68 958.223 71.3333 958.223 68.432C958.223 66.2987 957.37 64.5493 955.663 63.184C954.042 61.7333 951.908 60.5813 949.263 59.728C946.703 58.8747 943.204 57.936 938.767 56.912C931.94 55.2907 926.351 53.6693 921.999 52.048C917.647 50.4267 913.892 47.824 910.735 44.24C907.663 40.656 906.127 35.8773 906.127 29.904C906.127 24.6987 907.535 20.0053 910.351 15.824C913.167 11.5573 917.391 8.18665 923.023 5.71198C928.74 3.23732 935.695 1.99998 943.887 1.99998C949.604 1.99998 955.194 2.68265 960.655 4.04798C966.116 5.41332 970.895 7.37598 974.991 9.93598L968.591 25.68C960.314 20.9867 952.036 18.64 943.759 18.64C937.956 18.64 933.647 19.5787 930.831 21.456C928.1 23.3333 926.735 25.808 926.735 28.88C926.735 31.952 928.314 34.256 931.471 35.792C934.714 37.2427 939.62 38.6933 946.191 40.144C953.018 41.7653 958.607 43.3867 962.959 45.008C967.311 46.6293 971.023 49.1893 974.095 52.688C977.252 56.1867 978.831 60.9227 978.831 66.896C978.831 72.016 977.38 76.7093 974.479 80.976C971.663 85.1573 967.396 88.4853 961.679 90.96C955.962 93.4347 949.007 94.672 940.815 94.672ZM1062.38 76.496V93.136H993V3.53598H1060.71V20.176H1013.61V39.632H1055.21V55.76H1013.61V76.496H1062.38Z"/>
</mask>
<path d="M67.792 46.544L66.8655 44.7715L62.6042 46.9991L67.1882 48.4507L67.792 46.544ZM79.824 54.736L78.2283 55.9417L78.2348 55.9503L78.2414 55.9589L79.824 54.736ZM74.96 86.864L76.096 88.51L76.1008 88.5067L74.96 86.864ZM2.00001 93.136H7.62939e-06V95.136H2.00001V93.136ZM2.00001 3.53598V1.53598H7.62939e-06V3.53598H2.00001ZM70.864 9.80798L69.6947 11.4306L69.706 11.4386L70.864 9.80798ZM76.496 38.48L74.8 37.42L74.7904 37.4354L74.781 37.451L76.496 38.48ZM22.608 19.152V17.152H20.608V19.152H22.608ZM22.608 40.272H20.608V42.272H22.608V40.272ZM54.864 21.84L53.7423 23.4958L53.7609 23.5084L53.7798 23.5206L54.864 21.84ZM59.088 74.832L58.0143 73.1447L58.0024 73.1522L57.9907 73.1599L59.088 74.832ZM22.608 55.376V53.376H20.608V55.376H22.608ZM22.608 77.52H20.608V79.52H22.608V77.52ZM67.792 46.544L67.1882 48.4507C71.9607 49.962 75.6056 52.4704 78.2283 55.9417L79.824 54.736L81.4197 53.5303C78.2398 49.3216 73.8633 46.3687 68.3958 44.6373L67.792 46.544ZM79.824 54.736L78.2414 55.9589C80.8281 59.3064 82.176 63.5061 82.176 68.688H84.176H86.176C86.176 62.7765 84.6225 57.6749 81.4066 53.5131L79.824 54.736ZM84.176 68.688H82.176C82.176 75.9219 79.3941 81.3498 73.8192 85.2212L74.96 86.864L76.1008 88.5067C82.8139 83.8449 86.176 77.1554 86.176 68.688H84.176ZM74.96 86.864L73.824 85.2179C68.2432 89.0694 59.8405 91.136 48.336 91.136V93.136V95.136C60.2128 95.136 69.5594 93.0212 76.096 88.51L74.96 86.864ZM48.336 93.136V91.136H2.00001V93.136V95.136H48.336V93.136ZM2.00001 93.136H4.00001V3.53598H2.00001H7.62939e-06V93.136H2.00001ZM2.00001 3.53598V5.53598H45.776V3.53598V1.53598H2.00001V3.53598ZM45.776 3.53598V5.53598C56.4868 5.53598 64.3694 7.5932 69.6948 11.4306L70.864 9.80798L72.0332 8.18536C65.7533 3.6601 56.9105 1.53598 45.776 1.53598V3.53598ZM70.864 9.80798L69.706 11.4386C75.0705 15.2482 77.696 20.3176 77.696 26.832H79.696H81.696C81.696 19.0104 78.4335 12.7304 72.022 8.17733L70.864 9.80798ZM79.696 26.832H77.696C77.696 30.8408 76.7186 34.3503 74.8 37.42L76.496 38.48L78.192 39.54C80.5401 35.783 81.696 31.5272 81.696 26.832H79.696ZM76.496 38.48L74.781 37.451C72.9347 40.5282 70.3158 42.968 66.8655 44.7715L67.792 46.544L68.7185 48.3164C72.7775 46.1947 75.9613 43.2585 78.211 39.509L76.496 38.48ZM22.608 19.152H20.608V40.272H22.608H24.608V19.152H22.608ZM22.608 40.272V42.272H43.216V40.272V38.272H22.608V40.272ZM43.216 40.272V42.272C48.5154 42.272 52.8646 41.3541 55.9857 39.2398L54.864 37.584L53.7423 35.9281C51.5728 37.3978 48.1566 38.272 43.216 38.272V40.272ZM54.864 37.584L55.9857 39.2398C59.2391 37.0359 60.832 33.7359 60.832 29.648H58.832H56.832C56.832 32.5574 55.7796 34.548 53.7423 35.9281L54.864 37.584ZM58.832 29.648H60.832C60.832 25.5595 59.2358 22.2804 55.9483 20.1594L54.864 21.84L53.7798 23.5206C55.7828 24.8129 56.832 26.7392 56.832 29.648H58.832ZM54.864 21.84L55.9857 20.1841C52.8646 18.0698 48.5154 17.152 43.216 17.152V19.152V21.152C48.1566 21.152 51.5728 22.0261 53.7423 23.4958L54.864 21.84ZM43.216 19.152V17.152H22.608V19.152V21.152H43.216V19.152ZM46.8 77.52V79.52C52.4165 79.52 56.9762 78.6101 60.1853 76.5041L59.088 74.832L57.9907 73.1599C55.7385 74.6379 52.1062 75.52 46.8 75.52V77.52ZM59.088 74.832L60.1618 76.5193C63.635 74.3091 65.312 70.8495 65.312 66.512H63.312H61.312C61.312 69.6838 60.173 71.7709 58.0143 73.1447L59.088 74.832ZM63.312 66.512H65.312C65.312 62.2272 63.6778 58.7783 60.3023 56.5018C57.067 54.3199 52.466 53.376 46.8 53.376V55.376V57.376C52.142 57.376 55.797 58.2881 58.0657 59.8181C60.1942 61.2536 61.312 63.3728 61.312 66.512H63.312ZM46.8 55.376V53.376H22.608V55.376V57.376H46.8V55.376ZM22.608 55.376H20.608V77.52H22.608H24.608V55.376H22.608ZM22.608 77.52V79.52H46.8V77.52V75.52H22.608V77.52ZM158.883 73.936L160.731 73.172L160.22 71.936H158.883V73.936ZM117.283 73.936V71.936H115.946L115.435 73.172L117.283 73.936ZM109.347 93.136V95.136H110.684L111.195 93.9L109.347 93.136ZM88.099 93.136L86.2722 92.3218L85.0179 95.136H88.099V93.136ZM128.035 3.53598V1.53598H126.737L126.208 2.72176L128.035 3.53598ZM148.515 3.53598L150.341 2.71959L149.812 1.53598H148.515V3.53598ZM188.579 93.136V95.136H191.664L190.405 92.3196L188.579 93.136ZM166.819 93.136L164.971 93.9L165.482 95.136H166.819V93.136ZM152.355 58.192V60.192H155.348L154.203 57.4267L152.355 58.192ZM138.147 23.888L139.995 23.1227L138.147 18.6614L136.299 23.1227L138.147 23.888ZM123.939 58.192L122.091 57.4267L120.946 60.192H123.939V58.192ZM158.883 73.936V71.936H117.283V73.936V75.936H158.883V73.936ZM117.283 73.936L115.435 73.172L107.499 92.372L109.347 93.136L111.195 93.9L119.131 74.7L117.283 73.936ZM109.347 93.136V91.136H88.099V93.136V95.136H109.347V93.136ZM88.099 93.136L89.9258 93.9502L129.862 4.3502L128.035 3.53598L126.208 2.72176L86.2722 92.3218L88.099 93.136ZM128.035 3.53598V5.53598H148.515V3.53598V1.53598H128.035V3.53598ZM148.515 3.53598L146.689 4.35237L186.753 93.9524L188.579 93.136L190.405 92.3196L150.341 2.71959L148.515 3.53598ZM188.579 93.136V91.136H166.819V93.136V95.136H188.579V93.136ZM166.819 93.136L168.667 92.372L160.731 73.172L158.883 73.936L157.035 74.7L164.971 93.9L166.819 93.136ZM152.355 58.192L154.203 57.4267L139.995 23.1227L138.147 23.888L136.299 24.6533L150.507 58.9573L152.355 58.192ZM138.147 23.888L136.299 23.1227L122.091 57.4267L123.939 58.192L125.787 58.9573L139.995 24.6533L138.147 23.888ZM123.939 58.192V60.192H152.355V58.192V56.192H123.939V58.192ZM254.963 93.136L253.319 94.2744L253.915 95.136H254.963V93.136ZM237.683 68.176L239.327 67.0376L238.731 66.176H237.683V68.176ZM218.611 68.176V66.176H216.611V68.176H218.611ZM218.611 93.136V95.136H220.611V93.136H218.611ZM197.875 93.136H195.875V95.136H197.875V93.136ZM197.875 3.53598V1.53598H195.875V3.53598H197.875ZM257.267 7.50398L256.437 9.32382L256.447 9.32832L257.267 7.50398ZM270.707 53.328L269.043 52.2186L269.038 52.2255L270.707 53.328ZM257.139 64.336L256.342 62.5018L254.1 63.4763L255.499 65.4805L257.139 64.336ZM277.235 93.136V95.136H281.069L278.875 91.9915L277.235 93.136ZM249.715 24.528L248.427 26.0578L248.439 26.0679L248.451 26.0777L249.715 24.528ZM218.611 20.432V18.432H216.611V20.432H218.611ZM218.611 51.664H216.611V53.664H218.611V51.664ZM249.715 47.568L251.003 49.0978V49.0978L249.715 47.568ZM254.963 93.136L256.607 91.9976L239.327 67.0376L237.683 68.176L236.039 69.3144L253.319 94.2744L254.963 93.136ZM237.683 68.176V66.176H236.659V68.176V70.176H237.683V68.176ZM236.659 68.176V66.176H218.611V68.176V70.176H236.659V68.176ZM218.611 68.176H216.611V93.136H218.611H220.611V68.176H218.611ZM218.611 93.136V91.136H197.875V93.136V95.136H218.611V93.136ZM197.875 93.136H199.875V3.53598H197.875H195.875V93.136H197.875ZM197.875 3.53598V5.53598H236.659V3.53598V1.53598H197.875V3.53598ZM236.659 3.53598V5.53598C244.377 5.53598 250.951 6.82251 256.437 9.3238L257.267 7.50398L258.097 5.68417C251.978 2.89478 244.813 1.53598 236.659 1.53598V3.53598ZM257.267 7.50398L256.447 9.32832C262.026 11.8345 266.233 15.3512 269.157 19.8569L270.835 18.768L272.513 17.679C269.123 12.4568 264.284 8.46411 258.087 5.67964L257.267 7.50398ZM270.835 18.768L269.157 19.8569C272.075 24.3508 273.571 29.7199 273.571 36.048H275.571H277.571C277.571 29.0641 275.91 22.9131 272.513 17.679L270.835 18.768ZM275.571 36.048H273.571C273.571 42.3656 272.037 47.7271 269.043 52.2186L270.707 53.328L272.371 54.4374C275.862 49.2008 277.571 43.0424 277.571 36.048H275.571ZM270.707 53.328L269.038 52.2255C266.12 56.6429 261.919 60.0769 256.342 62.5018L257.139 64.336L257.936 66.1701C264.135 63.475 268.98 59.5704 272.376 54.4305L270.707 53.328ZM257.139 64.336L255.499 65.4805L275.595 94.2805L277.235 93.136L278.875 91.9915L258.779 63.1915L257.139 64.336ZM277.235 93.136V91.136H254.963V93.136V95.136H277.235V93.136ZM254.579 36.048H256.579C256.579 30.5475 254.783 26.0812 250.979 22.9783L249.715 24.528L248.451 26.0777C251.132 28.2654 252.579 31.4792 252.579 36.048H254.579ZM249.715 24.528L251.003 22.9982C247.264 19.8493 241.993 18.432 235.507 18.432V20.432V22.432C241.48 22.432 245.681 23.7453 248.427 26.0578L249.715 24.528ZM235.507 20.432V18.432H218.611V20.432V22.432H235.507V20.432ZM218.611 20.432H216.611V51.664H218.611H220.611V20.432H218.611ZM218.611 51.664V53.664H235.507V51.664V49.664H218.611V51.664ZM235.507 51.664V53.664C241.993 53.664 247.264 52.2467 251.003 49.0978L249.715 47.568L248.427 46.0382C245.681 48.3506 241.48 49.664 235.507 49.664V51.664ZM249.715 47.568L251.003 49.0978C254.775 45.9217 256.579 41.4775 256.579 36.048H254.579H252.579C252.579 40.5171 251.14 43.7529 248.427 46.0382L249.715 47.568ZM374.176 3.53598H376.176V1.53598H374.176V3.53598ZM374.176 93.136V95.136H376.176V93.136H374.176ZM357.152 93.136L355.606 94.4052L356.206 95.136H357.152V93.136ZM312.48 38.736L314.026 37.4667L310.48 33.149V38.736H312.48ZM312.48 93.136V95.136H314.48V93.136H312.48ZM292 93.136H290V95.136H292V93.136ZM292 3.53598V1.53598H290V3.53598H292ZM309.152 3.53598L310.699 2.26891L310.099 1.53598H309.152V3.53598ZM353.696 57.936L352.149 59.2031L355.696 63.5354V57.936H353.696ZM353.696 3.53598V1.53598H351.696V3.53598H353.696ZM374.176 3.53598H372.176V93.136H374.176H376.176V3.53598H374.176ZM374.176 93.136V91.136H357.152V93.136V95.136H374.176V93.136ZM357.152 93.136L358.698 91.8667L314.026 37.4667L312.48 38.736L310.934 40.0052L355.606 94.4052L357.152 93.136ZM312.48 38.736H310.48V93.136H312.48H314.48V38.736H312.48ZM312.48 93.136V91.136H292V93.136V95.136H312.48V93.136ZM292 93.136H294V3.53598H292H290V93.136H292ZM292 3.53598V5.53598H309.152V3.53598V1.53598H292V3.53598ZM309.152 3.53598L307.605 4.80305L352.149 59.2031L353.696 57.936L355.243 56.6689L310.699 2.26891L309.152 3.53598ZM353.696 57.936H355.696V3.53598H353.696H351.696V57.936H353.696ZM353.696 3.53598V5.53598H374.176V3.53598V1.53598H353.696V3.53598ZM464.751 76.496H466.751V74.496H464.751V76.496ZM464.751 93.136V95.136H466.751V93.136H464.751ZM395.375 93.136H393.375V95.136H395.375V93.136ZM395.375 3.53598V1.53598H393.375V3.53598H395.375ZM463.087 3.53598H465.087V1.53598H463.087V3.53598ZM463.087 20.176V22.176H465.087V20.176H463.087ZM415.983 20.176V18.176H413.983V20.176H415.983ZM415.983 39.632H413.983V41.632H415.983V39.632ZM457.583 39.632H459.583V37.632H457.583V39.632ZM457.583 55.76V57.76H459.583V55.76H457.583ZM415.983 55.76V53.76H413.983V55.76H415.983ZM415.983 76.496H413.983V78.496H415.983V76.496ZM464.751 76.496H462.751V93.136H464.751H466.751V76.496H464.751ZM464.751 93.136V91.136H395.375V93.136V95.136H464.751V93.136ZM395.375 93.136H397.375V3.53598H395.375H393.375V93.136H395.375ZM395.375 3.53598V5.53598H463.087V3.53598V1.53598H395.375V3.53598ZM463.087 3.53598H461.087V20.176H463.087H465.087V3.53598H463.087ZM463.087 20.176V18.176H415.983V20.176V22.176H463.087V20.176ZM415.983 20.176H413.983V39.632H415.983H417.983V20.176H415.983ZM415.983 39.632V41.632H457.583V39.632V37.632H415.983V39.632ZM457.583 39.632H455.583V55.76H457.583H459.583V39.632H457.583ZM457.583 55.76V53.76H415.983V55.76V57.76H457.583V55.76ZM415.983 55.76H413.983V76.496H415.983H417.983V55.76H415.983ZM415.983 76.496V78.496H464.751V76.496V74.496H415.983V76.496ZM490.082 91.856L489.51 93.7723L489.524 93.7767L489.539 93.7809L490.082 91.856ZM474.21 84.304L472.387 83.482L471.735 84.9276L472.994 85.8917L474.21 84.304ZM481.25 68.688L482.433 67.0752L480.442 65.615L479.427 67.866L481.25 68.688ZM494.946 75.472L495.56 73.5686V73.5686L494.946 75.472ZM523.874 75.472L524.911 77.1824L524.929 77.1711L524.948 77.1593L523.874 75.472ZM525.538 63.184L524.204 64.6745L524.246 64.7113L524.289 64.7457L525.538 63.184ZM519.138 59.728L518.506 61.6254L518.515 61.6284L518.524 61.6314L519.138 59.728ZM508.642 56.912L508.18 58.8579L508.192 58.8608L508.642 56.912ZM491.874 52.048L492.572 50.1738V50.1738L491.874 52.048ZM480.61 44.24L479.091 45.5416L479.1 45.5519L479.109 45.562L480.61 44.24ZM480.226 15.824L481.885 16.9412L481.89 16.9334L481.895 16.9257L480.226 15.824ZM492.898 5.71198L492.104 3.87651L492.093 3.88094L492.898 5.71198ZM530.53 4.04798L531.015 2.1077V2.1077L530.53 4.04798ZM544.866 9.93598L546.719 10.6891L547.352 9.13126L545.926 8.23998L544.866 9.93598ZM538.466 25.68L537.48 27.4198L539.461 28.5433L540.319 26.4331L538.466 25.68ZM500.706 21.456L499.597 19.7919L499.585 19.7998L499.573 19.8079L500.706 21.456ZM501.346 35.792L500.471 37.5905L500.5 37.6045L500.529 37.6176L501.346 35.792ZM516.066 40.144L516.528 38.1981L516.513 38.1944L516.497 38.191L516.066 40.144ZM532.834 45.008L533.532 43.1338V43.1338L532.834 45.008ZM543.97 52.688L542.467 54.0076L542.476 54.0178L542.485 54.0279L543.97 52.688ZM544.354 80.976L542.7 79.8514L542.695 79.8588L544.354 80.976ZM531.554 90.96L530.76 89.1245V89.1245L531.554 90.96ZM510.69 94.672V92.672C503.786 92.672 497.1 91.7574 490.625 89.9311L490.082 91.856L489.539 93.7809C496.376 95.7092 503.428 96.672 510.69 96.672V94.672ZM490.082 91.856L490.654 89.9397C484.239 88.0233 479.189 85.5981 475.426 82.7162L474.21 84.304L472.994 85.8917C477.253 89.1539 482.784 91.7634 489.51 93.7723L490.082 91.856ZM474.21 84.304L476.033 85.126L483.073 69.51L481.25 68.688L479.427 67.866L472.387 83.482L474.21 84.304ZM481.25 68.688L480.067 70.3008C484.106 73.2627 488.871 75.6137 494.332 77.3754L494.946 75.472L495.56 73.5686C490.44 71.9169 486.074 69.7453 482.433 67.0752L481.25 68.688ZM494.946 75.472L494.332 77.3754C499.811 79.1428 505.309 80.032 510.818 80.032V78.032V76.032C505.746 76.032 500.662 75.2145 495.56 73.5686L494.946 75.472ZM510.818 78.032V80.032C516.823 80.032 521.622 79.1755 524.911 77.1824L523.874 75.472L522.837 73.7616C520.494 75.1818 516.589 76.032 510.818 76.032V78.032ZM523.874 75.472L524.948 77.1593C528.239 75.0651 530.098 72.1298 530.098 68.432H528.098H526.098C526.098 70.5369 525.141 72.2949 522.8 73.7847L523.874 75.472ZM528.098 68.432H530.098C530.098 65.674 528.955 63.3563 526.787 61.6222L525.538 63.184L524.289 64.7457C525.534 65.7423 526.098 66.9233 526.098 68.432H528.098ZM525.538 63.184L526.872 61.6935C524.993 60.0123 522.592 58.7408 519.752 57.8246L519.138 59.728L518.524 61.6314C520.974 62.4218 522.841 63.4543 524.204 64.6745L525.538 63.184ZM519.138 59.728L519.77 57.8306C517.124 56.9483 513.555 55.9932 509.092 54.9632L508.642 56.912L508.192 58.8608C512.604 59.8788 516.032 60.801 518.506 61.6254L519.138 59.728ZM508.642 56.912L509.104 54.9661C502.322 53.3552 496.819 51.7559 492.572 50.1738L491.874 52.048L491.176 53.9221C495.633 55.5828 501.309 57.2261 508.18 58.8579L508.642 56.912ZM491.874 52.048L492.572 50.1738C488.538 48.6709 485.057 46.2619 482.111 42.9179L480.61 44.24L479.109 45.562C482.478 49.3861 486.506 52.1824 491.176 53.9221L491.874 52.048ZM480.61 44.24L482.129 42.9384C479.443 39.8049 478.002 35.5302 478.002 29.904H476.002H474.002C474.002 36.2244 475.633 41.5071 479.091 45.5416L480.61 44.24ZM476.002 29.904H478.002C478.002 25.083 479.299 20.7811 481.885 16.9412L480.226 15.824L478.567 14.7068C475.521 19.2295 474.002 24.3144 474.002 29.904H476.002ZM480.226 15.824L481.895 16.9257C484.459 13.0405 488.351 9.89467 493.703 7.54302L492.898 5.71198L492.093 3.88094C486.181 6.47863 481.625 10.0742 478.557 14.7223L480.226 15.824ZM492.898 5.71198L493.692 7.54742C499.093 5.20971 505.761 3.99998 513.762 3.99998V1.99998V-1.52588e-05C505.379 -1.52588e-05 498.137 1.26492 492.104 3.87654L492.898 5.71198ZM513.762 1.99998V3.99998C519.318 3.99998 524.745 4.66322 530.045 5.98827L530.53 4.04798L531.015 2.1077C525.393 0.702087 519.64 -1.52588e-05 513.762 -1.52588e-05V1.99998ZM530.53 4.04798L530.045 5.98827C535.336 7.311 539.914 9.19965 543.806 11.632L544.866 9.93598L545.926 8.23998C541.626 5.55232 536.647 3.51563 531.015 2.1077L530.53 4.04798ZM544.866 9.93598L543.013 9.18282L536.613 24.9268L538.466 25.68L540.319 26.4331L546.719 10.6891L544.866 9.93598ZM538.466 25.68L539.452 23.9402C530.92 19.1021 522.306 16.64 513.634 16.64V18.64V20.64C521.517 20.64 529.457 22.8712 537.48 27.4198L538.466 25.68ZM513.634 18.64V16.64C507.687 16.64 502.901 17.5889 499.597 19.7919L500.706 21.456L501.815 23.1201C504.143 21.5684 507.976 20.64 513.634 20.64V18.64ZM500.706 21.456L499.573 19.8079C496.35 22.0237 494.61 25.0905 494.61 28.88H496.61H498.61C498.61 26.5254 499.601 24.6429 501.839 23.1041L500.706 21.456ZM496.61 28.88H494.61C494.61 30.7774 495.104 32.5244 496.144 34.0424C497.174 35.5452 498.66 36.7092 500.471 37.5905L501.346 35.792L502.221 33.9935C500.875 33.3388 499.993 32.5828 499.444 31.7815C498.905 30.9955 498.61 30.0546 498.61 28.88H496.61ZM501.346 35.792L500.529 37.6176C503.961 39.1529 509.027 40.6381 515.635 42.097L516.066 40.144L516.497 38.191C509.964 36.7486 505.216 35.3324 502.163 33.9663L501.346 35.792ZM516.066 40.144L515.604 42.0899C522.386 43.7007 527.889 45.3001 532.136 46.8821L532.834 45.008L533.532 43.1338C529.075 41.4732 523.399 39.8299 516.528 38.1981L516.066 40.144ZM532.834 45.008L532.136 46.8821C536.177 48.3877 539.613 50.7568 542.467 54.0076L543.97 52.688L545.473 51.3684C542.183 47.6218 538.195 44.8709 533.532 43.1338L532.834 45.008ZM543.97 52.688L542.485 54.0279C545.229 57.0686 546.706 61.2806 546.706 66.896H548.706H550.706C550.706 60.5647 549.025 55.3047 545.455 51.3481L543.97 52.688ZM548.706 66.896H546.706C546.706 71.6116 545.378 75.9136 542.7 79.8514L544.354 80.976L546.008 82.1006C549.133 77.505 550.706 72.4204 550.706 66.896H548.706ZM544.354 80.976L542.695 79.8588C540.138 83.6556 536.209 86.7659 530.76 89.1245L531.554 90.96L532.348 92.7954C538.334 90.2048 542.938 86.659 546.013 82.0932L544.354 80.976ZM531.554 90.96L530.76 89.1245C525.359 91.4623 518.691 92.672 510.69 92.672V94.672V96.672C519.073 96.672 526.315 95.4071 532.348 92.7954L531.554 90.96ZM681.301 3.53598H683.301V1.53598H681.301V3.53598ZM681.301 93.136V95.136H683.301V93.136H681.301ZM660.565 93.136H658.565V95.136H660.565V93.136ZM660.565 56.4H662.565V54.4H660.565V56.4ZM619.861 56.4V54.4H617.861V56.4H619.861ZM619.861 93.136V95.136H621.861V93.136H619.861ZM599.125 93.136H597.125V95.136H599.125V93.136ZM599.125 3.53598V1.53598H597.125V3.53598H599.125ZM619.861 3.53598H621.861V1.53598H619.861V3.53598ZM619.861 38.864H617.861V40.864H619.861V38.864ZM660.565 38.864V40.864H662.565V38.864H660.565ZM660.565 3.53598V1.53598H658.565V3.53598H660.565ZM681.301 3.53598H679.301V93.136H681.301H683.301V3.53598H681.301ZM681.301 93.136V91.136H660.565V93.136V95.136H681.301V93.136ZM660.565 93.136H662.565V56.4H660.565H658.565V93.136H660.565ZM660.565 56.4V54.4H619.861V56.4V58.4H660.565V56.4ZM619.861 56.4H617.861V93.136H619.861H621.861V56.4H619.861ZM619.861 93.136V91.136H599.125V93.136V95.136H619.861V93.136ZM599.125 93.136H601.125V3.53598H599.125H597.125V93.136H599.125ZM599.125 3.53598V5.53598H619.861V3.53598V1.53598H599.125V3.53598ZM619.861 3.53598H617.861V38.864H619.861H621.861V3.53598H619.861ZM619.861 38.864V40.864H660.565V38.864V36.864H619.861V38.864ZM660.565 38.864H662.565V3.53598H660.565H658.565V38.864H660.565ZM660.565 3.53598V5.53598H681.301V3.53598V1.53598H660.565V3.53598ZM720.676 88.656L719.725 90.4156L719.734 90.4201L720.676 88.656ZM703.14 72.144L701.418 73.1607L701.425 73.173L701.432 73.1852L703.14 72.144ZM703.14 24.656L701.427 23.624L701.423 23.6301L703.14 24.656ZM720.676 8.01598L719.734 6.25182L719.725 6.25634L720.676 8.01598ZM788.516 24.656L786.803 25.688L786.808 25.6972L788.516 24.656ZM788.516 72.144L790.224 73.1852L790.229 73.176L788.516 72.144ZM770.98 88.656L771.931 90.4156L770.98 88.656ZM760.228 73.424L761.205 75.169L761.218 75.1616L761.231 75.154L760.228 73.424ZM770.212 63.184L768.473 62.1954L768.466 62.2084L768.459 62.2215L770.212 63.184ZM770.212 33.488L768.459 34.4505L768.466 34.4636L768.473 34.4766L770.212 33.488ZM760.228 23.376L759.225 25.106L759.238 25.1136L759.251 25.121L760.228 23.376ZM731.556 23.376L732.533 25.121L732.546 25.1136L732.559 25.106L731.556 23.376ZM721.444 33.488L719.705 32.4994L719.698 32.5124L719.691 32.5255L721.444 33.488ZM721.444 63.184L719.691 64.1465L719.698 64.1596L719.705 64.1726L721.444 63.184ZM731.556 73.424L730.553 75.154L730.566 75.1616L730.579 75.169L731.556 73.424ZM745.892 94.672V92.672C736.888 92.672 728.811 90.7336 721.618 86.8918L720.676 88.656L719.734 90.4201C727.559 94.5997 736.293 96.672 745.892 96.672V94.672ZM720.676 88.656L721.627 86.8963C714.504 83.0487 708.924 77.7886 704.848 71.1028L703.14 72.144L701.432 73.1852C705.889 80.494 712 86.2419 719.725 90.4156L720.676 88.656ZM703.14 72.144L704.862 71.1272C700.875 64.3738 698.868 56.7931 698.868 48.336H696.868H694.868C694.868 57.4575 697.042 65.7489 701.418 73.1607L703.14 72.144ZM696.868 48.336H698.868C698.868 39.8786 700.875 32.3449 704.857 25.6819L703.14 24.656L701.423 23.6301C697.042 30.9617 694.868 39.2147 694.868 48.336H696.868ZM703.14 24.656L704.853 25.688C708.931 18.9182 714.511 13.62 721.627 9.77563L720.676 8.01598L719.725 6.25634C711.993 10.4333 705.882 16.2284 701.427 23.624L703.14 24.656ZM720.676 8.01598L721.618 9.78014C728.811 5.93833 736.888 3.99998 745.892 3.99998V1.99998V-1.52588e-05C736.293 -1.52588e-05 727.559 2.0723 719.734 6.25183L720.676 8.01598ZM745.892 1.99998V3.99998C754.896 3.99998 762.926 5.93841 770.029 9.77563L770.98 8.01598L771.931 6.25634C764.186 2.07223 755.491 -1.52588e-05 745.892 -1.52588e-05V1.99998ZM770.98 8.01598L770.029 9.77563C777.146 13.62 782.725 18.9182 786.803 25.688L788.516 24.656L790.229 23.624C785.774 16.2284 779.663 10.4333 771.931 6.25634L770.98 8.01598ZM788.516 24.656L786.808 25.6972C790.87 32.3581 792.916 39.8863 792.916 48.336H794.916H796.916C796.916 39.207 794.695 30.9485 790.224 23.6148L788.516 24.656ZM794.916 48.336H792.916C792.916 56.7855 790.87 64.3606 786.803 71.112L788.516 72.144L790.229 73.176C794.695 65.762 796.916 57.4652 796.916 48.336H794.916ZM788.516 72.144L786.808 71.1028C782.732 77.7886 777.152 83.0487 770.029 86.8963L770.98 88.656L771.931 90.4156C779.656 86.2419 785.767 80.494 790.224 73.1852L788.516 72.144ZM770.98 88.656L770.029 86.8963C762.926 90.7336 754.896 92.672 745.892 92.672V94.672V96.672C755.491 96.672 764.186 94.5997 771.931 90.4156L770.98 88.656ZM745.892 77.008V79.008C751.496 79.008 756.616 77.7391 761.205 75.169L760.228 73.424L759.251 71.679C755.307 73.8876 750.869 75.008 745.892 75.008V77.008ZM760.228 73.424L761.231 75.154C765.815 72.4953 769.402 68.8156 771.965 64.1465L770.212 63.184L768.459 62.2215C766.244 66.2563 763.174 69.4033 759.225 71.6939L760.228 73.424ZM770.212 63.184L771.951 64.1726C774.615 59.4876 775.924 54.191 775.924 48.336H773.924H771.924C771.924 53.5743 770.759 58.1763 768.473 62.1954L770.212 63.184ZM773.924 48.336H775.924C775.924 42.481 774.615 37.1843 771.951 32.4994L770.212 33.488L768.473 34.4766C770.759 38.4956 771.924 43.0976 771.924 48.336H773.924ZM770.212 33.488L771.965 32.5255C769.398 27.8504 765.804 24.2063 761.205 21.631L760.228 23.376L759.251 25.121C763.185 27.3244 766.247 30.4216 768.459 34.4505L770.212 33.488ZM760.228 23.376L761.231 21.6459C756.638 18.9816 751.509 17.664 745.892 17.664V19.664V21.664C750.857 21.664 755.285 22.821 759.225 25.106L760.228 23.376ZM745.892 19.664V17.664C740.275 17.664 735.146 18.9816 730.553 21.6459L731.556 23.376L732.559 25.106C736.499 22.821 740.927 21.664 745.892 21.664V19.664ZM731.556 23.376L730.579 21.631C725.986 24.2028 722.356 27.8385 719.705 32.4994L721.444 33.488L723.183 34.4766C725.482 30.4335 728.592 27.3279 732.533 25.121L731.556 23.376ZM721.444 33.488L719.691 32.5255C717.121 37.2057 715.86 42.493 715.86 48.336H717.86H719.86C719.86 43.0857 720.988 38.4742 723.197 34.4505L721.444 33.488ZM717.86 48.336H715.86C715.86 54.179 717.121 59.4662 719.691 64.1465L721.444 63.184L723.197 62.2215C720.988 58.1977 719.86 53.5863 719.86 48.336H717.86ZM721.444 63.184L719.705 64.1726C722.352 68.8276 725.975 72.4989 730.553 75.154L731.556 73.424L732.559 71.6939C728.604 69.3997 725.485 66.2443 723.183 62.1954L721.444 63.184ZM731.556 73.424L730.579 75.169C735.168 77.7391 740.288 79.008 745.892 79.008V77.008V75.008C740.915 75.008 736.477 73.8876 732.533 71.679L731.556 73.424ZM820.356 84.048L818.942 85.4622L818.95 85.4706L820.356 84.048ZM809.732 3.53598V1.53598H807.732V3.53598H809.732ZM830.468 3.53598H832.468V1.53598H830.468V3.53598ZM865.284 71.248L866.779 72.5767L866.786 72.5686L866.793 72.5603L865.284 71.248ZM870.404 3.53598V1.53598H868.404V3.53598H870.404ZM890.884 3.53598H892.884V1.53598H890.884V3.53598ZM880.132 84.048L878.726 82.6253L878.718 82.6338L880.132 84.048ZM850.308 94.672V92.672C837.885 92.672 828.461 89.245 821.762 82.6253L820.356 84.048L818.95 85.4706C826.587 93.0163 837.131 96.672 850.308 96.672V94.672ZM820.356 84.048L821.77 82.6338C815.169 76.0324 811.732 66.4948 811.732 53.712H809.732H807.732C807.732 67.2118 811.378 77.8982 818.942 85.4622L820.356 84.048ZM809.732 53.712H811.732V3.53598H809.732H807.732V53.712H809.732ZM809.732 3.53598V5.53598H830.468V3.53598V1.53598H809.732V3.53598ZM830.468 3.53598H828.468V52.944H830.468H832.468V3.53598H830.468ZM830.468 52.944H828.468C828.468 61.1922 830.171 67.7505 833.921 72.2691C837.73 76.8592 843.363 79.008 850.436 79.008V77.008V75.008C844.197 75.008 839.846 73.1461 836.999 69.7148C834.093 66.2121 832.468 60.7384 832.468 52.944H830.468ZM850.436 77.008V79.008C857.332 79.008 862.891 76.9507 866.779 72.5767L865.284 71.248L863.789 69.9193C860.85 73.2253 856.511 75.008 850.436 75.008V77.008ZM865.284 71.248L866.793 72.5603C870.664 68.1092 872.404 61.434 872.404 52.944H870.404H868.404C868.404 61.0086 866.731 66.5361 863.775 69.9356L865.284 71.248ZM870.404 52.944H872.404V3.53598H870.404H868.404V52.944H870.404ZM870.404 3.53598V5.53598H890.884V3.53598V1.53598H870.404V3.53598ZM890.884 3.53598H888.884V53.712H890.884H892.884V3.53598H890.884ZM890.884 53.712H888.884C888.884 66.4883 885.408 76.0228 878.726 82.6253L880.132 84.048L881.538 85.4706C889.192 77.9078 892.884 67.2183 892.884 53.712H890.884ZM880.132 84.048L878.718 82.6338C872.107 89.2446 862.732 92.672 850.308 92.672V94.672V96.672C863.484 96.672 873.992 93.0167 881.546 85.4622L880.132 84.048ZM920.207 91.856L919.635 93.7723L919.649 93.7767L919.664 93.7809L920.207 91.856ZM904.335 84.304L902.512 83.482L901.86 84.9276L903.119 85.8917L904.335 84.304ZM911.375 68.688L912.558 67.0752L910.567 65.615L909.552 67.866L911.375 68.688ZM925.071 75.472L925.685 73.5686V73.5686L925.071 75.472ZM953.999 75.472L955.036 77.1824L955.054 77.1711L955.073 77.1593L953.999 75.472ZM955.663 63.184L954.329 64.6745L954.371 64.7113L954.414 64.7457L955.663 63.184ZM949.263 59.728L948.631 61.6254L948.64 61.6284L948.649 61.6314L949.263 59.728ZM938.767 56.912L938.305 58.8579L938.317 58.8608L938.767 56.912ZM921.999 52.048L922.697 50.1738V50.1738L921.999 52.048ZM910.735 44.24L909.217 45.5416L909.225 45.5519L909.234 45.562L910.735 44.24ZM910.351 15.824L912.01 16.9412L912.015 16.9334L912.02 16.9257L910.351 15.824ZM923.023 5.71198L922.229 3.87651L922.218 3.88094L923.023 5.71198ZM960.655 4.04798L961.14 2.1077V2.1077L960.655 4.04798ZM974.991 9.93598L976.844 10.6891L977.477 9.13126L976.051 8.23998L974.991 9.93598ZM968.591 25.68L967.605 27.4198L969.586 28.5433L970.444 26.4331L968.591 25.68ZM930.831 21.456L929.722 19.7919L929.71 19.7998L929.698 19.8079L930.831 21.456ZM931.471 35.792L930.596 37.5905L930.625 37.6045L930.654 37.6176L931.471 35.792ZM946.191 40.144L946.653 38.1981L946.638 38.1944L946.622 38.191L946.191 40.144ZM962.959 45.008L963.657 43.1338V43.1338L962.959 45.008ZM974.095 52.688L972.592 54.0076L972.601 54.0178L972.61 54.0279L974.095 52.688ZM974.479 80.976L972.825 79.8514L972.82 79.8588L974.479 80.976ZM961.679 90.96L960.885 89.1245V89.1245L961.679 90.96ZM940.815 94.672V92.672C933.911 92.672 927.225 91.7574 920.75 89.9311L920.207 91.856L919.664 93.7809C926.501 95.7092 933.553 96.672 940.815 96.672V94.672ZM920.207 91.856L920.779 89.9397C914.364 88.0233 909.314 85.5981 905.551 82.7162L904.335 84.304L903.119 85.8917C907.378 89.1539 912.909 91.7634 919.635 93.7723L920.207 91.856ZM904.335 84.304L906.158 85.126L913.198 69.51L911.375 68.688L909.552 67.866L902.512 83.482L904.335 84.304ZM911.375 68.688L910.192 70.3008C914.231 73.2627 918.996 75.6137 924.457 77.3754L925.071 75.472L925.685 73.5686C920.565 71.9169 916.199 69.7453 912.558 67.0752L911.375 68.688ZM925.071 75.472L924.457 77.3754C929.936 79.1428 935.434 80.032 940.943 80.032V78.032V76.032C935.871 76.032 930.787 75.2145 925.685 73.5686L925.071 75.472ZM940.943 78.032V80.032C946.948 80.032 951.747 79.1755 955.036 77.1824L953.999 75.472L952.962 73.7616C950.619 75.1818 946.714 76.032 940.943 76.032V78.032ZM953.999 75.472L955.073 77.1593C958.364 75.0651 960.223 72.1298 960.223 68.432H958.223H956.223C956.223 70.5369 955.266 72.2949 952.925 73.7847L953.999 75.472ZM958.223 68.432H960.223C960.223 65.674 959.08 63.3563 956.912 61.6222L955.663 63.184L954.414 64.7457C955.659 65.7423 956.223 66.9233 956.223 68.432H958.223ZM955.663 63.184L956.997 61.6935C955.118 60.0123 952.717 58.7408 949.877 57.8246L949.263 59.728L948.649 61.6314C951.099 62.4218 952.966 63.4543 954.329 64.6745L955.663 63.184ZM949.263 59.728L949.895 57.8306C947.249 56.9483 943.68 55.9932 939.217 54.9632L938.767 56.912L938.317 58.8608C942.729 59.8788 946.157 60.801 948.631 61.6254L949.263 59.728ZM938.767 56.912L939.229 54.9661C932.447 53.3552 926.944 51.7559 922.697 50.1738L921.999 52.048L921.301 53.9221C925.758 55.5828 931.434 57.2261 938.305 58.8579L938.767 56.912ZM921.999 52.048L922.697 50.1738C918.663 48.6709 915.182 46.2619 912.236 42.9179L910.735 44.24L909.234 45.562C912.603 49.3861 916.631 52.1824 921.301 53.9221L921.999 52.048ZM910.735 44.24L912.254 42.9384C909.568 39.8049 908.127 35.5302 908.127 29.904H906.127H904.127C904.127 36.2244 905.758 41.5071 909.217 45.5416L910.735 44.24ZM906.127 29.904H908.127C908.127 25.083 909.424 20.7811 912.01 16.9412L910.351 15.824L908.692 14.7068C905.646 19.2295 904.127 24.3144 904.127 29.904H906.127ZM910.351 15.824L912.02 16.9257C914.584 13.0405 918.476 9.89467 923.828 7.54302L923.023 5.71198L922.218 3.88094C916.306 6.47863 911.75 10.0742 908.682 14.7223L910.351 15.824ZM923.023 5.71198L923.817 7.54742C929.218 5.20971 935.886 3.99998 943.887 3.99998V1.99998V-1.52588e-05C935.504 -1.52588e-05 928.262 1.26492 922.229 3.87654L923.023 5.71198ZM943.887 1.99998V3.99998C949.443 3.99998 954.87 4.66322 960.17 5.98827L960.655 4.04798L961.14 2.1077C955.518 0.702087 949.765 -1.52588e-05 943.887 -1.52588e-05V1.99998ZM960.655 4.04798L960.17 5.98827C965.461 7.311 970.039 9.19965 973.931 11.632L974.991 9.93598L976.051 8.23998C971.751 5.55232 966.772 3.51563 961.14 2.1077L960.655 4.04798ZM974.991 9.93598L973.138 9.18282L966.738 24.9268L968.591 25.68L970.444 26.4331L976.844 10.6891L974.991 9.93598ZM968.591 25.68L969.577 23.9402C961.045 19.1021 952.431 16.64 943.759 16.64V18.64V20.64C951.642 20.64 959.582 22.8712 967.605 27.4198L968.591 25.68ZM943.759 18.64V16.64C937.812 16.64 933.026 17.5889 929.722 19.7919L930.831 21.456L931.94 23.1201C934.268 21.5684 938.101 20.64 943.759 20.64V18.64ZM930.831 21.456L929.698 19.8079C926.475 22.0237 924.735 25.0905 924.735 28.88H926.735H928.735C928.735 26.5254 929.726 24.6429 931.964 23.1041L930.831 21.456ZM926.735 28.88H924.735C924.735 30.7774 925.229 32.5244 926.269 34.0424C927.299 35.5452 928.785 36.7092 930.596 37.5905L931.471 35.792L932.346 33.9935C931 33.3388 930.118 32.5828 929.569 31.7815C929.03 30.9955 928.735 30.0546 928.735 28.88H926.735ZM931.471 35.792L930.654 37.6176C934.086 39.1529 939.152 40.6381 945.76 42.097L946.191 40.144L946.622 38.191C940.089 36.7486 935.341 35.3324 932.288 33.9663L931.471 35.792ZM946.191 40.144L945.729 42.0899C952.511 43.7007 958.014 45.3001 962.261 46.8821L962.959 45.008L963.657 43.1338C959.2 41.4732 953.524 39.8299 946.653 38.1981L946.191 40.144ZM962.959 45.008L962.261 46.8821C966.302 48.3877 969.738 50.7568 972.592 54.0076L974.095 52.688L975.598 51.3684C972.308 47.6218 968.32 44.8709 963.657 43.1338L962.959 45.008ZM974.095 52.688L972.61 54.0279C975.354 57.0686 976.831 61.2806 976.831 66.896H978.831H980.831C980.831 60.5647 979.15 55.3047 975.58 51.3481L974.095 52.688ZM978.831 66.896H976.831C976.831 71.6116 975.503 75.9136 972.825 79.8514L974.479 80.976L976.133 82.1006C979.258 77.505 980.831 72.4204 980.831 66.896H978.831ZM974.479 80.976L972.82 79.8588C970.263 83.6556 966.334 86.7659 960.885 89.1245L961.679 90.96L962.473 92.7954C968.459 90.2048 973.063 86.659 976.138 82.0932L974.479 80.976ZM961.679 90.96L960.885 89.1245C955.484 91.4623 948.816 92.672 940.815 92.672V94.672V96.672C949.198 96.672 956.44 95.4071 962.473 92.7954L961.679 90.96ZM1062.38 76.496H1064.38V74.496H1062.38V76.496ZM1062.38 93.136V95.136H1064.38V93.136H1062.38ZM993 93.136H991V95.136H993V93.136ZM993 3.53598V1.53598H991V3.53598H993ZM1060.71 3.53598H1062.71V1.53598H1060.71V3.53598ZM1060.71 20.176V22.176H1062.71V20.176H1060.71ZM1013.61 20.176V18.176H1011.61V20.176H1013.61ZM1013.61 39.632H1011.61V41.632H1013.61V39.632ZM1055.21 39.632H1057.21V37.632H1055.21V39.632ZM1055.21 55.76V57.76H1057.21V55.76H1055.21ZM1013.61 55.76V53.76H1011.61V55.76H1013.61ZM1013.61 76.496H1011.61V78.496H1013.61V76.496ZM1062.38 76.496H1060.38V93.136H1062.38H1064.38V76.496H1062.38ZM1062.38 93.136V91.136H993V93.136V95.136H1062.38V93.136ZM993 93.136H995V3.53598H993H991V93.136H993ZM993 3.53598V5.53598H1060.71V3.53598V1.53598H993V3.53598ZM1060.71 3.53598H1058.71V20.176H1060.71H1062.71V3.53598H1060.71ZM1060.71 20.176V18.176H1013.61V20.176V22.176H1060.71V20.176ZM1013.61 20.176H1011.61V39.632H1013.61H1015.61V20.176H1013.61ZM1013.61 39.632V41.632H1055.21V39.632V37.632H1013.61V39.632ZM1055.21 39.632H1053.21V55.76H1055.21H1057.21V39.632H1055.21ZM1055.21 55.76V53.76H1013.61V55.76V57.76H1055.21V55.76ZM1013.61 55.76H1011.61V76.496H1013.61H1015.61V55.76H1013.61ZM1013.61 76.496V78.496H1062.38V76.496V74.496H1013.61V76.496Z" fill="#D58637" fill-opacity="0.21" mask="url(#path-1-outside-1_8_11)"/>
</svg>
