<svg width="432" height="157" viewBox="0 0 432 157" fill="none" xmlns="http://www.w3.org/2000/svg">
<mask id="path-1-outside-1_328_918" maskUnits="userSpaceOnUse" x="-0.208252" y="-0.800049" width="432" height="158" fill="black">
<rect fill="white" x="-0.208252" y="-0.800049" width="432" height="158"/>
<path d="M53.4 36.7999C57.4 38.0666 60.5333 40.1999 62.8 43.1999C65.0666 46.1333 66.2 49.7666 66.2 54.0999C66.2 60.2333 63.8 64.9666 59 68.3C54.2666 71.5666 47.3333 73.2 38.2 73.2H1.99995V3.19995H36.2C44.7333 3.19995 51.2666 4.83328 55.8 8.09995C60.4 11.3666 62.7 15.7999 62.7 21.4C62.7 24.8 61.8666 27.8333 60.2 30.4999C58.6 33.1666 56.3333 35.2666 53.4 36.7999ZM18.1 15.4V31.8999H34.2C38.2 31.8999 41.2333 31.1999 43.3 29.7999C45.3666 28.3999 46.4 26.3333 46.4 23.5999C46.4 20.8666 45.3666 18.8333 43.3 17.4999C41.2333 16.0999 38.2 15.4 34.2 15.4H18.1ZM37 61C41.2666 61 44.4666 60.3 46.6 58.9C48.8 57.5 49.9 55.3333 49.9 52.4C49.9 46.5999 45.6 43.6999 37 43.6999H18.1V61H37ZM124.565 58.2H92.0648L85.8648 73.2H69.2648L100.465 3.19995H116.465L147.765 73.2H130.765L124.565 58.2ZM119.465 45.9L108.365 19.1L97.2648 45.9H119.465ZM199.627 73.2L186.127 53.7H185.327H171.227V73.2H155.027V3.19995H185.327C191.527 3.19995 196.894 4.23328 201.427 6.29995C206.027 8.36662 209.561 11.2999 212.027 15.0999C214.494 18.8999 215.727 23.3999 215.727 28.6C215.727 33.7999 214.461 38.2999 211.927 42.0999C209.461 45.8333 205.927 48.6999 201.327 50.7L217.027 73.2H199.627ZM199.327 28.6C199.327 24.6666 198.061 21.6666 195.527 19.5999C192.994 17.4666 189.294 16.3999 184.427 16.3999H171.227V40.8H184.427C189.294 40.8 192.994 39.7333 195.527 37.6C198.061 35.4666 199.327 32.4666 199.327 28.6ZM292.762 3.19995V73.2H279.462L244.562 30.6999V73.2H228.562V3.19995H241.962L276.762 45.7V3.19995H292.762ZM363.524 60.2V73.2H309.324V3.19995H362.224V16.1999H325.424V31.3999H357.924V43.9999H325.424V60.2H363.524ZM399.414 74.4C393.881 74.4 388.514 73.6666 383.314 72.2C378.181 70.6666 374.047 68.7 370.914 66.3L376.414 54.0999C379.414 56.3 382.981 58.0666 387.114 59.4C391.247 60.7333 395.381 61.4 399.514 61.4C404.114 61.4 407.514 60.7333 409.714 59.4C411.914 58 413.014 56.1666 413.014 53.9C413.014 52.2333 412.347 50.8666 411.014 49.7999C409.747 48.6666 408.081 47.7666 406.014 47.1C404.014 46.4333 401.281 45.6999 397.814 44.8999C392.481 43.6333 388.114 42.3666 384.714 41.1C381.314 39.8333 378.381 37.7999 375.914 34.9999C373.514 32.1999 372.314 28.4666 372.314 23.7999C372.314 19.7333 373.414 16.0666 375.614 12.7999C377.814 9.46661 381.114 6.83328 385.514 4.89995C389.981 2.96662 395.414 1.99995 401.814 1.99995C406.281 1.99995 410.647 2.53328 414.914 3.59995C419.181 4.66662 422.914 6.19995 426.114 8.19995L421.114 20.5C414.647 16.8333 408.181 14.9999 401.714 14.9999C397.181 14.9999 393.814 15.7333 391.614 17.2C389.481 18.6666 388.414 20.5999 388.414 22.9999C388.414 25.3999 389.647 27.1999 392.114 28.3999C394.647 29.5333 398.481 30.6666 403.614 31.7999C408.947 33.0666 413.314 34.3333 416.714 35.5999C420.114 36.8666 423.014 38.8666 425.414 41.5999C427.881 44.3333 429.114 48.0333 429.114 52.6999C429.114 56.7 427.981 60.3666 425.714 63.7C423.514 66.9666 420.181 69.5666 415.714 71.5C411.247 73.4333 405.814 74.4 399.414 74.4ZM97.8894 83.1999V153.2H81.6894V124.5H49.8894V153.2H33.6894V83.1999H49.8894V110.8H81.6894V83.1999H97.8894ZM148.351 154.4C141.084 154.4 134.518 152.833 128.651 149.7C122.851 146.567 118.284 142.267 114.951 136.8C111.684 131.267 110.051 125.067 110.051 118.2C110.051 111.333 111.684 105.167 114.951 99.6999C118.284 94.1666 122.851 89.8333 128.651 86.6999C134.518 83.5666 141.084 81.9999 148.351 81.9999C155.618 81.9999 162.151 83.5666 167.951 86.6999C173.751 89.8333 178.318 94.1666 181.651 99.6999C184.984 105.167 186.651 111.333 186.651 118.2C186.651 125.067 184.984 131.267 181.651 136.8C178.318 142.267 173.751 146.567 167.951 149.7C162.151 152.833 155.618 154.4 148.351 154.4ZM148.351 140.6C152.484 140.6 156.218 139.667 159.551 137.8C162.884 135.867 165.484 133.2 167.351 129.8C169.284 126.4 170.251 122.533 170.251 118.2C170.251 113.867 169.284 110 167.351 106.6C165.484 103.2 162.884 100.567 159.551 98.6999C156.218 96.7666 152.484 95.8 148.351 95.8C144.218 95.8 140.484 96.7666 137.151 98.6999C133.818 100.567 131.184 103.2 129.251 106.6C127.384 110 126.451 113.867 126.451 118.2C126.451 122.533 127.384 126.4 129.251 129.8C131.184 133.2 133.818 135.867 137.151 137.8C140.484 139.667 144.218 140.6 148.351 140.6ZM229.926 154.4C219.926 154.4 212.126 151.633 206.526 146.1C200.993 140.567 198.226 132.667 198.226 122.4V83.1999H214.426V121.8C214.426 134.333 219.626 140.6 230.026 140.6C235.093 140.6 238.959 139.1 241.626 136.1C244.293 133.033 245.626 128.267 245.626 121.8V83.1999H261.626V122.4C261.626 132.667 258.826 140.567 253.226 146.1C247.693 151.633 239.926 154.4 229.926 154.4ZM300.635 154.4C295.101 154.4 289.735 153.667 284.535 152.2C279.401 150.667 275.268 148.7 272.135 146.3L277.635 134.1C280.635 136.3 284.201 138.067 288.335 139.4C292.468 140.733 296.601 141.4 300.735 141.4C305.335 141.4 308.735 140.733 310.935 139.4C313.135 138 314.235 136.167 314.235 133.9C314.235 132.233 313.568 130.867 312.235 129.8C310.968 128.667 309.301 127.767 307.235 127.1C305.235 126.433 302.501 125.7 299.035 124.9C293.701 123.633 289.335 122.367 285.935 121.1C282.535 119.833 279.601 117.8 277.135 115C274.735 112.2 273.535 108.467 273.535 103.8C273.535 99.7333 274.635 96.0666 276.835 92.7999C279.035 89.4666 282.335 86.8333 286.735 84.8999C291.201 82.9666 296.635 81.9999 303.035 81.9999C307.501 81.9999 311.868 82.5333 316.135 83.5999C320.401 84.6666 324.135 86.1999 327.335 88.1999L322.335 100.5C315.868 96.8333 309.401 94.9999 302.935 94.9999C298.401 94.9999 295.035 95.7333 292.835 97.2C290.701 98.6666 289.635 100.6 289.635 103C289.635 105.4 290.868 107.2 293.335 108.4C295.868 109.533 299.701 110.667 304.835 111.8C310.168 113.067 314.535 114.333 317.935 115.6C321.335 116.867 324.235 118.867 326.635 121.6C329.101 124.333 330.335 128.033 330.335 132.7C330.335 136.7 329.201 140.367 326.935 143.7C324.735 146.967 321.401 149.567 316.935 151.5C312.468 153.433 307.035 154.4 300.635 154.4ZM395.604 140.2V153.2H341.404V83.1999H394.304V96.1999H357.504V111.4H390.004V124H357.504V140.2H395.604Z"/>
</mask>
<path d="M53.4 36.7999L52.4734 35.0275L48.2121 37.255L52.7962 38.7066L53.4 36.7999ZM62.8 43.2L61.2042 44.4056L61.2108 44.4143L61.2174 44.4228L62.8 43.2ZM59 68.2999L60.136 69.946L60.1407 69.9427L59 68.2999ZM1.99995 73.2H-4.86374e-05V75.2H1.99995V73.2ZM1.99995 3.19994V1.19994H-4.86374e-05V3.19994H1.99995ZM55.8 8.09995L54.6307 9.7226L54.642 9.7306L55.8 8.09995ZM60.2 30.5L58.504 29.4399L58.4943 29.4554L58.485 29.471L60.2 30.5ZM18.1 15.4V13.4H16.1V15.4H18.1ZM18.1 31.8999H16.1V33.8999H18.1V31.8999ZM43.3 17.4999L42.1783 19.1558L42.1968 19.1684L42.2157 19.1805L43.3 17.4999ZM46.6 58.8999L45.5262 57.2126L45.5144 57.2202L45.5026 57.2279L46.6 58.8999ZM18.1 43.7V41.7H16.1V43.7H18.1ZM18.1 61H16.1V63H18.1V61ZM53.4 36.7999L52.7962 38.7066C56.4487 39.8633 59.2162 41.7744 61.2042 44.4056L62.8 43.2L64.3957 41.9943C61.8504 38.6255 58.3512 36.27 54.0037 34.8933L53.4 36.7999ZM62.8 43.2L61.2174 44.4228C63.1694 46.949 64.2 50.1314 64.2 54.0999H66.2H68.2C68.2 49.4018 66.9638 45.3176 64.3825 41.9771L62.8 43.2ZM66.2 54.0999H64.2C64.2 59.6165 62.0901 63.7191 57.8592 66.6572L59 68.2999L60.1407 69.9427C65.5098 66.2142 68.2 60.8501 68.2 54.0999H66.2ZM59 68.2999L57.864 66.6539C53.6085 69.5907 47.1471 71.2 38.2 71.2V73.2V75.2C47.5195 75.2 54.9247 73.5425 60.136 69.946L59 68.2999ZM38.2 73.2V71.2H1.99995V73.2V75.2H38.2V73.2ZM1.99995 73.2H3.99995V3.19994H1.99995H-4.86374e-05V73.2H1.99995ZM1.99995 3.19994V5.19994H36.2V3.19994V1.19994H1.99995V3.19994ZM36.2 3.19994V5.19994C44.5214 5.19994 50.5747 6.79984 54.6307 9.72256L55.8 8.09995L56.9692 6.47733C51.9586 2.86673 44.9451 1.19994 36.2 1.19994V3.19994ZM55.8 8.09995L54.642 9.7306C58.7185 12.6255 60.7 16.4536 60.7 21.4H62.7H64.7C64.7 15.1463 62.0814 10.1077 56.958 6.46929L55.8 8.09995ZM62.7 21.4H60.7C60.7 24.4568 59.9558 27.117 58.504 29.4399L60.2 30.5L61.896 31.5599C63.7774 28.5496 64.7 25.1431 64.7 21.4H62.7ZM60.2 30.5L58.485 29.471C57.0867 31.8015 55.1024 33.6533 52.4734 35.0275L53.4 36.7999L54.3265 38.5724C57.5642 36.88 60.1132 34.5318 61.9149 31.5289L60.2 30.5ZM18.1 15.4H16.1V31.8999H18.1H20.1V15.4H18.1ZM18.1 31.8999V33.8999H34.2V31.8999V29.8999H18.1V31.8999ZM34.2 31.8999V33.8999C38.3794 33.8999 41.8792 33.1781 44.4216 31.4558L43.3 29.7999L42.1783 28.1441C40.5874 29.2218 38.0205 29.8999 34.2 29.8999V31.8999ZM43.3 29.7999L44.4216 31.4558C47.0963 29.6439 48.4 26.9225 48.4 23.5999H46.4H44.4C44.4 25.744 43.6369 27.156 42.1783 28.1441L43.3 29.7999ZM46.4 23.5999H48.4C48.4 20.2768 47.0931 17.567 44.3842 15.8194L43.3 17.4999L42.2157 19.1805C43.6401 20.0995 44.4 21.4564 44.4 23.5999H46.4ZM43.3 17.4999L44.4216 15.8441C41.8792 14.1218 38.3794 13.4 34.2 13.4V15.4V17.4C38.0205 17.4 40.5874 18.0781 42.1783 19.1558L43.3 17.4999ZM34.2 15.4V13.4H18.1V15.4V17.4H34.2V15.4ZM37 61V63C41.4217 63 45.0854 62.286 47.6973 60.572L46.6 58.8999L45.5026 57.2279C43.8478 58.3139 41.1115 59 37 59V61ZM46.6 58.8999L47.6737 60.5873C50.5309 58.769 51.9 55.9161 51.9 52.3999H49.9H47.9C47.9 54.7505 47.069 56.2309 45.5262 57.2126L46.6 58.8999ZM49.9 52.3999H51.9C51.9 48.9272 50.5667 46.0873 47.7932 44.2168C45.1599 42.4409 41.462 41.7 37 41.7V43.7V45.7C41.1379 45.7 43.89 46.409 45.5567 47.5331C47.0832 48.5626 47.9 50.0727 47.9 52.3999H49.9ZM37 43.7V41.7H18.1V43.7V45.7H37V43.7ZM18.1 43.7H16.1V61H18.1H20.1V43.7H18.1ZM18.1 61V63H37V61V59H18.1V61ZM124.565 58.2L126.413 57.436L125.902 56.2H124.565V58.2ZM92.0648 58.2V56.2H90.7274L90.2165 57.436L92.0648 58.2ZM85.8648 73.2V75.2H87.2022L87.7131 73.9639L85.8648 73.2ZM69.2648 73.2L67.438 72.3857L66.1837 75.2H69.2648V73.2ZM100.465 3.19994V1.19994H99.1666L98.638 2.38573L100.465 3.19994ZM116.465 3.19994L118.291 2.38356L117.761 1.19994H116.465V3.19994ZM147.765 73.2V75.2H150.85L149.591 72.3836L147.765 73.2ZM130.765 73.2L128.916 73.9639L129.427 75.2H130.765V73.2ZM119.465 45.9V47.9H122.458L121.313 45.1346L119.465 45.9ZM108.365 19.0999L110.213 18.3346L108.365 13.8733L106.517 18.3346L108.365 19.0999ZM97.2648 45.9L95.417 45.1346L94.2717 47.9H97.2648V45.9ZM124.565 58.2V56.2H92.0648V58.2V60.2H124.565V58.2ZM92.0648 58.2L90.2165 57.436L84.0165 72.436L85.8648 73.2L87.7131 73.9639L93.9131 58.9639L92.0648 58.2ZM85.8648 73.2V71.2H69.2648V73.2V75.2H85.8648V73.2ZM69.2648 73.2L71.0916 74.0142L102.292 4.01416L100.465 3.19994L98.638 2.38573L67.438 72.3857L69.2648 73.2ZM100.465 3.19994V5.19994H116.465V3.19994V1.19994H100.465V3.19994ZM116.465 3.19994L114.639 4.01633L145.939 74.0163L147.765 73.2L149.591 72.3836L118.291 2.38356L116.465 3.19994ZM147.765 73.2V71.2H130.765V73.2V75.2H147.765V73.2ZM130.765 73.2L132.613 72.436L126.413 57.436L124.565 58.2L122.716 58.9639L128.916 73.9639L130.765 73.2ZM119.465 45.9L121.313 45.1346L110.213 18.3346L108.365 19.0999L106.517 19.8653L117.617 46.6653L119.465 45.9ZM108.365 19.0999L106.517 18.3346L95.417 45.1346L97.2648 45.9L99.1126 46.6653L110.213 19.8653L108.365 19.0999ZM97.2648 45.9V47.9H119.465V45.9V43.9H97.2648V45.9ZM199.627 73.2L197.983 74.3384L198.579 75.2H199.627V73.2ZM186.127 53.7L187.772 52.5615L187.175 51.7H186.127V53.7ZM171.227 53.7V51.7H169.227V53.7H171.227ZM171.227 73.2V75.2H173.227V73.2H171.227ZM155.027 73.2H153.027V75.2H155.027V73.2ZM155.027 3.19994V1.19994H153.027V3.19994H155.027ZM201.427 6.29995L200.598 8.11979L200.608 8.12428L201.427 6.29995ZM211.927 42.0999L210.263 40.9905L210.259 40.9974L211.927 42.0999ZM201.327 50.7L200.53 48.8658L198.289 49.8402L199.687 51.8444L201.327 50.7ZM217.027 73.2V75.2H220.862L218.667 72.0555L217.027 73.2ZM195.527 19.5999L194.239 21.1298L194.251 21.1398L194.263 21.1497L195.527 19.5999ZM171.227 16.3999V14.3999H169.227V16.3999H171.227ZM171.227 40.7999H169.227V42.7999H171.227V40.7999ZM195.527 37.5999L196.816 39.1298V39.1298L195.527 37.5999ZM199.627 73.2L201.272 72.0615L187.772 52.5615L186.127 53.7L184.483 54.8384L197.983 74.3384L199.627 73.2ZM186.127 53.7V51.7H185.327V53.7V55.7H186.127V53.7ZM185.327 53.7V51.7H171.227V53.7V55.7H185.327V53.7ZM171.227 53.7H169.227V73.2H171.227H173.227V53.7H171.227ZM171.227 73.2V71.2H155.027V73.2V75.2H171.227V73.2ZM155.027 73.2H157.027V3.19994H155.027H153.027V73.2H155.027ZM155.027 3.19994V5.19994H185.327V3.19994V1.19994H155.027V3.19994ZM185.327 3.19994V5.19994C191.309 5.19994 196.38 6.19714 200.598 8.11977L201.427 6.29995L202.257 4.48013C197.408 2.26942 191.746 1.19994 185.327 1.19994V3.19994ZM201.427 6.29995L200.608 8.12428C204.898 10.0518 208.116 12.7472 210.35 16.1889L212.027 15.0999L213.705 14.011C211.006 9.85273 207.157 6.68141 202.247 4.47561L201.427 6.29995ZM212.027 15.0999L210.35 16.1889C212.576 19.6188 213.727 23.7279 213.727 28.5999H215.727H217.727C217.727 23.072 216.412 18.1811 213.705 14.011L212.027 15.0999ZM215.727 28.5999H213.727C213.727 33.4615 212.548 37.5631 210.263 40.9905L211.927 42.0999L213.591 43.2094C216.373 39.0368 217.727 34.1384 217.727 28.5999H215.727ZM211.927 42.0999L210.259 40.9974C208.031 44.3695 204.819 47.0009 200.53 48.8658L201.327 50.7L202.125 52.5341C207.035 50.399 210.891 47.297 213.596 43.2025L211.927 42.0999ZM201.327 50.7L199.687 51.8444L215.387 74.3444L217.027 73.2L218.667 72.0555L202.967 49.5555L201.327 50.7ZM217.027 73.2V71.2H199.627V73.2V75.2H217.027V73.2ZM199.327 28.5999H201.327C201.327 24.2008 199.886 20.5745 196.792 18.0502L195.527 19.5999L194.263 21.1497C196.235 22.7587 197.327 25.1325 197.327 28.5999H199.327ZM195.527 19.5999L196.816 18.0701C193.786 15.5186 189.55 14.3999 184.427 14.3999V16.3999V18.3999C189.038 18.3999 192.202 19.4146 194.239 21.1298L195.527 19.5999ZM184.427 16.3999V14.3999H171.227V16.3999V18.3999H184.427V16.3999ZM171.227 16.3999H169.227V40.7999H171.227H173.227V16.3999H171.227ZM171.227 40.7999V42.7999H184.427V40.7999V38.7999H171.227V40.7999ZM184.427 40.7999V42.7999C189.55 42.7999 193.786 41.6813 196.816 39.1298L195.527 37.5999L194.239 36.0701C192.202 37.7853 189.038 38.7999 184.427 38.7999V40.7999ZM195.527 37.5999L196.816 39.1298C199.878 36.551 201.327 32.9468 201.327 28.5999H199.327H197.327C197.327 31.9864 196.243 34.3822 194.239 36.0701L195.527 37.5999ZM292.762 3.19994H294.762V1.19994H292.762V3.19994ZM292.762 73.2V75.2H294.762V73.2H292.762ZM279.462 73.2L277.917 74.4692L278.517 75.2H279.462V73.2ZM244.562 30.7L246.108 29.4307L242.562 25.1129V30.7H244.562ZM244.562 73.2V75.2H246.562V73.2H244.562ZM228.562 73.2H226.562V75.2H228.562V73.2ZM228.562 3.19994V1.19994H226.562V3.19994H228.562ZM241.962 3.19994L243.51 1.93288L242.91 1.19994H241.962V3.19994ZM276.762 45.7L275.215 46.967L278.762 51.2994V45.7H276.762ZM276.762 3.19994V1.19994H274.762V3.19994H276.762ZM292.762 3.19994H290.762V73.2H292.762H294.762V3.19994H292.762ZM292.762 73.2V71.2H279.462V73.2V75.2H292.762V73.2ZM279.462 73.2L281.008 71.9307L246.108 29.4307L244.562 30.7L243.017 31.9692L277.917 74.4692L279.462 73.2ZM244.562 30.7H242.562V73.2H244.562H246.562V30.7H244.562ZM244.562 73.2V71.2H228.562V73.2V75.2H244.562V73.2ZM228.562 73.2H230.562V3.19994H228.562H226.562V73.2H228.562ZM228.562 3.19994V5.19994H241.962V3.19994V1.19994H228.562V3.19994ZM241.962 3.19994L240.415 4.46702L275.215 46.967L276.762 45.7L278.31 44.4329L243.51 1.93288L241.962 3.19994ZM276.762 45.7H278.762V3.19994H276.762H274.762V45.7H276.762ZM276.762 3.19994V5.19994H292.762V3.19994V1.19994H276.762V3.19994ZM363.524 60.2H365.524V58.2H363.524V60.2ZM363.524 73.2V75.2H365.524V73.2H363.524ZM309.324 73.2H307.324V75.2H309.324V73.2ZM309.324 3.19994V1.19994H307.324V3.19994H309.324ZM362.224 3.19994H364.224V1.19994H362.224V3.19994ZM362.224 16.1999V18.1999H364.224V16.1999H362.224ZM325.424 16.1999V14.1999H323.424V16.1999H325.424ZM325.424 31.3999H323.424V33.3999H325.424V31.3999ZM357.924 31.3999H359.924V29.3999H357.924V31.3999ZM357.924 43.9999V45.9999H359.924V43.9999H357.924ZM325.424 43.9999V41.9999H323.424V43.9999H325.424ZM325.424 60.2H323.424V62.2H325.424V60.2ZM363.524 60.2H361.524V73.2H363.524H365.524V60.2H363.524ZM363.524 73.2V71.2H309.324V73.2V75.2H363.524V73.2ZM309.324 73.2H311.324V3.19994H309.324H307.324V73.2H309.324ZM309.324 3.19994V5.19994H362.224V3.19994V1.19994H309.324V3.19994ZM362.224 3.19994H360.224V16.1999H362.224H364.224V3.19994H362.224ZM362.224 16.1999V14.1999H325.424V16.1999V18.1999H362.224V16.1999ZM325.424 16.1999H323.424V31.3999H325.424H327.424V16.1999H325.424ZM325.424 31.3999V33.3999H357.924V31.3999V29.3999H325.424V31.3999ZM357.924 31.3999H355.924V43.9999H357.924H359.924V31.3999H357.924ZM357.924 43.9999V41.9999H325.424V43.9999V45.9999H357.924V43.9999ZM325.424 43.9999H323.424V60.2H325.424H327.424V43.9999H325.424ZM325.424 60.2V62.2H363.524V60.2V58.2H325.424V60.2ZM383.314 72.2L382.742 74.1163L382.756 74.1207L382.771 74.1248L383.314 72.2ZM370.914 66.2999L369.091 65.478L368.439 66.9235L369.698 67.8877L370.914 66.2999ZM376.414 54.0999L377.597 52.4871L375.606 51.0269L374.591 53.278L376.414 54.0999ZM387.114 59.3999L387.728 57.4965V57.4965L387.114 59.3999ZM409.714 59.3999L410.751 61.1103L410.769 61.099L410.788 61.0873L409.714 59.3999ZM411.014 49.7999L409.68 51.2904L409.722 51.3272L409.765 51.3617L411.014 49.7999ZM406.014 47.1L405.382 48.9973L405.391 49.0004L405.4 49.0034L406.014 47.1ZM397.814 44.8999L397.352 46.8459L397.364 46.8487L397.814 44.8999ZM384.714 41.0999L385.412 39.2258V39.2258L384.714 41.0999ZM375.914 34.9999L374.396 36.3015L374.404 36.3118L374.413 36.322L375.914 34.9999ZM375.614 12.7999L377.273 13.9171L377.278 13.9094L377.283 13.9016L375.614 12.7999ZM385.514 4.89995L384.72 3.06448L384.709 3.06891L385.514 4.89995ZM414.914 3.59995L415.399 1.65966V1.65966L414.914 3.59995ZM426.114 8.19995L427.967 8.9531L428.6 7.39523L427.174 6.50395L426.114 8.19995ZM421.114 20.5L420.128 22.2397L422.109 23.3633L422.967 21.2531L421.114 20.5ZM391.614 17.2L390.505 15.5359L390.493 15.5438L390.481 15.5519L391.614 17.2ZM392.114 28.3999L391.239 30.1984L391.268 30.2125L391.297 30.2256L392.114 28.3999ZM403.614 31.7999L404.076 29.8541L404.061 29.8504L404.045 29.847L403.614 31.7999ZM416.714 35.5999L417.412 33.7258V33.7258L416.714 35.5999ZM425.414 41.5999L423.911 42.9196L423.92 42.9298L423.929 42.9399L425.414 41.5999ZM425.714 63.7L424.06 62.5753L424.055 62.5827L425.714 63.7ZM415.714 71.5L414.92 69.6645V69.6645L415.714 71.5ZM399.414 74.3999V72.3999C394.06 72.3999 388.876 71.6907 383.857 70.2751L383.314 72.2L382.771 74.1248C388.152 75.6425 393.702 76.3999 399.414 76.3999V74.3999ZM383.314 72.2L383.886 70.2836C378.908 68.7966 375.015 66.9221 372.13 64.7122L370.914 66.2999L369.698 67.8877C373.079 70.4778 377.453 72.5367 382.742 74.1163L383.314 72.2ZM370.914 66.2999L372.737 67.1219L378.237 54.9219L376.414 54.0999L374.591 53.278L369.091 65.478L370.914 66.2999ZM376.414 54.0999L375.231 55.7128C378.43 58.0587 382.196 59.915 386.5 61.3034L387.114 59.3999L387.728 57.4965C383.765 56.2182 380.398 54.5412 377.597 52.4871L376.414 54.0999ZM387.114 59.3999L386.5 61.3034C390.822 62.6974 395.162 63.3999 399.514 63.3999V61.3999V59.3999C395.6 59.3999 391.673 58.7691 387.728 57.4965L387.114 59.3999ZM399.514 61.3999V63.3999C404.231 63.3999 408.078 62.7302 410.751 61.1103L409.714 59.3999L408.677 57.6896C406.95 58.7364 403.997 59.3999 399.514 59.3999V61.3999ZM409.714 59.3999L410.788 61.0873C413.463 59.385 415.014 56.9631 415.014 53.8999H413.014H411.014C411.014 55.3702 410.365 56.6149 408.64 57.7126L409.714 59.3999ZM413.014 53.8999H415.014C415.014 51.6086 414.058 49.6736 412.263 48.2382L411.014 49.7999L409.765 51.3617C410.637 52.0596 411.014 52.858 411.014 53.8999H413.014ZM411.014 49.7999L412.348 48.3095C410.823 46.9456 408.89 45.9261 406.628 45.1965L406.014 47.1L405.4 49.0034C407.272 49.6071 408.671 50.3876 409.68 51.2904L411.014 49.7999ZM406.014 47.1L406.646 45.2026C404.56 44.5069 401.756 43.7572 398.264 42.9512L397.814 44.8999L397.364 46.8487C400.805 47.6427 403.468 48.3596 405.382 48.9973L406.014 47.1ZM397.814 44.8999L398.276 42.9541C392.987 41.6979 388.707 40.4532 385.412 39.2258L384.714 41.0999L384.016 42.9741C387.521 44.2801 391.974 45.5687 397.352 46.8458L397.814 44.8999ZM384.714 41.0999L385.412 39.2258C382.33 38.0776 379.67 36.2379 377.415 33.6779L375.914 34.9999L374.413 36.322C377.091 39.362 380.298 41.589 384.016 42.9741L384.714 41.0999ZM375.914 34.9999L377.433 33.6984C375.419 31.3489 374.314 28.1195 374.314 23.7999H372.314H370.314C370.314 28.8137 371.609 33.051 374.396 36.3015L375.914 34.9999ZM372.314 23.7999H374.314C374.314 20.1176 375.303 16.8424 377.273 13.9171L375.614 12.7999L373.955 11.6827C371.525 15.2908 370.314 19.349 370.314 23.7999H372.314ZM375.614 12.7999L377.283 13.9016C379.231 10.9498 382.199 8.5413 386.319 6.73099L385.514 4.89995L384.709 3.06891C380.029 5.12526 376.397 7.98347 373.945 11.6983L375.614 12.7999ZM385.514 4.89995L386.308 6.73539C390.459 4.93901 395.605 3.99995 401.814 3.99995V1.99995V-5.34058e-05C395.223 -5.34058e-05 389.503 0.994225 384.72 3.06451L385.514 4.89995ZM401.814 1.99995V3.99995C406.12 3.99995 410.323 4.51385 414.429 5.54023L414.914 3.59995L415.399 1.65966C410.971 0.552719 406.442 -5.34058e-05 401.814 -5.34058e-05V1.99995ZM414.914 3.59995L414.429 5.54023C418.525 6.5643 422.058 8.02361 425.054 9.89595L426.114 8.19995L427.174 6.50395C423.77 4.37629 419.836 2.76894 415.399 1.65966L414.914 3.59995ZM426.114 8.19995L424.261 7.44679L419.261 19.7468L421.114 20.5L422.967 21.2531L427.967 8.9531L426.114 8.19995ZM421.114 20.5L422.1 18.7602C415.379 14.9488 408.575 13 401.714 13V15V17C407.786 17 413.916 18.7178 420.128 22.2397L421.114 20.5ZM401.714 15V13C397.036 13 393.193 13.7435 390.505 15.5359L391.614 17.2L392.723 18.8641C394.435 17.7231 397.325 17 401.714 17V15ZM391.614 17.2L390.481 15.5519C387.855 17.357 386.414 19.8825 386.414 22.9999H388.414H390.414C390.414 21.3174 391.106 19.9762 392.747 18.848L391.614 17.2ZM388.414 22.9999H386.414C386.414 24.5613 386.822 26.0144 387.689 27.2804C388.546 28.5312 389.773 29.4851 391.239 30.1984L392.114 28.3999L392.989 26.6015C391.988 26.1148 391.365 25.5687 390.989 25.0195C390.623 24.4855 390.414 23.8385 390.414 22.9999H388.414ZM392.114 28.3999L391.297 30.2256C394.02 31.4435 398.012 32.6114 403.183 33.7529L403.614 31.7999L404.045 29.847C398.949 28.7219 395.275 27.6231 392.931 26.5743L392.114 28.3999ZM403.614 31.7999L403.152 33.7458C408.441 35.002 412.721 36.2467 416.016 37.4741L416.714 35.5999L417.412 33.7258C413.907 32.4198 409.454 31.1312 404.076 29.8541L403.614 31.7999ZM416.714 35.5999L416.016 37.4741C419.105 38.625 421.729 40.4341 423.911 42.9196L425.414 41.5999L426.917 40.2803C424.299 37.2991 421.123 35.1082 417.412 33.7258L416.714 35.5999ZM425.414 41.5999L423.929 42.9399C425.983 45.2153 427.114 48.3912 427.114 52.7H429.114H431.114C431.114 47.6754 429.779 43.4513 426.899 40.26L425.414 41.5999ZM429.114 52.7H427.114C427.114 56.2955 426.103 59.5709 424.06 62.5753L425.714 63.7L427.368 64.8246C429.858 61.1623 431.114 57.1044 431.114 52.7H429.114ZM425.714 63.7L424.055 62.5827C422.114 65.4649 419.118 67.8472 414.92 69.6645L415.714 71.5L416.508 73.3354C421.243 71.286 424.914 68.4683 427.373 64.8172L425.714 63.7ZM415.714 71.5L414.92 69.6645C410.769 71.4609 405.623 72.3999 399.414 72.3999V74.3999V76.3999C406.005 76.3999 411.725 75.4057 416.508 73.3354L415.714 71.5ZM97.8894 83.1999H99.8894V81.1999H97.8894V83.1999ZM97.8894 153.2V155.2H99.8894V153.2H97.8894ZM81.6894 153.2H79.6894V155.2H81.6894V153.2ZM81.6894 124.5H83.6894V122.5H81.6894V124.5ZM49.8894 124.5V122.5H47.8894V124.5H49.8894ZM49.8894 153.2V155.2H51.8894V153.2H49.8894ZM33.6894 153.2H31.6894V155.2H33.6894V153.2ZM33.6894 83.1999V81.1999H31.6894V83.1999H33.6894ZM49.8894 83.1999H51.8894V81.1999H49.8894V83.1999ZM49.8894 110.8H47.8894V112.8H49.8894V110.8ZM81.6894 110.8V112.8H83.6894V110.8H81.6894ZM81.6894 83.1999V81.1999H79.6894V83.1999H81.6894ZM97.8894 83.1999H95.8894V153.2H97.8894H99.8894V83.1999H97.8894ZM97.8894 153.2V151.2H81.6894V153.2V155.2H97.8894V153.2ZM81.6894 153.2H83.6894V124.5H81.6894H79.6894V153.2H81.6894ZM81.6894 124.5V122.5H49.8894V124.5V126.5H81.6894V124.5ZM49.8894 124.5H47.8894V153.2H49.8894H51.8894V124.5H49.8894ZM49.8894 153.2V151.2H33.6894V153.2V155.2H49.8894V153.2ZM33.6894 153.2H35.6894V83.1999H33.6894H31.6894V153.2H33.6894ZM33.6894 83.1999V85.1999H49.8894V83.1999V81.1999H33.6894V83.1999ZM49.8894 83.1999H47.8894V110.8H49.8894H51.8894V83.1999H49.8894ZM49.8894 110.8V112.8H81.6894V110.8V108.8H49.8894V110.8ZM81.6894 110.8H83.6894V83.1999H81.6894H79.6894V110.8H81.6894ZM81.6894 83.1999V85.1999H97.8894V83.1999V81.1999H81.6894V83.1999ZM128.651 149.7L127.701 151.46L127.709 151.464L128.651 149.7ZM114.951 136.8L113.229 137.817L113.236 137.829L113.244 137.841L114.951 136.8ZM114.951 99.7L113.238 98.6679L113.234 98.674L114.951 99.7ZM128.651 86.7L127.709 84.9358L127.701 84.9403L128.651 86.7ZM181.651 99.7L179.938 100.732L179.944 100.741L181.651 99.7ZM181.651 136.8L183.359 137.841L183.364 137.832L181.651 136.8ZM167.951 149.7L168.902 151.46L167.951 149.7ZM159.551 137.8L160.528 139.545L160.542 139.538L160.555 139.53L159.551 137.8ZM167.351 129.8L165.613 128.811L165.605 128.824L165.598 128.837L167.351 129.8ZM167.351 106.6L165.598 107.562L165.605 107.576L165.613 107.589L167.351 106.6ZM159.551 98.7L158.548 100.43L158.561 100.438L158.574 100.445L159.551 98.7ZM137.151 98.7L138.128 100.445L138.141 100.438L138.155 100.43L137.151 98.7ZM129.251 106.6L127.513 105.611L127.505 105.624L127.498 105.637L129.251 106.6ZM129.251 129.8L127.498 130.762L127.505 130.776L127.513 130.789L129.251 129.8ZM137.151 137.8L136.148 139.53L136.161 139.538L136.174 139.545L137.151 137.8ZM148.351 154.4V152.4C141.382 152.4 135.144 150.9 129.593 147.936L128.651 149.7L127.709 151.464C133.892 154.766 140.787 156.4 148.351 156.4V154.4ZM128.651 149.7L129.602 147.94C124.104 144.97 119.802 140.914 116.659 135.759L114.951 136.8L113.244 137.841C116.767 143.619 121.599 148.163 127.701 151.46L128.651 149.7ZM114.951 136.8L116.673 135.783C113.601 130.579 112.051 124.734 112.051 118.2H110.051H108.051C108.051 125.399 109.768 131.954 113.229 137.817L114.951 136.8ZM110.051 118.2H112.051C112.051 111.665 113.601 105.858 116.668 100.726L114.951 99.7L113.234 98.674C109.768 104.475 108.051 111.001 108.051 118.2H110.051ZM114.951 99.7L116.664 100.732C119.809 95.5115 124.11 91.4266 129.602 88.4596L128.651 86.7L127.701 84.9403C121.593 88.24 116.76 92.8217 113.238 98.6679L114.951 99.7ZM128.651 86.7L129.593 88.4641C135.144 85.4996 141.382 83.9999 148.351 83.9999V81.9999V79.9999C140.787 79.9999 133.892 81.6336 127.709 84.9358L128.651 86.7ZM148.351 81.9999V83.9999C155.321 83.9999 161.522 85.4997 167.001 88.4596L167.951 86.7L168.902 84.9403C162.781 81.6335 155.915 79.9999 148.351 79.9999V81.9999ZM167.951 86.7L167.001 88.4596C172.493 91.4266 176.793 95.5115 179.938 100.732L181.651 99.7L183.364 98.6679C179.842 92.8217 175.01 88.24 168.902 84.9403L167.951 86.7ZM181.651 99.7L179.944 100.741C183.072 105.871 184.651 111.673 184.651 118.2H186.651H188.651C188.651 110.994 186.897 104.462 183.359 98.6587L181.651 99.7ZM186.651 118.2H184.651C184.651 124.727 183.072 130.566 179.938 135.768L181.651 136.8L183.364 137.832C186.897 131.967 188.651 125.406 188.651 118.2H186.651ZM181.651 136.8L179.944 135.759C176.8 140.914 172.499 144.97 167.001 147.94L167.951 149.7L168.902 151.46C175.004 148.163 179.835 143.619 183.359 137.841L181.651 136.8ZM167.951 149.7L167.001 147.94C161.522 150.9 155.321 152.4 148.351 152.4V154.4V156.4C155.915 156.4 162.781 154.766 168.902 151.46L167.951 149.7ZM148.351 140.6V142.6C152.798 142.6 156.872 141.592 160.528 139.545L159.551 137.8L158.574 136.055C155.563 137.741 152.171 138.6 148.351 138.6V140.6ZM159.551 137.8L160.555 139.53C164.205 137.413 167.064 134.48 169.104 130.762L167.351 129.8L165.598 128.837C163.905 131.92 161.564 134.321 158.548 136.07L159.551 137.8ZM167.351 129.8L169.09 130.789C171.212 127.056 172.251 122.842 172.251 118.2H170.251H168.251C168.251 122.225 167.357 125.744 165.613 128.811L167.351 129.8ZM170.251 118.2H172.251C172.251 113.558 171.212 109.344 169.09 105.611L167.351 106.6L165.613 107.589C167.357 110.656 168.251 114.175 168.251 118.2H170.251ZM167.351 106.6L169.104 105.637C167.06 101.914 164.194 99.0076 160.528 96.9549L159.551 98.7L158.574 100.445C161.575 102.126 163.909 104.486 165.598 107.562L167.351 106.6ZM159.551 98.7L160.555 96.9699C156.894 94.8469 152.81 93.7999 148.351 93.7999V95.7999V97.7999C152.159 97.7999 155.541 98.6863 158.548 100.43L159.551 98.7ZM148.351 95.7999V93.7999C143.892 93.7999 139.808 94.8469 136.148 96.9699L137.151 98.7L138.155 100.43C141.161 98.6863 144.544 97.7999 148.351 97.7999V95.7999ZM137.151 98.7L136.174 96.9549C132.515 99.0041 129.622 101.902 127.513 105.611L129.251 106.6L130.99 107.589C132.747 104.497 135.121 102.129 138.128 100.445L137.151 98.7ZM129.251 106.6L127.498 105.637C125.451 109.366 124.451 113.57 124.451 118.2H126.451H128.451C128.451 114.163 129.318 110.634 131.004 107.562L129.251 106.6ZM126.451 118.2H124.451C124.451 122.83 125.451 127.034 127.498 130.762L129.251 129.8L131.004 128.837C129.318 125.766 128.451 122.237 128.451 118.2H126.451ZM129.251 129.8L127.513 130.789C129.618 134.492 132.503 137.416 136.148 139.53L137.151 137.8L138.155 136.07C135.132 134.317 132.751 131.908 130.99 128.811L129.251 129.8ZM137.151 137.8L136.174 139.545C139.83 141.592 143.904 142.6 148.351 142.6V140.6V138.6C144.531 138.6 141.139 137.741 138.128 136.055L137.151 137.8ZM206.526 146.1L205.112 147.514L205.12 147.523L206.526 146.1ZM198.226 83.1999V81.1999H196.226V83.1999H198.226ZM214.426 83.1999H216.426V81.1999H214.426V83.1999ZM241.626 136.1L243.121 137.429L243.128 137.421L243.135 137.412L241.626 136.1ZM245.626 83.1999V81.1999H243.626V83.1999H245.626ZM261.626 83.1999H263.626V81.1999H261.626V83.1999ZM253.226 146.1L251.82 144.677L251.812 144.686L253.226 146.1ZM229.926 154.4V152.4C220.303 152.4 213.063 149.748 207.932 144.677L206.526 146.1L205.12 147.523C211.189 153.519 219.549 156.4 229.926 156.4V154.4ZM206.526 146.1L207.94 144.686C202.888 139.634 200.226 132.308 200.226 122.4H198.226H196.226C196.226 133.025 199.097 141.5 205.112 147.514L206.526 146.1ZM198.226 122.4H200.226V83.1999H198.226H196.226V122.4H198.226ZM198.226 83.1999V85.1999H214.426V83.1999V81.1999H198.226V83.1999ZM214.426 83.1999H212.426V121.8H214.426H216.426V83.1999H214.426ZM214.426 121.8H212.426C212.426 128.294 213.766 133.536 216.787 137.177C219.868 140.89 224.409 142.6 230.026 142.6V140.6V138.6C225.243 138.6 221.984 137.177 219.865 134.623C217.687 131.997 216.426 127.84 216.426 121.8H214.426ZM230.026 140.6V142.6C235.503 142.6 239.98 140.963 243.121 137.429L241.626 136.1L240.131 134.771C237.939 137.237 234.682 138.6 230.026 138.6V140.6ZM241.626 136.1L243.135 137.412C246.259 133.82 247.626 128.479 247.626 121.8H245.626H243.626C243.626 128.054 242.326 132.247 240.117 134.788L241.626 136.1ZM245.626 121.8H247.626V83.1999H245.626H243.626V121.8H245.626ZM245.626 83.1999V85.1999H261.626V83.1999V81.1999H245.626V83.1999ZM261.626 83.1999H259.626V122.4H261.626H263.626V83.1999H261.626ZM261.626 122.4H259.626C259.626 132.302 256.934 139.624 251.82 144.677L253.226 146.1L254.632 147.523C260.718 141.509 263.626 133.032 263.626 122.4H261.626ZM253.226 146.1L251.812 144.686C246.75 149.747 239.55 152.4 229.926 152.4V154.4V156.4C240.302 156.4 248.635 153.519 254.64 147.514L253.226 146.1ZM284.535 152.2L283.962 154.116L283.977 154.121L283.992 154.125L284.535 152.2ZM272.135 146.3L270.311 145.478L269.66 146.924L270.919 147.888L272.135 146.3ZM277.635 134.1L278.817 132.487L276.826 131.027L275.811 133.278L277.635 134.1ZM288.335 139.4L288.949 137.497V137.497L288.335 139.4ZM310.935 139.4L311.971 141.11L311.99 141.099L312.008 141.087L310.935 139.4ZM312.235 129.8L310.901 131.29L310.942 131.327L310.985 131.362L312.235 129.8ZM307.235 127.1L306.602 128.997L306.611 129L306.621 129.003L307.235 127.1ZM299.035 124.9L298.573 126.846L298.585 126.849L299.035 124.9ZM285.935 121.1L286.633 119.226V119.226L285.935 121.1ZM277.135 115L275.616 116.302L275.625 116.312L275.634 116.322L277.135 115ZM276.835 92.7999L278.494 93.9171L278.499 93.9094L278.504 93.9016L276.835 92.7999ZM286.735 84.8999L285.94 83.0645L285.93 83.0689L286.735 84.8999ZM316.135 83.5999L316.62 81.6597V81.6597L316.135 83.5999ZM327.335 88.2L329.188 88.9531L329.821 87.3952L328.395 86.504L327.335 88.2ZM322.335 100.5L321.348 102.24L323.33 103.363L324.188 101.253L322.335 100.5ZM292.835 97.2L291.725 95.5359L291.713 95.5438L291.702 95.5519L292.835 97.2ZM293.335 108.4L292.46 110.198L292.489 110.212L292.518 110.226L293.335 108.4ZM304.835 111.8L305.297 109.854L305.281 109.85L305.266 109.847L304.835 111.8ZM317.935 115.6L318.633 113.726V113.726L317.935 115.6ZM326.635 121.6L325.132 122.92L325.141 122.93L325.15 122.94L326.635 121.6ZM326.935 143.7L325.281 142.575L325.276 142.583L326.935 143.7ZM316.935 151.5L316.14 149.665V149.665L316.935 151.5ZM300.635 154.4V152.4C295.28 152.4 290.097 151.691 285.078 150.275L284.535 152.2L283.992 154.125C289.373 155.643 294.922 156.4 300.635 156.4V154.4ZM284.535 152.2L285.107 150.284C280.129 148.797 276.236 146.922 273.351 144.712L272.135 146.3L270.919 147.888C274.3 150.478 278.674 152.537 283.962 154.116L284.535 152.2ZM272.135 146.3L273.958 147.122L279.458 134.922L277.635 134.1L275.811 133.278L270.311 145.478L272.135 146.3ZM277.635 134.1L276.452 135.713C279.651 138.059 283.417 139.915 287.721 141.303L288.335 139.4L288.949 137.497C284.986 136.218 281.618 134.541 278.817 132.487L277.635 134.1ZM288.335 139.4L287.721 141.303C292.042 142.697 296.383 143.4 300.735 143.4V141.4V139.4C296.82 139.4 292.894 138.769 288.949 137.497L288.335 139.4ZM300.735 141.4V143.4C305.451 143.4 309.299 142.73 311.971 141.11L310.935 139.4L309.898 137.69C308.171 138.736 305.218 139.4 300.735 139.4V141.4ZM310.935 139.4L312.008 141.087C314.683 139.385 316.235 136.963 316.235 133.9H314.235H312.235C312.235 135.37 311.586 136.615 309.861 137.713L310.935 139.4ZM314.235 133.9H316.235C316.235 131.609 315.278 129.674 313.484 128.238L312.235 129.8L310.985 131.362C311.858 132.06 312.235 132.858 312.235 133.9H314.235ZM312.235 129.8L313.568 128.309C312.044 126.946 310.11 125.926 307.849 125.197L307.235 127.1L306.621 129.003C308.492 129.607 309.892 130.388 310.901 131.29L312.235 129.8ZM307.235 127.1L307.867 125.203C305.78 124.507 302.977 123.757 299.484 122.951L299.035 124.9L298.585 126.849C302.026 127.643 304.689 128.36 306.602 128.997L307.235 127.1ZM299.035 124.9L299.497 122.954C294.208 121.698 289.928 120.453 286.633 119.226L285.935 121.1L285.237 122.974C288.742 124.28 293.195 125.569 298.573 126.846L299.035 124.9ZM285.935 121.1L286.633 119.226C283.551 118.078 280.891 116.238 278.635 113.678L277.135 115L275.634 116.322C278.312 119.362 281.519 121.589 285.237 122.974L285.935 121.1ZM277.135 115L278.653 113.698C276.639 111.349 275.535 108.12 275.535 103.8H273.535H271.535C271.535 108.814 272.83 113.051 275.616 116.302L277.135 115ZM273.535 103.8H275.535C275.535 100.118 276.523 96.8424 278.494 93.9171L276.835 92.7999L275.176 91.6827C272.746 95.2908 271.535 99.349 271.535 103.8H273.535ZM276.835 92.7999L278.504 93.9016C280.452 90.9498 283.419 88.5413 287.539 86.731L286.735 84.8999L285.93 83.0689C281.25 85.1253 277.617 87.9835 275.165 91.6983L276.835 92.7999ZM286.735 84.8999L287.529 86.7354C291.679 84.939 296.826 83.9999 303.035 83.9999V81.9999V79.9999C296.443 79.9999 290.723 80.9942 285.94 83.0645L286.735 84.8999ZM303.035 81.9999V83.9999C307.34 83.9999 311.544 84.5138 315.65 85.5402L316.135 83.5999L316.62 81.6597C312.192 80.5527 307.662 79.9999 303.035 79.9999V81.9999ZM316.135 83.5999L315.65 85.5402C319.746 86.5643 323.279 88.0236 326.275 89.896L327.335 88.2L328.395 86.504C324.99 84.3763 321.057 82.7689 316.62 81.6597L316.135 83.5999ZM327.335 88.2L325.482 87.4468L320.482 99.7468L322.335 100.5L324.188 101.253L329.188 88.9531L327.335 88.2ZM322.335 100.5L323.321 98.7602C316.599 94.9488 309.796 93 302.935 93V95V97C309.007 97 315.137 98.7178 321.348 102.24L322.335 100.5ZM302.935 95V93C298.257 93 294.414 93.7435 291.725 95.5359L292.835 97.2L293.944 98.8641C295.656 97.7231 298.546 97 302.935 97V95ZM292.835 97.2L291.702 95.5519C289.076 97.357 287.635 99.8825 287.635 103H289.635H291.635C291.635 101.317 292.327 99.9762 293.968 98.848L292.835 97.2ZM289.635 103H287.635C287.635 104.561 288.042 106.014 288.91 107.28C289.767 108.531 290.994 109.485 292.46 110.198L293.335 108.4L294.21 106.601C293.209 106.115 292.586 105.569 292.21 105.019C291.844 104.485 291.635 103.839 291.635 103H289.635ZM293.335 108.4L292.518 110.226C295.24 111.443 299.233 112.611 304.404 113.753L304.835 111.8L305.266 109.847C300.17 108.722 296.496 107.623 294.151 106.574L293.335 108.4ZM304.835 111.8L304.373 113.746C309.662 115.002 313.942 116.247 317.237 117.474L317.935 115.6L318.633 113.726C315.128 112.42 310.674 111.131 305.297 109.854L304.835 111.8ZM317.935 115.6L317.237 117.474C320.326 118.625 322.949 120.434 325.132 122.92L326.635 121.6L328.138 120.28C325.52 117.299 322.344 115.108 318.633 113.726L317.935 115.6ZM326.635 121.6L325.15 122.94C327.203 125.215 328.335 128.391 328.335 132.7H330.335H332.335C332.335 127.675 330.999 123.451 328.12 120.26L326.635 121.6ZM330.335 132.7H328.335C328.335 136.296 327.324 139.571 325.281 142.575L326.935 143.7L328.589 144.825C331.079 141.162 332.335 137.104 332.335 132.7H330.335ZM326.935 143.7L325.276 142.583C323.335 145.465 320.339 147.847 316.14 149.665L316.935 151.5L317.729 153.335C322.464 151.286 326.135 148.468 328.594 144.817L326.935 143.7ZM316.935 151.5L316.14 149.665C311.99 151.461 306.843 152.4 300.635 152.4V154.4V156.4C307.226 156.4 312.946 155.406 317.729 153.335L316.935 151.5ZM395.604 140.2H397.604V138.2H395.604V140.2ZM395.604 153.2V155.2H397.604V153.2H395.604ZM341.404 153.2H339.404V155.2H341.404V153.2ZM341.404 83.1999V81.1999H339.404V83.1999H341.404ZM394.304 83.1999H396.304V81.1999H394.304V83.1999ZM394.304 96.2V98.2H396.304V96.2H394.304ZM357.504 96.2V94.2H355.504V96.2H357.504ZM357.504 111.4H355.504V113.4H357.504V111.4ZM390.004 111.4H392.004V109.4H390.004V111.4ZM390.004 124V126H392.004V124H390.004ZM357.504 124V122H355.504V124H357.504ZM357.504 140.2H355.504V142.2H357.504V140.2ZM395.604 140.2H393.604V153.2H395.604H397.604V140.2H395.604ZM395.604 153.2V151.2H341.404V153.2V155.2H395.604V153.2ZM341.404 153.2H343.404V83.1999H341.404H339.404V153.2H341.404ZM341.404 83.1999V85.1999H394.304V83.1999V81.1999H341.404V83.1999ZM394.304 83.1999H392.304V96.2H394.304H396.304V83.1999H394.304ZM394.304 96.2V94.2H357.504V96.2V98.2H394.304V96.2ZM357.504 96.2H355.504V111.4H357.504H359.504V96.2H357.504ZM357.504 111.4V113.4H390.004V111.4V109.4H357.504V111.4ZM390.004 111.4H388.004V124H390.004H392.004V111.4H390.004ZM390.004 124V122H357.504V124V126H390.004V124ZM357.504 124H355.504V140.2H357.504H359.504V124H357.504ZM357.504 140.2V142.2H395.604V140.2V138.2H357.504V140.2Z" fill="#D58637" fill-opacity="0.18" mask="url(#path-1-outside-1_328_918)"/>
</svg>
