<svg width="334" height="2414" viewBox="0 0 334 2414" fill="none" xmlns="http://www.w3.org/2000/svg">
<path d="M30.1114 2328.79L34.7404 2336.5L30.0505 2344.21L38.8212 2342.19L44.6683 2348.99L45.4601 2340.05L53.7436 2336.5L45.521 2332.95L44.7292 2324.02L38.8212 2330.81L30.1114 2328.79ZM25 2325.06L37.9441 2328.09L46.6466 2318L47.7917 2331.29L60 2336.5L47.7941 2341.71L46.649 2355L37.9465 2344.91L25.0024 2347.95L31.8728 2336.5L25 2325.06Z" fill="white" fill-opacity="0.34"/>
<path d="M253.111 2365.79L257.74 2373.5L253.05 2381.21L261.821 2379.19L267.668 2385.99L268.46 2377.05L276.744 2373.5L268.521 2369.95L267.729 2361.02L261.821 2367.81L253.111 2365.79ZM248 2362.06L260.944 2365.09L269.647 2355L270.792 2368.29L283 2373.5L270.794 2378.71L269.649 2392L260.947 2381.91L248.002 2384.95L254.873 2373.5L248 2362.06Z" fill="white" fill-opacity="0.34"/>
<path d="M155.111 2356.79L159.74 2364.5L155.05 2372.21L163.821 2370.19L169.668 2376.99L170.46 2368.05L178.744 2364.5L170.521 2360.95L169.729 2352.02L163.821 2358.81L155.111 2356.79ZM150 2353.06L162.944 2356.09L171.647 2346L172.792 2359.29L185 2364.5L172.794 2369.71L171.649 2383L162.947 2372.91L150.002 2375.95L156.873 2364.5L150 2353.06Z" fill="white" fill-opacity="0.34"/>
<path d="M113.718 2379.29L119.802 2389.5L113.638 2399.71L125.165 2397.04L132.85 2406.03L133.89 2394.2L144.777 2389.5L133.97 2384.8L132.93 2372.97L125.165 2381.96L113.718 2379.29ZM107 2374.35L124.012 2378.37L135.45 2365L136.955 2382.61L153 2389.5L136.958 2396.4L135.453 2414L124.015 2400.63L107.003 2404.66L116.033 2389.5L107 2374.35Z" fill="white" fill-opacity="0.34"/>
<path d="M245.594 1675.33L252.471 1687L245.504 1698.67L258.534 1695.62L267.221 1705.9L268.398 1692.37L280.705 1687L268.488 1681.63L267.312 1668.11L258.534 1678.39L245.594 1675.33ZM238 1669.68L257.231 1674.28L270.161 1659L271.862 1679.12L290 1687L271.866 1694.88L270.164 1715L257.235 1699.72L238.004 1704.32L248.211 1687L238 1669.68Z" fill="white" fill-opacity="0.34"/>
<path d="M62.594 2164.33L69.4714 2176L62.5035 2187.67L75.5343 2184.62L84.2215 2194.9L85.3979 2181.37L97.7047 2176L85.4884 2170.63L84.312 2157.11L75.5343 2167.39L62.594 2164.33ZM55 2158.68L74.2312 2163.28L87.1607 2148L88.8619 2168.12L107 2176L88.8655 2183.88L87.1643 2204L74.2349 2188.72L55.0036 2193.32L65.2111 2176L55 2158.68Z" fill="white" fill-opacity="0.34"/>
<path d="M273.594 2265.33L280.471 2277L273.504 2288.67L286.534 2285.62L295.221 2295.9L296.398 2282.37L308.705 2277L296.488 2271.63L295.312 2258.11L286.534 2268.39L273.594 2265.33ZM266 2259.68L285.231 2264.28L298.161 2249L299.862 2269.12L318 2277L299.866 2284.88L298.164 2305L285.235 2289.72L266.004 2294.32L276.211 2277L266 2259.68Z" fill="white" fill-opacity="0.34"/>
<path d="M104.527 2141.62L108.627 2148.5L104.473 2155.38L112.242 2153.58L117.421 2159.64L118.122 2151.67L125.459 2148.5L118.176 2145.34L117.474 2137.37L112.242 2143.43L104.527 2141.62ZM100 2138.29L111.465 2141L119.173 2132L120.187 2143.86L131 2148.5L120.189 2153.14L119.175 2165L111.467 2156L100.002 2158.71L106.087 2148.5L100 2138.29Z" fill="white" fill-opacity="0.34"/>
<path d="M218.293 1787.43L208.498 1793.25L198.704 1787.35L201.269 1798.38L192.64 1805.73L203.99 1806.72L208.498 1817.13L213.007 1806.8L224.357 1805.8L215.728 1798.38L218.293 1787.43ZM223.035 1781L219.18 1797.27L232 1808.21L215.112 1809.65L208.498 1825L201.885 1809.66L185 1808.22L197.82 1797.28L193.962 1781L208.498 1789.64L223.035 1781Z" fill="white" fill-opacity="0.34"/>
<path d="M81.3762 1807.53L74.4989 1811.63L67.6216 1807.47L69.4228 1815.24L63.3643 1820.42L71.3332 1821.12L74.4989 1828.46L77.6646 1821.18L85.6335 1820.47L79.575 1815.24L81.3762 1807.53ZM84.7057 1803L81.9984 1814.46L91 1822.17L79.1427 1823.19L74.4989 1834L69.8551 1823.19L58 1822.17L67.0016 1814.47L64.2922 1803L74.4989 1809.09L84.7057 1803Z" fill="white" fill-opacity="0.34"/>
<path d="M273.376 1880.53L266.499 1884.63L259.622 1880.47L261.423 1888.24L255.364 1893.42L263.333 1894.12L266.499 1901.46L269.665 1894.18L277.634 1893.47L271.575 1888.24L273.376 1880.53ZM276.706 1876L273.998 1887.46L283 1895.17L271.143 1896.19L266.499 1907L261.855 1896.19L250 1895.17L259.002 1887.47L256.292 1876L266.499 1882.09L276.706 1876Z" fill="white" fill-opacity="0.34"/>
<path d="M175.166 283.203L181.001 279.764L186.836 283.248L185.308 276.733L190.448 272.389L183.687 271.801L181.001 265.648L178.315 271.756L171.553 272.344L176.694 276.733L175.166 283.203ZM172.341 287L174.638 277.384L167 270.92L177.061 270.069L181.001 261L184.941 270.067L195 270.918L187.362 277.383L189.661 286.998L181.001 281.894L172.341 287Z" fill="white" fill-opacity="0.34"/>
<path d="M314.166 385.203L320.001 381.764L325.836 385.248L324.308 378.733L329.448 374.389L322.687 373.801L320.001 367.648L317.315 373.756L310.553 374.344L315.694 378.733L314.166 385.203ZM311.341 389L313.638 379.384L306 372.92L316.061 372.069L320.001 363L323.941 372.067L334 372.918L326.362 379.383L328.661 388.998L320.001 383.894L311.341 389Z" fill="white" fill-opacity="0.34"/>
<path d="M277.707 307.574L287.502 301.755L297.296 307.651L294.731 296.625L303.36 289.274L292.01 288.279L287.502 277.865L282.993 288.202L271.643 289.198L280.272 296.625L277.707 307.574ZM272.965 314L276.82 297.727L264 286.787L280.888 285.348L287.502 270L294.115 285.345L311 286.784L298.18 297.724L302.038 313.997L287.502 305.36L272.965 314Z" fill="white" fill-opacity="0.34"/>
<path d="M158.834 434.797L152.999 438.236L147.164 434.752L148.692 441.267L143.552 445.611L150.313 446.199L152.999 452.352L155.685 446.244L162.447 445.656L157.306 441.267L158.834 434.797ZM161.659 431L159.362 440.616L167 447.08L156.939 447.931L152.999 457L149.059 447.933L139 447.082L146.638 440.617L144.339 431.002L152.999 436.106L161.659 431Z" fill="white" fill-opacity="0.34"/>
<path d="M274.293 469.426L264.498 475.245L254.704 469.349L257.269 480.375L248.64 487.726L259.99 488.721L264.498 499.135L269.007 488.798L280.357 487.802L271.728 480.375L274.293 469.426ZM279.035 463L275.18 479.273L288 490.213L271.112 491.652L264.498 507L257.885 491.655L241 490.216L253.82 479.276L249.962 463.003L264.498 471.64L279.035 463Z" fill="white" fill-opacity="0.34"/>
<path d="M259.293 613.426L249.498 619.245L239.704 613.349L242.269 624.375L233.64 631.726L244.99 632.721L249.498 643.135L254.007 632.798L265.357 631.802L256.728 624.375L259.293 613.426ZM264.035 607L260.18 623.273L273 634.213L256.112 635.652L249.498 651L242.885 635.655L226 634.216L238.82 623.276L234.962 607.003L249.498 615.64L264.035 607Z" fill="white" fill-opacity="0.34"/>
<path d="M109.669 978.594L97.9981 985.471L86.3276 978.504L89.3842 991.534L79.103 1000.22L92.626 1001.4L97.9981 1013.7L103.37 1001.49L116.893 1000.31L106.612 991.534L109.669 978.594ZM115.319 971L110.725 990.231L126 1003.16L105.879 1004.86L97.9981 1023L90.1178 1004.87L70 1003.16L85.2754 990.235L80.6776 971.004L97.9981 981.211L115.319 971Z" fill="white" fill-opacity="0.34"/>
<path d="M299.127 1074.01L288.498 1080.36L277.87 1073.93L280.653 1085.95L271.29 1093.97L283.606 1095.06L288.498 1106.42L293.391 1095.14L305.706 1094.06L296.343 1085.95L299.127 1074.01ZM304.272 1067L300.088 1084.75L314 1096.69L295.675 1098.26L288.498 1115L281.322 1098.26L263 1096.69L276.912 1084.76L272.724 1067L288.498 1076.43L304.272 1067Z" fill="white" fill-opacity="0.34"/>
<path d="M90.3762 636.527L83.4989 640.627L76.6216 636.473L78.4228 644.242L72.3643 649.421L80.3332 650.122L83.4989 657.459L86.6646 650.176L94.6335 649.474L88.575 644.242L90.3762 636.527ZM93.7057 632L90.9984 643.465L100 651.173L88.1427 652.187L83.4989 663L78.8551 652.189L67 651.175L76.0016 643.467L73.2922 632.002L83.4989 638.087L93.7057 632Z" fill="white" fill-opacity="0.34"/>
<path d="M132.376 1020.53L125.499 1024.63L118.622 1020.47L120.423 1028.24L114.364 1033.42L122.333 1034.12L125.499 1041.46L128.665 1034.18L136.634 1033.47L130.575 1028.24L132.376 1020.53ZM135.706 1016L132.998 1027.46L142 1035.17L130.143 1036.19L125.499 1047L120.855 1036.19L109 1035.17L118.002 1027.47L115.292 1016L125.499 1022.09L135.706 1016Z" fill="white" fill-opacity="0.34"/>
<path d="M93.2519 1208.45L81.9982 1215.19L70.7445 1208.36L73.6919 1221.14L63.7779 1229.66L76.8179 1230.81L81.9982 1242.88L87.1785 1230.9L100.219 1229.75L90.3045 1221.14L93.2519 1208.45ZM98.7002 1201L94.2701 1219.86L109 1232.54L89.5972 1234.21L81.9982 1252L74.3993 1234.21L55 1232.55L69.7299 1219.86L65.2963 1201L81.9982 1211.01L98.7002 1201Z" fill="white" fill-opacity="0.34"/>
<path d="M95.8343 497.797L89.9991 501.236L84.1638 497.752L85.6921 504.267L80.5515 508.611L87.313 509.199L89.9991 515.352L92.6851 509.244L99.4466 508.656L94.3061 504.267L95.8343 497.797ZM98.6593 494L96.3623 503.616L104 510.08L93.9393 510.931L89.9991 520L86.0589 510.933L76 510.082L83.6377 503.617L81.3388 494.002L89.9991 499.106L98.6593 494Z" fill="white" fill-opacity="0.34"/>
<path d="M19.8343 332.797L13.9991 336.236L8.16381 332.752L9.6921 339.267L4.55151 343.611L11.313 344.199L13.9991 350.352L16.6851 344.244L23.4466 343.656L18.3061 339.267L19.8343 332.797ZM22.6593 329L20.3623 338.616L28 345.08L17.9393 345.931L13.9991 355L10.0589 345.933L8.67047e-07 345.082L7.63771 338.617L5.3388 329.002L13.9991 334.106L22.6593 329Z" fill="white" fill-opacity="0.34"/>
<path d="M56.2934 410.426L46.4984 416.245L36.7035 410.349L39.2689 421.375L30.64 428.726L41.9897 429.721L46.4984 440.135L51.0072 429.798L62.3569 428.802L53.728 421.375L56.2934 410.426ZM61.0353 404L57.1796 420.273L70 431.213L53.1123 432.652L46.4984 448L39.8846 432.655L23 431.216L35.8204 420.276L31.9616 404.003L46.4984 412.64L61.0353 404Z" fill="white" fill-opacity="0.34"/>
<path d="M36.1657 31.203L42.0009 27.7643L47.8362 31.2482L46.3079 24.7328L51.4485 20.3893L44.687 19.8011L42.0009 13.6476L39.3149 19.7558L32.5534 20.344L37.6939 24.7328L36.1657 31.203ZM33.3407 35L35.6377 25.3844L28 18.9197L38.0607 18.0691L42.0009 9L45.9411 18.0672L56 18.9179L48.3623 25.3826L50.6612 34.9982L42.0009 29.8945L33.3407 35Z" fill="white" fill-opacity="0.34"/>
<path d="M123.207 62.3267L130.501 58.0945L137.795 62.3824L135.885 54.3635L142.311 49.0175L133.859 48.2936L130.501 40.7202L127.144 48.2379L118.692 48.9619L125.117 54.3635L123.207 62.3267ZM119.676 67L122.547 55.1654L113 47.2088L125.576 46.1619L130.501 35L135.426 46.1597L148 47.2066L138.453 55.1632L141.326 66.9978L130.501 60.7163L119.676 67Z" fill="white" fill-opacity="0.34"/>
<path d="M198.166 22.203L204.001 18.7643L209.836 22.2482L208.308 15.7328L213.448 11.3893L206.687 10.8011L204.001 4.64764L201.315 10.7558L194.553 11.344L199.694 15.7328L198.166 22.203ZM195.341 26L197.638 16.3844L190 9.91967L200.061 9.06905L204.001 0L207.941 9.06724L218 9.91786L210.362 16.3826L212.661 25.9982L204.001 20.8945L195.341 26Z" fill="white" fill-opacity="0.34"/>
<path d="M286.166 53.203L292.001 49.7643L297.836 53.2482L296.308 46.7328L301.448 42.3893L294.687 41.8011L292.001 35.6476L289.315 41.7558L282.553 42.344L287.694 46.7328L286.166 53.203ZM283.341 57L285.638 47.3844L278 40.9197L288.061 40.0691L292.001 31L295.941 40.0672L306 40.9179L298.362 47.3826L300.661 56.9982L292.001 51.8945L283.341 57Z" fill="white" fill-opacity="0.34"/>
</svg>
