<svg width="1269" height="1431" viewBox="0 0 1269 1431" fill="none" xmlns="http://www.w3.org/2000/svg">
<path d="M1187.11 1337.76L1203.8 1337.55L1211.91 1352.21L1216.74 1336.33L1233.08 1333.31L1219.4 1323.73L1221.32 1307.21L1208.02 1317.03L1192.88 1309.98L1198.39 1325.73L1187.11 1337.76ZM1176.38 1342.44L1193.2 1324.6L1184.95 1301.32L1207.44 1311.86L1227.08 1297.22L1224.23 1321.55L1244.6 1335.75L1220.31 1340.25L1213.27 1363.74L1201.16 1342.12L1176.38 1342.44Z" fill="white" fill-opacity="0.34"/>
<path d="M880.105 1271.76L896.802 1271.55L904.909 1286.21L909.738 1270.33L926.077 1267.31L912.404 1257.73L914.318 1241.21L901.017 1251.03L885.884 1243.98L891.389 1259.73L880.105 1271.76ZM869.376 1276.44L886.2 1258.6L877.952 1235.32L900.438 1245.86L920.084 1231.22L917.227 1255.55L937.598 1269.75L913.308 1274.25L906.274 1297.74L894.159 1276.12L869.376 1276.44Z" fill="white" fill-opacity="0.34"/>
<path d="M373.956 344.238L387.502 336.302L401.048 344.342L397.5 329.307L409.434 319.283L393.738 317.926L387.502 303.725L381.267 317.821L365.57 319.178L377.504 329.307L373.956 344.238ZM367.398 353L372.73 330.81L355 315.892L378.355 313.929L387.502 293L396.649 313.924L420 315.887L402.27 330.806L407.606 352.996L387.502 341.218L367.398 353Z" fill="white" fill-opacity="0.34"/>
<path d="M1196.96 65.0916L1210.5 57.0239L1224.05 65.1978L1220.5 49.9117L1232.43 39.7209L1216.74 38.3409L1210.5 23.9041L1204.27 38.2348L1188.57 39.6148L1200.5 49.9117L1196.96 65.0916ZM1190.4 74L1195.73 51.4403L1178 36.2731L1201.36 34.2774L1210.5 13L1219.65 34.2731L1243 36.2688L1225.27 51.436L1230.61 73.9958L1210.5 62.0216L1190.4 74Z" fill="white" fill-opacity="0.34"/>
<path d="M38.5807 401.923L54.0024 392.798L69.4242 402.043L65.3852 384.753L78.971 373.225L61.1014 371.664L54.0024 355.334L46.9035 371.544L29.0339 373.105L42.6197 384.753L38.5807 401.923ZM31.1146 412L37.1854 386.482L17 369.325L43.5891 367.068L54.0024 343L64.4158 367.063L91 369.32L70.8146 386.477L76.8903 411.995L54.0024 398.451L31.1146 412Z" fill="white" fill-opacity="0.34"/>
<path d="M804.606 580.884L827.637 580.59L838.82 600.817L845.481 578.91L868.019 574.754L849.159 561.54L851.798 538.741L833.451 552.292L812.577 542.565L820.17 564.297L804.606 580.884ZM789.806 587.348L813.013 562.74L801.636 530.618L832.653 545.164L859.753 524.963L855.811 558.527L883.911 578.113L850.405 584.321L840.702 616.726L823.991 586.905L789.806 587.348Z" fill="white" fill-opacity="0.34"/>
<path d="M1172.49 1136.67L1195.52 1136.38L1206.71 1156.6L1213.37 1134.7L1235.91 1130.54L1217.04 1117.33L1219.68 1094.53L1201.34 1108.08L1180.46 1098.35L1188.06 1120.08L1172.49 1136.67ZM1157.69 1143.14L1180.9 1118.53L1169.52 1086.41L1200.54 1100.95L1227.64 1080.75L1223.7 1114.32L1251.8 1133.9L1218.29 1140.11L1208.59 1172.51L1191.88 1142.69L1157.69 1143.14Z" fill="white" fill-opacity="0.34"/>
<path d="M81.0621 1340.1L100.747 1339.85L110.305 1357.13L115.999 1338.41L135.263 1334.86L119.142 1323.56L121.398 1304.08L105.717 1315.66L87.8755 1307.35L94.3653 1325.92L81.0621 1340.1ZM68.4126 1345.62L88.2481 1324.59L78.5237 1297.13L105.035 1309.57L128.197 1292.3L124.828 1320.99L148.846 1337.73L120.208 1343.03L111.915 1370.73L97.6311 1345.24L68.4126 1345.62Z" fill="white" fill-opacity="0.34"/>
<path d="M971.289 184.069L986.502 175.076L1001.72 184.188L997.731 167.147L1011.13 155.787L993.505 154.249L986.502 138.155L979.499 154.131L961.871 155.669L975.274 167.147L971.289 184.069ZM963.924 194L969.913 168.851L950 151.944L976.23 149.719L986.502 126L996.775 149.714L1023 151.939L1003.09 168.847L1009.08 193.995L986.502 180.647L963.924 194Z" fill="white" fill-opacity="0.34"/>
<path d="M619.419 42.0767L603.998 51.2024L588.576 41.9566L592.615 59.2475L579.029 70.7747L596.899 72.3357L603.998 88.6659L611.096 72.4557L628.966 70.8948L615.38 59.2475L619.419 42.0767ZM626.885 32L620.815 57.5184L641 74.6747L614.411 76.9321L603.998 101L593.584 76.9369L567 74.6795L587.185 57.5232L581.11 32.0048L603.998 45.5493L626.885 32Z" fill="white" fill-opacity="0.34"/>
<path d="M82.5807 58.9233L98.0024 49.7976L113.424 59.0434L109.385 41.7525L122.971 30.2253L105.101 28.6643L98.0024 12.3341L90.9035 28.5443L73.0339 30.1052L86.6197 41.7525L82.5807 58.9233ZM75.1146 69L81.1854 43.4816L61 26.3253L87.5891 24.0679L98.0024 0L108.416 24.0631L135 26.3205L114.815 43.4768L120.89 68.9952L98.0024 55.4507L75.1146 69Z" fill="white" fill-opacity="0.34"/>
<path d="M25.3719 1130.17L43.5029 1119.46L61.6339 1130.31L56.8853 1110.01L72.8578 1096.48L51.8489 1094.65L43.5029 1075.48L35.1569 1094.51L14.1479 1096.34L30.1205 1110.01L25.3719 1130.17ZM16.5942 1142L23.7315 1112.04L0 1091.9L31.2601 1089.25L43.5029 1061L55.7456 1089.25L87 1091.9L63.2685 1112.04L70.4116 1141.99L43.5029 1126.09L16.5942 1142Z" fill="white" fill-opacity="0.34"/>
<path d="M91.4564 1177.84L102.502 1171.36L113.547 1177.93L110.654 1165.65L120.385 1157.46L107.586 1156.36L102.502 1144.76L97.4174 1156.27L84.6189 1157.38L94.3493 1165.65L91.4564 1177.84ZM86.1091 1185L90.4571 1166.88L76 1154.69L95.0435 1153.09L102.502 1136L109.96 1153.09L129 1154.69L114.543 1166.87L118.894 1185L102.502 1175.38L86.1091 1185Z" fill="white" fill-opacity="0.34"/>
<path d="M465.381 1170.59L459.725 1150.3L474.902 1135.6L454.067 1134.93L445.13 1116L437.922 1135.82L417.245 1138.92L433.466 1151.91L429.798 1172.67L447.139 1160.78L465.381 1170.59ZM474.535 1182.13L447.447 1167.48L421.851 1185.19L427.382 1154.31L403.259 1135.17L433.713 1130.66L444.362 1101.15L457.674 1129.29L488.458 1130.14L466.136 1152.02L474.535 1182.13Z" fill="white" fill-opacity="0.34"/>
<path d="M528.533 1119.09L525.132 1106.75L534.333 1097.78L521.724 1097.39L516.335 1085.88L511.952 1097.95L499.434 1099.86L509.238 1107.75L506.996 1120.4L517.504 1113.14L528.533 1119.09ZM534.061 1126.11L517.683 1117.22L502.172 1128.03L505.553 1109.22L490.974 1097.6L509.41 1094.81L515.887 1076.84L523.913 1093.96L542.544 1094.44L529.01 1107.79L534.061 1126.11Z" fill="white" fill-opacity="0.34"/>
<path d="M647.419 1319.09L644.018 1306.75L653.219 1297.78L640.609 1297.39L635.221 1285.88L630.837 1297.95L618.32 1299.86L628.123 1307.75L625.881 1320.4L636.389 1313.14L647.419 1319.09ZM652.947 1326.11L636.568 1317.22L621.058 1328.03L624.438 1309.22L609.859 1297.6L628.295 1294.81L634.772 1276.84L642.798 1293.96L661.429 1294.44L647.895 1307.79L652.947 1326.11Z" fill="white" fill-opacity="0.34"/>
<path d="M381.072 1343.69L376.473 1326.99L388.916 1314.86L371.863 1314.34L364.575 1298.77L358.647 1315.1L341.718 1317.68L354.977 1328.35L351.945 1345.46L366.156 1335.64L381.072 1343.69ZM388.548 1353.18L366.397 1341.16L345.421 1355.78L349.993 1330.34L330.276 1314.62L355.21 1310.85L363.968 1286.54L374.824 1309.69L400.02 1310.35L381.717 1328.4L388.548 1353.18Z" fill="white" fill-opacity="0.34"/>
<path d="M419.782 654.698L425.437 674.984L410.26 689.688L431.096 690.355L440.033 709.286L447.24 689.467L467.917 686.367L451.696 673.38L455.364 652.613L438.023 664.502L419.782 654.698ZM410.628 643.158L437.716 657.806L463.312 640.095L457.781 670.976L481.903 690.114L451.449 694.629L440.8 724.132L427.488 695.997L396.704 695.143L419.027 673.267L410.628 643.158Z" fill="white" fill-opacity="0.34"/>
<path d="M356.629 706.192L360.03 718.539L350.829 727.508L363.439 727.892L368.827 739.41L373.21 727.334L385.728 725.425L375.925 717.534L378.166 704.885L367.659 712.143L356.629 706.192ZM351.101 699.175L367.48 708.065L382.99 697.254L379.61 716.064L394.189 727.692L375.752 730.473L369.276 748.449L361.249 731.331L342.619 730.844L356.152 717.5L351.101 699.175Z" fill="white" fill-opacity="0.34"/>
<path d="M797.372 1002.17L815.503 991.458L833.634 1002.31L828.885 982.014L844.858 968.482L823.849 966.649L815.503 947.479L807.157 966.508L786.148 968.341L802.12 982.014L797.372 1002.17ZM788.594 1014L795.731 984.044L772 963.904L803.26 961.254L815.503 933L827.746 961.248L859 963.898L835.269 984.038L842.412 1013.99L815.503 998.094L788.594 1014Z" fill="white" fill-opacity="0.34"/>
<path d="M863.456 1049.84L874.502 1043.36L885.547 1049.93L882.654 1037.65L892.385 1029.46L879.586 1028.36L874.502 1016.76L869.417 1028.27L856.619 1029.38L866.349 1037.65L863.456 1049.84ZM858.109 1057L862.457 1038.88L848 1026.69L867.044 1025.09L874.502 1008L881.96 1025.09L901 1026.69L886.543 1038.87L890.894 1057L874.502 1047.38L858.109 1057Z" fill="white" fill-opacity="0.34"/>
<path d="M96.0397 581.552L107.502 574.807L118.964 581.641L115.962 568.861L126.06 560.34L112.778 559.187L107.502 547.117L102.226 559.098L88.9441 560.252L99.0417 568.861L96.0397 581.552ZM90.4906 589L95.0026 570.139L80 557.458L99.7622 555.789L107.502 538L115.241 555.786L135 557.454L119.997 570.135L124.513 588.996L107.502 578.985L90.4906 589Z" fill="white" fill-opacity="0.34"/>
<path d="M251.915 599.473L259.001 595.373L266.087 599.527L264.231 591.758L270.473 586.579L262.263 585.878L259.001 578.541L255.739 585.824L247.529 586.526L253.771 591.758L251.915 599.473ZM248.485 604L251.274 592.535L242 584.827L254.217 583.813L259.001 573L263.786 583.811L276 584.825L266.726 592.533L269.517 603.998L259.001 597.913L248.485 604Z" fill="white" fill-opacity="0.34"/>
<path d="M1170.96 566.448L1159.5 573.193L1148.04 566.359L1151.04 579.139L1140.94 587.66L1154.22 588.813L1159.5 600.883L1164.77 588.902L1178.06 587.748L1167.96 579.139L1170.96 566.448ZM1176.51 559L1172 577.861L1187 590.542L1167.24 592.211L1159.5 610L1151.76 592.214L1132 590.546L1147 577.865L1142.49 559.004L1159.5 569.015L1176.51 559Z" fill="white" fill-opacity="0.34"/>
<path d="M1004.08 542.527L996.999 546.627L989.913 542.473L991.769 550.242L985.527 555.421L993.737 556.122L996.999 563.459L1000.26 556.176L1008.47 555.474L1002.23 550.242L1004.08 542.527ZM1007.51 538L1004.73 549.465L1014 557.173L1001.78 558.187L996.999 569L992.214 558.189L980 557.175L989.274 549.467L986.483 538.002L996.999 544.087L1007.51 538Z" fill="white" fill-opacity="0.34"/>
</svg>
