<svg width="963" height="4011" viewBox="0 0 963 4011" fill="none" xmlns="http://www.w3.org/2000/svg">
<path d="M341.111 2401.79L345.74 2409.5L341.05 2417.21L349.821 2415.19L355.668 2421.99L356.46 2413.05L364.744 2409.5L356.521 2405.95L355.729 2397.02L349.821 2403.81L341.111 2401.79ZM336 2398.06L348.944 2401.09L357.647 2391L358.792 2404.29L371 2409.5L358.794 2414.71L357.649 2428L348.947 2417.91L336.002 2420.95L342.873 2409.5L336 2398.06Z" fill="white" fill-opacity="0.34"/>
<path d="M587.111 2530.79L591.74 2538.5L587.05 2546.21L595.821 2544.19L601.668 2550.99L602.46 2542.05L610.744 2538.5L602.521 2534.95L601.729 2526.02L595.821 2532.81L587.111 2530.79ZM582 2527.06L594.944 2530.09L603.647 2520L604.792 2533.29L617 2538.5L604.794 2543.71L603.649 2557L594.947 2546.91L582.002 2549.95L588.873 2538.5L582 2527.06Z" fill="white" fill-opacity="0.34"/>
<path d="M322.111 2857.79L326.74 2865.5L322.05 2873.21L330.821 2871.19L336.668 2877.99L337.46 2869.05L345.744 2865.5L337.521 2861.95L336.729 2853.02L330.821 2859.81L322.111 2857.79ZM317 2854.06L329.944 2857.09L338.647 2847L339.792 2860.29L352 2865.5L339.794 2870.71L338.649 2884L329.947 2873.91L317.002 2876.95L323.873 2865.5L317 2854.06Z" fill="white" fill-opacity="0.34"/>
<path d="M374.111 2735.79L378.74 2743.5L374.05 2751.21L382.821 2749.19L388.668 2755.99L389.46 2747.05L397.744 2743.5L389.521 2739.95L388.729 2731.02L382.821 2737.81L374.111 2735.79ZM369 2732.06L381.944 2735.09L390.647 2725L391.792 2738.29L404 2743.5L391.794 2748.71L390.649 2762L381.947 2751.91L369.002 2754.95L375.873 2743.5L369 2732.06Z" fill="white" fill-opacity="0.34"/>
<path d="M357.111 3080.79L361.74 3088.5L357.05 3096.21L365.821 3094.19L371.668 3100.99L372.46 3092.05L380.744 3088.5L372.521 3084.95L371.729 3076.02L365.821 3082.81L357.111 3080.79ZM352 3077.06L364.944 3080.09L373.647 3070L374.792 3083.29L387 3088.5L374.794 3093.71L373.649 3107L364.947 3096.91L352.002 3099.95L358.873 3088.5L352 3077.06Z" fill="white" fill-opacity="0.34"/>
<path d="M454.111 3584.79L458.74 3592.5L454.05 3600.21L462.821 3598.19L468.668 3604.99L469.46 3596.05L477.744 3592.5L469.521 3588.95L468.729 3580.02L462.821 3586.81L454.111 3584.79ZM449 3581.06L461.944 3584.09L470.647 3574L471.792 3587.29L484 3592.5L471.794 3597.71L470.649 3611L461.947 3600.91L449.002 3603.95L455.873 3592.5L449 3581.06Z" fill="white" fill-opacity="0.34"/>
<path d="M457.616 2910.37L465.419 2923.5L457.514 2936.63L472.299 2933.19L482.155 2944.76L483.49 2929.55L497.453 2923.5L483.593 2917.46L482.258 2902.25L472.299 2913.81L457.616 2910.37ZM449 2904.02L470.82 2909.18L485.49 2892L487.42 2914.64L508 2923.5L487.424 2932.37L485.494 2955L470.824 2937.82L449.004 2942.99L460.586 2923.5L449 2904.02Z" fill="white" fill-opacity="0.34"/>
<path d="M588.705 2667.12L600.212 2686.5L588.554 2705.88L610.355 2700.81L624.89 2717.88L626.858 2695.42L647.448 2686.5L627.009 2677.58L625.041 2655.12L610.355 2672.2L588.705 2667.12ZM576 2657.74L608.175 2665.37L629.807 2640L632.654 2673.42L663 2686.5L632.66 2699.59L629.813 2733L608.181 2707.63L576.006 2715.27L593.084 2686.5L576 2657.74Z" fill="white" fill-opacity="0.34"/>
<path d="M612.616 3485.37L620.419 3498.5L612.514 3511.63L627.299 3508.19L637.155 3519.76L638.49 3504.55L652.453 3498.5L638.593 3492.46L637.258 3477.25L627.299 3488.81L612.616 3485.37ZM604 3479.02L625.82 3484.18L640.49 3467L642.42 3489.64L663 3498.5L642.424 3507.37L640.494 3530L625.824 3512.82L604.004 3517.99L615.586 3498.5L604 3479.02Z" fill="white" fill-opacity="0.34"/>
<path d="M608.347 3022.83L616.811 3037L608.235 3051.17L624.273 3047.46L634.965 3059.95L636.413 3043.53L651.56 3037L636.524 3030.48L635.076 3014.06L624.273 3026.54L608.347 3022.83ZM599 3015.97L622.669 3021.55L638.582 3003L640.676 3027.43L663 3037L640.681 3046.57L638.587 3071L622.674 3052.45L599.004 3058.03L611.567 3037L599 3015.97Z" fill="white" fill-opacity="0.34"/>
<path d="M636.111 2882.79L640.74 2890.5L636.05 2898.21L644.821 2896.19L650.668 2902.99L651.46 2894.05L659.744 2890.5L651.521 2886.95L650.729 2878.02L644.821 2884.81L636.111 2882.79ZM631 2879.06L643.944 2882.09L652.647 2872L653.792 2885.29L666 2890.5L653.794 2895.71L652.649 2909L643.947 2898.91L631.002 2901.95L637.873 2890.5L631 2879.06Z" fill="white" fill-opacity="0.34"/>
<path d="M542.718 2398.29L548.802 2408.5L542.638 2418.71L554.165 2416.04L561.85 2425.03L562.89 2413.2L573.777 2408.5L562.97 2403.8L561.93 2391.97L554.165 2400.96L542.718 2398.29ZM536 2393.35L553.012 2397.37L564.45 2384L565.955 2401.61L582 2408.5L565.958 2415.4L564.453 2433L553.015 2419.63L536.003 2423.66L545.033 2408.5L536 2393.35Z" fill="white" fill-opacity="0.34"/>
<path d="M642.02 1662.04L654.716 1683.5L641.853 1704.97L665.91 1699.35L681.947 1718.26L684.119 1693.38L706.839 1683.5L684.286 1673.62L682.114 1648.75L665.91 1667.66L642.02 1662.04ZM628 1651.65L663.504 1660.1L687.374 1632L690.514 1669.01L724 1683.5L690.521 1698L687.38 1735L663.511 1706.9L628.007 1715.36L646.851 1683.5L628 1651.65Z" fill="white" fill-opacity="0.34"/>
<path d="M329.594 2088.33L336.471 2100L329.504 2111.67L342.534 2108.62L351.221 2118.9L352.398 2105.37L364.705 2100L352.488 2094.63L351.312 2081.11L342.534 2091.39L329.594 2088.33ZM322 2082.68L341.231 2087.28L354.161 2072L355.862 2092.12L374 2100L355.866 2107.88L354.164 2128L341.235 2112.72L322.004 2117.32L332.211 2100L322 2082.68Z" fill="white" fill-opacity="0.34"/>
<path d="M605.594 2242.33L612.471 2254L605.504 2265.67L618.534 2262.62L627.221 2272.9L628.398 2259.37L640.705 2254L628.488 2248.63L627.312 2235.11L618.534 2245.39L605.594 2242.33ZM598 2236.68L617.231 2241.28L630.161 2226L631.862 2246.12L650 2254L631.866 2261.88L630.164 2282L617.235 2266.72L598.004 2271.32L608.211 2254L598 2236.68Z" fill="white" fill-opacity="0.34"/>
<path d="M311.661 2248.75L321.316 2265L311.534 2281.26L329.827 2277L342.022 2291.32L343.674 2272.49L360.951 2265L343.801 2257.52L342.15 2238.68L329.827 2253L311.661 2248.75ZM301 2240.88L327.998 2247.28L346.149 2226L348.537 2254.03L374 2265L348.542 2275.98L346.154 2304L328.003 2282.72L301.005 2289.13L315.335 2265L301 2240.88Z" fill="white" fill-opacity="0.34"/>
<path d="M465.293 1741.43L455.498 1747.25L445.704 1741.35L448.269 1752.38L439.64 1759.73L450.99 1760.72L455.498 1771.13L460.007 1760.8L471.357 1759.8L462.728 1752.38L465.293 1741.43ZM470.035 1735L466.18 1751.27L479 1762.21L462.112 1763.65L455.498 1779L448.885 1763.66L432 1762.22L444.82 1751.28L440.962 1735L455.498 1743.64L470.035 1735Z" fill="white" fill-opacity="0.34"/>
<path d="M347.753 1866.27L328.997 1877.38L310.241 1866.12L315.153 1887.17L298.63 1901.2L320.363 1903.1L328.997 1922.98L337.631 1903.25L359.364 1901.35L342.841 1887.17L347.753 1866.27ZM356.834 1854L349.45 1885.07L374 1905.95L341.662 1908.7L328.997 1938L316.332 1908.71L284 1905.96L308.55 1885.07L301.16 1854.01L328.997 1870.49L356.834 1854Z" fill="white" fill-opacity="0.34"/>
<path d="M673.376 1869.53L666.499 1873.63L659.622 1869.47L661.423 1877.24L655.364 1882.42L663.333 1883.12L666.499 1890.46L669.665 1883.18L677.634 1882.47L671.575 1877.24L673.376 1869.53ZM676.706 1865L673.998 1876.46L683 1884.17L671.143 1885.19L666.499 1896L661.855 1885.19L650 1884.17L659.002 1876.47L656.292 1865L666.499 1871.09L676.706 1865Z" fill="white" fill-opacity="0.34"/>
<path d="M809.166 202.203L815.001 198.764L820.836 202.248L819.308 195.733L824.448 191.389L817.687 190.801L815.001 184.648L812.315 190.756L805.553 191.344L810.694 195.733L809.166 202.203ZM806.341 206L808.638 196.384L801 189.92L811.061 189.069L815.001 180L818.941 189.067L829 189.918L821.362 196.383L823.661 205.998L815.001 200.894L806.341 206Z" fill="white" fill-opacity="0.34"/>
<path d="M898.456 135.631L914.503 126.241L930.55 135.755L926.347 117.963L940.483 106.101L921.889 104.495L914.503 87.6916L907.116 104.372L888.522 105.978L902.658 117.963L898.456 135.631ZM890.687 146L897.004 119.742L876 102.088L903.667 99.7655L914.503 75L925.338 99.7605L953 102.083L931.996 119.737L938.318 145.995L914.503 132.058L890.687 146Z" fill="white" fill-opacity="0.34"/>
<path d="M903.166 336.203L909.001 332.764L914.836 336.248L913.308 329.733L918.448 325.389L911.687 324.801L909.001 318.648L906.315 324.756L899.553 325.344L904.694 329.733L903.166 336.203ZM900.341 340L902.638 330.384L895 323.92L905.061 323.069L909.001 314L912.941 323.067L923 323.918L915.362 330.383L917.661 339.998L909.001 334.894L900.341 340Z" fill="white" fill-opacity="0.34"/>
<path d="M722.538 517.587L741.503 506.345L760.468 517.735L755.501 496.434L772.208 482.234L750.233 480.311L741.503 460.194L732.773 480.163L710.798 482.086L727.505 496.434L722.538 517.587ZM713.357 530L720.823 498.564L696 477.43L728.697 474.649L741.503 445L754.309 474.643L787 477.424L762.177 498.558L769.649 529.994L741.503 513.309L713.357 530Z" fill="white" fill-opacity="0.34"/>
<path d="M757.707 351.574L767.502 345.755L777.296 351.651L774.731 340.625L783.36 333.274L772.01 332.279L767.502 321.865L762.993 332.202L751.643 333.198L760.272 340.625L757.707 351.574ZM752.965 358L756.82 341.727L744 330.787L760.888 329.348L767.502 314L774.115 329.345L791 330.784L778.18 341.724L782.038 357.997L767.502 349.36L752.965 358Z" fill="white" fill-opacity="0.34"/>
<path d="M889.707 545.574L899.502 539.755L909.296 545.651L906.731 534.625L915.36 527.274L904.01 526.279L899.502 515.865L894.993 526.202L883.643 527.198L892.272 534.625L889.707 545.574ZM884.965 552L888.82 535.727L876 524.787L892.888 523.348L899.502 508L906.115 523.345L923 524.784L910.18 535.724L914.038 551.997L899.502 543.36L884.965 552Z" fill="white" fill-opacity="0.34"/>
<path d="M322.834 399.797L316.999 403.236L311.164 399.752L312.692 406.267L307.552 410.611L314.313 411.199L316.999 417.352L319.685 411.244L326.447 410.656L321.306 406.267L322.834 399.797ZM325.659 396L323.362 405.616L331 412.08L320.939 412.931L316.999 422L313.059 412.933L303 412.082L310.638 405.617L308.339 396.002L316.999 401.106L325.659 396Z" fill="white" fill-opacity="0.34"/>
<path d="M509.293 415.426L499.498 421.245L489.704 415.349L492.269 426.375L483.64 433.726L494.99 434.721L499.498 445.135L504.007 434.798L515.357 433.802L506.728 426.375L509.293 415.426ZM514.035 409L510.18 425.273L523 436.213L506.112 437.652L499.498 453L492.885 437.655L476 436.216L488.82 425.276L484.962 409.003L499.498 417.64L514.035 409Z" fill="white" fill-opacity="0.34"/>
<path d="M237.293 602.426L227.498 608.245L217.704 602.349L220.269 613.375L211.64 620.726L222.99 621.721L227.498 632.135L232.007 621.798L243.357 620.802L234.728 613.375L237.293 602.426ZM242.035 596L238.18 612.273L251 623.213L234.112 624.652L227.498 640L220.885 624.655L204 623.216L216.82 612.276L212.962 596.003L227.498 604.64L242.035 596Z" fill="white" fill-opacity="0.34"/>
<path d="M363.795 891.245L346.497 901.429L329.2 891.111L333.73 910.407L318.492 923.27L338.535 925.012L346.497 943.236L354.46 925.146L374.503 923.404L359.264 910.407L363.795 891.245ZM372.169 880L365.36 908.477L388 927.623L358.177 930.142L346.497 957L334.817 930.147L305 927.628L327.64 908.482L320.826 880.005L346.497 895.12L372.169 880Z" fill="white" fill-opacity="0.34"/>
<path d="M619.044 1455.91L605.498 1463.98L591.952 1455.8L595.5 1471.09L583.566 1481.28L599.262 1482.66L605.498 1497.1L611.733 1482.77L627.43 1481.39L615.496 1471.09L619.044 1455.91ZM625.602 1447L620.27 1469.56L638 1484.73L614.645 1486.72L605.498 1508L596.351 1486.73L573 1484.73L590.73 1469.56L585.394 1447L605.498 1458.98L625.602 1447Z" fill="white" fill-opacity="0.34"/>
<path d="M408.376 670.527L401.499 674.627L394.622 670.473L396.423 678.242L390.364 683.421L398.333 684.122L401.499 691.459L404.665 684.176L412.634 683.474L406.575 678.242L408.376 670.527ZM411.706 666L408.998 677.465L418 685.173L406.143 686.187L401.499 697L396.855 686.189L385 685.175L394.002 677.467L391.292 666.002L401.499 672.087L411.706 666Z" fill="white" fill-opacity="0.34"/>
<path d="M563.376 739.527L556.499 743.627L549.622 739.473L551.423 747.242L545.364 752.421L553.333 753.122L556.499 760.459L559.665 753.176L567.634 752.474L561.575 747.242L563.376 739.527ZM566.706 735L563.998 746.465L573 754.173L561.143 755.187L556.499 766L551.855 755.189L540 754.175L549.002 746.467L546.292 735.002L556.499 741.087L566.706 735Z" fill="white" fill-opacity="0.34"/>
<path d="M890.376 701.527L883.499 705.627L876.622 701.473L878.423 709.242L872.364 714.421L880.333 715.122L883.499 722.459L886.665 715.176L894.634 714.474L888.575 709.242L890.376 701.527ZM893.706 697L890.998 708.465L900 716.173L888.143 717.187L883.499 728L878.855 717.189L867 716.175L876.002 708.467L873.292 697.002L883.499 703.087L893.706 697Z" fill="white" fill-opacity="0.34"/>
<path d="M536.376 1060.53L529.499 1064.63L522.622 1060.47L524.423 1068.24L518.364 1073.42L526.333 1074.12L529.499 1081.46L532.665 1074.18L540.634 1073.47L534.575 1068.24L536.376 1060.53ZM539.706 1056L536.998 1067.46L546 1075.17L534.143 1076.19L529.499 1087L524.855 1076.19L513 1075.17L522.002 1067.47L519.292 1056L529.499 1062.09L539.706 1056Z" fill="white" fill-opacity="0.34"/>
<path d="M385.252 1310.45L373.998 1317.19L362.744 1310.36L365.692 1323.14L355.778 1331.66L368.818 1332.81L373.998 1344.88L379.178 1332.9L392.219 1331.75L382.305 1323.14L385.252 1310.45ZM390.7 1303L386.27 1321.86L401 1334.54L381.597 1336.21L373.998 1354L366.399 1336.21L347 1334.55L361.73 1321.86L357.296 1303L373.998 1313.01L390.7 1303Z" fill="white" fill-opacity="0.34"/>
<path d="M350.378 1500.1L333.497 1510.15L316.617 1499.97L321.038 1519.01L306.167 1531.71L325.727 1533.43L333.497 1551.41L341.268 1533.56L360.828 1531.84L345.957 1519.01L350.378 1500.1ZM358.55 1489L351.905 1517.11L374 1536L344.896 1538.49L333.497 1565L322.099 1538.5L293 1536.01L315.095 1517.11L308.444 1489.01L333.497 1503.92L358.55 1489Z" fill="white" fill-opacity="0.34"/>
<path d="M183.293 270.426L173.498 276.245L163.704 270.349L166.269 281.375L157.64 288.726L168.99 289.721L173.498 300.135L178.007 289.798L189.357 288.802L180.728 281.375L183.293 270.426ZM188.035 264L184.18 280.273L197 291.213L180.112 292.652L173.498 308L166.885 292.655L150 291.216L162.82 280.276L158.962 264.003L173.498 272.64L188.035 264Z" fill="white" fill-opacity="0.34"/>
<path d="M102.293 406.426L92.4984 412.245L82.7035 406.349L85.2689 417.375L76.64 424.726L87.9897 425.721L92.4984 436.135L97.0072 425.798L108.357 424.802L99.728 417.375L102.293 406.426ZM107.035 400L103.18 416.273L116 427.213L99.1123 428.652L92.4984 444L85.8846 428.655L69 427.216L81.8204 416.276L77.9616 400.003L92.4984 408.64L107.035 400Z" fill="white" fill-opacity="0.34"/>
<path d="M139.914 101.901L157.003 91.8495L174.092 102.033L169.616 82.9883L184.671 70.2917L164.869 68.5723L157.003 50.5854L149.136 68.4401L129.335 70.1594L144.389 82.9883L139.914 101.901ZM131.64 113L138.368 84.8928L116 65.996L145.464 63.5095L157.003 37L168.542 63.5042L198 65.9907L175.632 84.8875L182.365 112.995L157.003 98.0761L131.64 113Z" fill="white" fill-opacity="0.34"/>
<path d="M92.6695 692.807L75.9974 702.594L59.3252 692.678L63.6917 711.222L49.0043 723.584L68.3229 725.259L75.9974 742.772L83.6718 725.387L102.99 723.713L88.303 711.222L92.6695 692.807ZM100.741 682L94.178 709.368L116 727.767L87.255 730.188L75.9973 756L64.7397 730.193L36 727.772L57.822 709.373L51.2537 682.005L75.9974 696.531L100.741 682Z" fill="white" fill-opacity="0.34"/>
<path d="M136.293 878.426L126.498 884.245L116.704 878.349L119.269 889.375L110.64 896.726L121.99 897.721L126.498 908.135L131.007 897.798L142.357 896.802L133.728 889.375L136.293 878.426ZM141.035 872L137.18 888.273L150 899.213L133.112 900.652L126.498 916L119.885 900.655L103 899.216L115.82 888.276L111.962 872.003L126.498 880.64L141.035 872Z" fill="white" fill-opacity="0.34"/>
<path d="M73.1657 586.203L79.0009 582.764L84.8362 586.248L83.3079 579.733L88.4485 575.389L81.687 574.801L79.0009 568.648L76.3149 574.756L69.5534 575.344L74.6939 579.733L73.1657 586.203ZM70.3407 590L72.6377 580.384L65 573.92L75.0607 573.069L79.0009 564L82.9411 573.067L93 573.918L85.3623 580.383L87.6612 589.998L79.0009 584.894L70.3407 590Z" fill="white" fill-opacity="0.34"/>
<path d="M289.415 35.8664L299.002 30.3116L308.588 35.9394L306.077 25.4146L314.523 18.398L303.414 17.4479L299.002 7.50773L294.589 17.3748L283.481 18.3249L291.926 25.4146L289.415 35.8664ZM284.774 42L288.548 26.4671L276 16.0241L292.528 14.65L299.002 0L305.475 14.6471L322 16.0212L309.452 26.4642L313.229 41.9971L299.002 33.7526L284.774 42Z" fill="white" fill-opacity="0.34"/>
<path d="M15.415 38.8664L25.0015 33.3116L34.588 38.9394L32.0773 28.4146L40.5225 21.398L29.4144 20.4479L25.0015 10.5077L20.5887 20.3748L9.48052 21.3249L17.9258 28.4146L15.415 38.8664ZM10.7739 45L14.5477 29.4671L2 19.0241L18.5284 17.65L25.0015 3L31.4747 17.6471L48 19.0212L35.4523 29.4642L39.2291 44.9971L25.0015 36.7526L10.7739 45Z" fill="white" fill-opacity="0.34"/>
<path d="M439.499 76.0347L447.001 71.5379L454.504 76.0938L452.539 67.5737L459.148 61.8936L450.455 61.1245L447.001 53.0777L443.548 61.0653L434.854 61.8345L441.464 67.5737L439.499 76.0347ZM435.867 81L438.82 68.4257L429 59.9719L441.935 58.8595L447.001 47L452.067 58.8572L465 59.9695L455.18 68.4234L458.136 80.9976L447.001 74.3235L435.867 81Z" fill="white" fill-opacity="0.34"/>
<path d="M628.707 52.5743L638.502 46.755L648.296 52.6508L645.731 41.6248L654.36 34.2741L643.01 33.2787L638.502 22.8652L633.993 33.2021L622.643 34.1975L631.272 41.6248L628.707 52.5743ZM623.965 59L627.82 42.7274L615 31.7871L631.888 30.3476L638.502 15L645.115 30.3446L662 31.7841L649.18 42.7243L653.038 58.9969L638.502 50.3599L623.965 59Z" fill="white" fill-opacity="0.34"/>
<path d="M795.166 46.203L801.001 42.7643L806.836 46.2482L805.308 39.7328L810.448 35.3893L803.687 34.8011L801.001 28.6476L798.315 34.7558L791.553 35.344L796.694 39.7328L795.166 46.203ZM792.341 50L794.638 40.3844L787 33.9197L797.061 33.0691L801.001 24L804.941 33.0672L815 33.9179L807.362 40.3826L809.661 49.9982L801.001 44.8945L792.341 50Z" fill="white" fill-opacity="0.34"/>
<path d="M37.6733 1066.21L41.9055 1073.5L37.6176 1080.8L45.6365 1078.88L50.9825 1085.31L51.7064 1076.86L59.2798 1073.5L51.7621 1070.14L51.0381 1061.69L45.6365 1068.12L37.6733 1066.21ZM33 1062.68L44.8346 1065.55L52.7912 1056L53.8381 1068.58L65 1073.5L53.8403 1078.43L52.7934 1091L44.8368 1081.45L33.0022 1084.33L39.2837 1073.5L33 1062.68Z" fill="white" fill-opacity="0.34"/>
<path d="M134.797 1226.17L138.236 1232L134.752 1237.84L141.267 1236.31L145.611 1241.45L146.199 1234.69L152.352 1232L146.244 1229.31L145.656 1222.55L141.267 1227.69L134.797 1226.17ZM131 1223.34L140.616 1225.64L147.08 1218L147.931 1228.06L157 1232L147.933 1235.94L147.082 1246L140.617 1238.36L131.002 1240.66L136.106 1232L131 1223.34Z" fill="white" fill-opacity="0.34"/>
<path d="M26.797 1362.17L30.2357 1368L26.7518 1373.84L33.2672 1372.31L37.6107 1377.45L38.1989 1370.69L44.3524 1368L38.2442 1365.31L37.656 1358.55L33.2672 1363.69L26.797 1362.17ZM23 1359.34L32.6156 1361.64L39.0803 1354L39.9309 1364.06L49 1368L39.9328 1371.94L39.0821 1382L32.6174 1374.36L23.0018 1376.66L28.1055 1368L23 1359.34Z" fill="white" fill-opacity="0.34"/>
<path d="M153.797 1472.17L157.236 1478L153.752 1483.84L160.267 1482.31L164.611 1487.45L165.199 1480.69L171.352 1478L165.244 1475.31L164.656 1468.55L160.267 1473.69L153.797 1472.17ZM150 1469.34L159.616 1471.64L166.08 1464L166.931 1474.06L176 1478L166.933 1481.94L166.082 1492L159.617 1484.36L150.002 1486.66L155.106 1478L150 1469.34Z" fill="white" fill-opacity="0.34"/>
<path d="M22.099 1576.91L32.1505 1594L21.9667 1611.09L41.0117 1606.62L53.7083 1621.67L55.4277 1601.87L73.4146 1594L55.5599 1586.14L53.8406 1566.33L41.0117 1581.39L22.099 1576.91ZM11 1568.64L39.1072 1575.37L58.004 1553L60.4905 1582.46L87 1594L60.4958 1605.54L58.0093 1635L39.1125 1612.63L11.0053 1619.36L25.9239 1594L11 1568.64Z" fill="white" fill-opacity="0.34"/>
<path d="M577.673 1285.21L581.905 1292.5L577.618 1299.8L585.637 1297.88L590.982 1304.31L591.706 1295.86L599.28 1292.5L591.762 1289.14L591.038 1280.69L585.637 1287.12L577.673 1285.21ZM573 1281.68L584.835 1284.55L592.791 1275L593.838 1287.58L605 1292.5L593.84 1297.43L592.793 1310L584.837 1300.45L573.002 1303.33L579.284 1292.5L573 1281.68Z" fill="white" fill-opacity="0.34"/>
<path d="M858.834 1013.8L852.999 1017.24L847.164 1013.75L848.692 1020.27L843.552 1024.61L850.313 1025.2L852.999 1031.35L855.685 1025.24L862.447 1024.66L857.306 1020.27L858.834 1013.8ZM861.659 1010L859.362 1019.62L867 1026.08L856.939 1026.93L852.999 1036L849.059 1026.93L839 1026.08L846.638 1019.62L844.339 1010L852.999 1015.11L861.659 1010Z" fill="white" fill-opacity="0.34"/>
<path d="M933.293 1154.43L923.498 1160.25L913.704 1154.35L916.269 1165.38L907.64 1172.73L918.99 1173.72L923.498 1184.13L928.007 1173.8L939.357 1172.8L930.728 1165.38L933.293 1154.43ZM938.035 1148L934.18 1164.27L947 1175.21L930.112 1176.65L923.498 1192L916.885 1176.66L900 1175.22L912.82 1164.28L908.962 1148L923.498 1156.64L938.035 1148Z" fill="white" fill-opacity="0.34"/>
<path d="M809.622 849.047L826.503 839.128L843.383 849.178L838.962 830.383L853.833 817.854L834.273 816.157L826.503 798.407L818.732 816.026L799.172 817.723L814.043 830.383L809.622 849.047ZM801.45 860L808.095 832.263L786 813.614L815.104 811.161L826.503 785L837.901 811.156L867 813.609L844.905 832.257L851.556 859.995L826.503 845.273L801.45 860Z" fill="white" fill-opacity="0.34"/>
<path d="M931.166 925.203L937.001 921.764L942.836 925.248L941.308 918.733L946.448 914.389L939.687 913.801L937.001 907.648L934.315 913.756L927.553 914.344L932.694 918.733L931.166 925.203ZM928.341 929L930.638 919.384L923 912.92L933.061 912.069L937.001 903L940.941 912.067L951 912.918L943.362 919.383L945.661 928.998L937.001 923.894L928.341 929Z" fill="white" fill-opacity="0.34"/>
<path d="M787.673 1238.21L791.905 1245.5L787.618 1252.8L795.637 1250.88L800.982 1257.31L801.706 1248.86L809.28 1245.5L801.762 1242.14L801.038 1233.69L795.637 1240.12L787.673 1238.21ZM783 1234.68L794.835 1237.55L802.791 1228L803.838 1240.58L815 1245.5L803.84 1250.43L802.793 1263L794.837 1253.45L783.002 1256.33L789.284 1245.5L783 1234.68Z" fill="white" fill-opacity="0.34"/>
<path d="M882.347 1339.12L890.811 1353.5L882.235 1367.88L898.273 1364.12L908.965 1376.78L910.413 1360.12L925.56 1353.5L910.524 1346.88L909.076 1330.22L898.273 1342.89L882.347 1339.12ZM873 1332.16L896.669 1337.82L912.582 1319L914.676 1343.79L937 1353.5L914.681 1363.21L912.587 1388L896.674 1369.18L873.004 1374.84L885.567 1353.5L873 1332.16Z" fill="white" fill-opacity="0.34"/>
<path d="M792.797 1472.17L796.236 1478L792.752 1483.84L799.267 1482.31L803.611 1487.45L804.199 1480.69L810.352 1478L804.244 1475.31L803.656 1468.55L799.267 1473.69L792.797 1472.17ZM789 1469.34L798.616 1471.64L805.08 1464L805.931 1474.06L815 1478L805.933 1481.94L805.082 1492L798.617 1484.36L789.002 1486.66L794.106 1478L789 1469.34Z" fill="white" fill-opacity="0.34"/>
<path d="M924.797 1547.17L928.236 1553L924.752 1558.84L931.267 1557.31L935.611 1562.45L936.199 1555.69L942.352 1553L936.244 1550.31L935.656 1543.55L931.267 1548.69L924.797 1547.17ZM921 1544.34L930.616 1546.64L937.08 1539L937.931 1549.06L947 1553L937.933 1556.94L937.082 1567L930.617 1559.36L921.002 1561.66L926.106 1553L921 1544.34Z" fill="white" fill-opacity="0.34"/>
<path d="M858.834 1836.8L852.999 1840.24L847.164 1836.75L848.692 1843.27L843.552 1847.61L850.313 1848.2L852.999 1854.35L855.685 1848.24L862.447 1847.66L857.306 1843.27L858.834 1836.8ZM861.659 1833L859.362 1842.62L867 1849.08L856.939 1849.93L852.999 1859L849.059 1849.93L839 1849.08L846.638 1842.62L844.339 1833L852.999 1838.11L861.659 1833Z" fill="white" fill-opacity="0.34"/>
<path d="M932.587 1959.85L912.997 1971.49L893.407 1959.7L898.538 1981.75L881.28 1996.45L903.979 1998.44L912.997 2019.27L922.014 1998.6L944.714 1996.6L927.456 1981.75L932.587 1959.85ZM942.071 1947L934.359 1979.55L960 2001.43L926.225 2004.3L912.997 2035L899.769 2004.31L866 2001.43L891.641 1979.55L883.923 1947.01L912.997 1964.28L942.071 1947Z" fill="white" fill-opacity="0.34"/>
<path d="M803.166 1677.2L809.001 1673.76L814.836 1677.25L813.308 1670.73L818.448 1666.39L811.687 1665.8L809.001 1659.65L806.315 1665.76L799.553 1666.34L804.694 1670.73L803.166 1677.2ZM800.341 1681L802.638 1671.38L795 1664.92L805.061 1664.07L809.001 1655L812.941 1664.07L823 1664.92L815.362 1671.38L817.661 1681L809.001 1675.89L800.341 1681Z" fill="white" fill-opacity="0.34"/>
<path d="M931.166 1748.2L937.001 1744.76L942.836 1748.25L941.308 1741.73L946.448 1737.39L939.687 1736.8L937.001 1730.65L934.315 1736.76L927.553 1737.34L932.694 1741.73L931.166 1748.2ZM928.341 1752L930.638 1742.38L923 1735.92L933.061 1735.07L937.001 1726L940.941 1735.07L951 1735.92L943.362 1742.38L945.661 1752L937.001 1746.89L928.341 1752Z" fill="white" fill-opacity="0.34"/>
<path d="M787.673 2061.21L791.905 2068.5L787.618 2075.8L795.637 2073.88L800.982 2080.31L801.706 2071.86L809.28 2068.5L801.762 2065.14L801.038 2056.69L795.637 2063.12L787.673 2061.21ZM783 2057.68L794.835 2060.55L802.791 2051L803.838 2063.58L815 2068.5L803.84 2073.43L802.793 2086L794.837 2076.45L783.002 2079.33L789.284 2068.5L783 2057.68Z" fill="white" fill-opacity="0.34"/>
<path d="M890.797 2185.17L894.236 2191L890.752 2196.84L897.267 2195.31L901.611 2200.45L902.199 2193.69L908.352 2191L902.244 2188.31L901.656 2181.55L897.267 2186.69L890.797 2185.17ZM887 2182.34L896.616 2184.64L903.08 2177L903.931 2187.06L913 2191L903.933 2194.94L903.082 2205L896.617 2197.36L887.002 2199.66L892.106 2191L887 2182.34Z" fill="white" fill-opacity="0.34"/>
<path d="M792.797 2295.17L796.236 2301L792.752 2306.84L799.267 2305.31L803.611 2310.45L804.199 2303.69L810.352 2301L804.244 2298.31L803.656 2291.55L799.267 2296.69L792.797 2295.17ZM789 2292.34L798.616 2294.64L805.08 2287L805.931 2297.06L815 2301L805.933 2304.94L805.082 2315L798.617 2307.36L789.002 2309.66L794.106 2301L789 2292.34Z" fill="white" fill-opacity="0.34"/>
<path d="M894.683 2348.08L905.264 2366L894.544 2383.93L914.591 2379.23L927.956 2395.02L929.766 2374.25L948.7 2366L929.905 2357.75L928.095 2336.99L914.591 2352.77L894.683 2348.08ZM883 2339.4L912.587 2346.46L932.478 2323L935.095 2353.9L963 2366L935.101 2378.1L932.484 2409L912.592 2385.54L883.006 2392.6L898.709 2366L883 2339.4Z" fill="white" fill-opacity="0.34"/>
<path d="M858.834 2659.8L852.999 2663.24L847.164 2659.75L848.692 2666.27L843.552 2670.61L850.313 2671.2L852.999 2677.35L855.685 2671.24L862.447 2670.66L857.306 2666.27L858.834 2659.8ZM861.659 2656L859.362 2665.62L867 2672.08L856.939 2672.93L852.999 2682L849.059 2672.93L839 2672.08L846.638 2665.62L844.339 2656L852.999 2661.11L861.659 2656Z" fill="white" fill-opacity="0.34"/>
<path d="M933.293 2800.43L923.498 2806.25L913.704 2800.35L916.269 2811.38L907.64 2818.73L918.99 2819.72L923.498 2830.13L928.007 2819.8L939.357 2818.8L930.728 2811.38L933.293 2800.43ZM938.035 2794L934.18 2810.27L947 2821.21L930.112 2822.65L923.498 2838L916.885 2822.66L900 2821.22L912.82 2810.28L908.962 2794L923.498 2802.64L938.035 2794Z" fill="white" fill-opacity="0.34"/>
<path d="M803.166 2500.2L809.001 2496.76L814.836 2500.25L813.308 2493.73L818.448 2489.39L811.687 2488.8L809.001 2482.65L806.315 2488.76L799.553 2489.34L804.694 2493.73L803.166 2500.2ZM800.341 2504L802.638 2494.38L795 2487.92L805.061 2487.07L809.001 2478L812.941 2487.07L823 2487.92L815.362 2494.38L817.661 2504L809.001 2498.89L800.341 2504Z" fill="white" fill-opacity="0.34"/>
<path d="M931.166 2571.2L937.001 2567.76L942.836 2571.25L941.308 2564.73L946.448 2560.39L939.687 2559.8L937.001 2553.65L934.315 2559.76L927.553 2560.34L932.694 2564.73L931.166 2571.2ZM928.341 2575L930.638 2565.38L923 2558.92L933.061 2558.07L937.001 2549L940.941 2558.07L951 2558.92L943.362 2565.38L945.661 2575L937.001 2569.89L928.341 2575Z" fill="white" fill-opacity="0.34"/>
<path d="M787.673 2884.21L791.905 2891.5L787.618 2898.8L795.637 2896.88L800.982 2903.31L801.706 2894.86L809.28 2891.5L801.762 2888.14L801.038 2879.69L795.637 2886.12L787.673 2884.21ZM783 2880.68L794.835 2883.55L802.791 2874L803.838 2886.58L815 2891.5L803.84 2896.43L802.793 2909L794.837 2899.45L783.002 2902.33L789.284 2891.5L783 2880.68Z" fill="white" fill-opacity="0.34"/>
<path d="M890.797 3008.17L894.236 3014L890.752 3019.84L897.267 3018.31L901.611 3023.45L902.199 3016.69L908.352 3014L902.244 3011.31L901.656 3004.55L897.267 3009.69L890.797 3008.17ZM887 3005.34L896.616 3007.64L903.08 3000L903.931 3010.06L913 3014L903.933 3017.94L903.082 3028L896.617 3020.36L887.002 3022.66L892.106 3014L887 3005.34Z" fill="white" fill-opacity="0.34"/>
<path d="M804.347 3102.12L812.811 3116.5L804.235 3130.88L820.273 3127.12L830.965 3139.78L832.413 3123.12L847.56 3116.5L832.524 3109.88L831.076 3093.22L820.273 3105.89L804.347 3102.12ZM795 3095.16L818.669 3100.82L834.582 3082L836.676 3106.79L859 3116.5L836.681 3126.21L834.587 3151L818.674 3132.18L795.004 3137.84L807.567 3116.5L795 3095.16Z" fill="white" fill-opacity="0.34"/>
<path d="M924.797 3193.17L928.236 3199L924.752 3204.84L931.267 3203.31L935.611 3208.45L936.199 3201.69L942.352 3199L936.244 3196.31L935.656 3189.55L931.267 3194.69L924.797 3193.17ZM921 3190.34L930.616 3192.64L937.08 3185L937.931 3195.06L947 3199L937.933 3202.94L937.082 3213L930.617 3205.36L921.002 3207.66L926.106 3199L921 3190.34Z" fill="white" fill-opacity="0.34"/>
<path d="M862.295 3435.85L842.497 3447.49L822.699 3435.7L827.884 3457.75L810.443 3472.45L833.383 3474.44L842.497 3495.27L851.61 3474.6L874.551 3472.6L857.11 3457.75L862.295 3435.85ZM871.88 3423L864.086 3455.55L890 3477.43L855.865 3480.3L842.497 3511L829.128 3480.31L795 3477.43L820.914 3455.55L813.114 3423.01L842.497 3440.28L871.88 3423Z" fill="white" fill-opacity="0.34"/>
<path d="M933.293 3598.43L923.498 3604.25L913.704 3598.35L916.269 3609.38L907.64 3616.73L918.99 3617.72L923.498 3628.13L928.007 3617.8L939.357 3616.8L930.728 3609.38L933.293 3598.43ZM938.035 3592L934.18 3608.27L947 3619.21L930.112 3620.65L923.498 3636L916.885 3620.66L900 3619.22L912.82 3608.28L908.962 3592L923.498 3600.64L938.035 3592Z" fill="white" fill-opacity="0.34"/>
<path d="M803.166 3298.2L809.001 3294.76L814.836 3298.25L813.308 3291.73L818.448 3287.39L811.687 3286.8L809.001 3280.65L806.315 3286.76L799.553 3287.34L804.694 3291.73L803.166 3298.2ZM800.341 3302L802.638 3292.38L795 3285.92L805.061 3285.07L809.001 3276L812.941 3285.07L823 3285.92L815.362 3292.38L817.661 3302L809.001 3296.89L800.341 3302Z" fill="white" fill-opacity="0.34"/>
<path d="M931.166 3369.2L937.001 3365.76L942.836 3369.25L941.308 3362.73L946.448 3358.39L939.687 3357.8L937.001 3351.65L934.315 3357.76L927.553 3358.34L932.694 3362.73L931.166 3369.2ZM928.341 3373L930.638 3363.38L923 3356.92L933.061 3356.07L937.001 3347L940.941 3356.07L951 3356.92L943.362 3363.38L945.661 3373L937.001 3367.89L928.341 3373Z" fill="white" fill-opacity="0.34"/>
<path d="M787.673 3682.21L791.905 3689.5L787.618 3696.8L795.637 3694.88L800.982 3701.31L801.706 3692.86L809.28 3689.5L801.762 3686.14L801.038 3677.69L795.637 3684.12L787.673 3682.21ZM783 3678.68L794.835 3681.55L802.791 3672L803.838 3684.58L815 3689.5L803.84 3694.43L802.793 3707L794.837 3697.45L783.002 3700.33L789.284 3689.5L783 3678.68Z" fill="white" fill-opacity="0.34"/>
<path d="M890.797 3806.17L894.236 3812L890.752 3817.84L897.267 3816.31L901.611 3821.45L902.199 3814.69L908.352 3812L902.244 3809.31L901.656 3802.55L897.267 3807.69L890.797 3806.17ZM887 3803.34L896.616 3805.64L903.08 3798L903.931 3808.06L913 3812L903.933 3815.94L903.082 3826L896.617 3818.36L887.002 3820.66L892.106 3812L887 3803.34Z" fill="white" fill-opacity="0.34"/>
<path d="M773.797 3864.17L777.236 3870L773.752 3875.84L780.267 3874.31L784.611 3879.45L785.199 3872.69L791.352 3870L785.244 3867.31L784.656 3860.55L780.267 3865.69L773.797 3864.17ZM770 3861.34L779.616 3863.64L786.08 3856L786.931 3866.06L796 3870L786.933 3873.94L786.082 3884L779.617 3876.36L770.002 3878.66L775.106 3870L770 3861.34Z" fill="white" fill-opacity="0.34"/>
<path d="M402.797 3762.17L406.236 3768L402.752 3773.84L409.267 3772.31L413.611 3777.45L414.199 3770.69L420.352 3768L414.244 3765.31L413.656 3758.55L409.267 3763.69L402.797 3762.17ZM399 3759.34L408.616 3761.64L415.08 3754L415.931 3764.06L425 3768L415.933 3771.94L415.082 3782L408.617 3774.36L399.002 3776.66L404.106 3768L399 3759.34Z" fill="white" fill-opacity="0.34"/>
<path d="M616.032 3799.21L623.306 3811.5L615.936 3823.8L629.719 3820.58L638.907 3831.41L640.152 3817.16L653.168 3811.5L640.247 3805.84L639.003 3791.59L629.719 3802.43L616.032 3799.21ZM608 3793.25L628.341 3798.09L642.016 3782L643.815 3803.2L663 3811.5L643.819 3819.8L642.02 3841L628.345 3824.91L608.004 3829.75L618.8 3811.5L608 3793.25Z" fill="white" fill-opacity="0.34"/>
<path d="M924.797 3991.17L928.236 3997L924.752 4002.84L931.267 4001.31L935.611 4006.45L936.199 3999.69L942.352 3997L936.244 3994.31L935.656 3987.55L931.267 3992.69L924.797 3991.17ZM921 3988.34L930.616 3990.64L937.08 3983L937.931 3993.06L947 3997L937.933 4000.94L937.082 4011L930.617 4003.36L921.002 4005.66L926.106 3997L921 3988.34Z" fill="white" fill-opacity="0.34"/>
<path d="M86.8343 2407.8L80.9991 2411.24L75.1638 2407.75L76.6921 2414.27L71.5515 2418.61L78.313 2419.2L80.9991 2425.35L83.6851 2419.24L90.4466 2418.66L85.3061 2414.27L86.8343 2407.8ZM89.6593 2404L87.3623 2413.62L95 2420.08L84.9393 2420.93L80.9991 2430L77.0589 2420.93L67 2420.08L74.6377 2413.62L72.3388 2404L80.9991 2409.11L89.6593 2404Z" fill="white" fill-opacity="0.34"/>
<path d="M161.293 2548.43L151.498 2554.25L141.704 2548.35L144.269 2559.38L135.64 2566.73L146.99 2567.72L151.498 2578.13L156.007 2567.8L167.357 2566.8L158.728 2559.38L161.293 2548.43ZM166.035 2542L162.18 2558.27L175 2569.21L158.112 2570.65L151.498 2586L144.885 2570.66L128 2569.22L140.82 2558.28L136.962 2542L151.498 2550.64L166.035 2542Z" fill="white" fill-opacity="0.34"/>
<path d="M31.1657 2248.2L37.0009 2244.76L42.8362 2248.25L41.3079 2241.73L46.4485 2237.39L39.687 2236.8L37.0009 2230.65L34.3149 2236.76L27.5534 2237.34L32.6939 2241.73L31.1657 2248.2ZM28.3407 2252L30.6377 2242.38L23 2235.92L33.0607 2235.07L37.0009 2226L40.9411 2235.07L51 2235.92L43.3623 2242.38L45.6612 2252L37.0009 2246.89L28.3407 2252Z" fill="white" fill-opacity="0.34"/>
<path d="M159.166 2319.2L165.001 2315.76L170.836 2319.25L169.308 2312.73L174.448 2308.39L167.687 2307.8L165.001 2301.65L162.315 2307.76L155.553 2308.34L160.694 2312.73L159.166 2319.2ZM156.341 2323L158.638 2313.38L151 2306.92L161.061 2306.07L165.001 2297L168.941 2306.07L179 2306.92L171.362 2313.38L173.661 2323L165.001 2317.89L156.341 2323Z" fill="white" fill-opacity="0.34"/>
<path d="M15.1881 2620.25L28.9428 2644L15.0071 2667.76L41.0686 2661.54L58.443 2682.47L60.7958 2654.94L85.4094 2644L60.9768 2633.07L58.624 2605.54L41.0686 2626.47L15.1881 2620.25ZM5.13095e-07 2608.74L38.4625 2618.1L64.3213 2587L67.7238 2627.96L104 2644L67.731 2660.05L64.3286 2701L38.4697 2669.9L0.00723627 2679.26L20.4221 2644L5.13095e-07 2608.74Z" fill="white" fill-opacity="0.34"/>
<path d="M118.797 2756.17L122.236 2762L118.752 2767.84L125.267 2766.31L129.611 2771.45L130.199 2764.69L136.352 2762L130.244 2759.31L129.656 2752.55L125.267 2757.69L118.797 2756.17ZM115 2753.34L124.616 2755.64L131.08 2748L131.931 2758.06L141 2762L131.933 2765.94L131.082 2776L124.617 2768.36L115.002 2770.66L120.106 2762L115 2753.34Z" fill="white" fill-opacity="0.34"/>
<path d="M20.797 2866.17L24.2357 2872L20.7518 2877.84L27.2672 2876.31L31.6107 2881.45L32.1989 2874.69L38.3524 2872L32.2442 2869.31L31.656 2862.55L27.2672 2867.69L20.797 2866.17ZM17 2863.34L26.6156 2865.64L33.0803 2858L33.9309 2868.06L43 2872L33.9328 2875.94L33.0821 2886L26.6174 2878.36L17.0018 2880.66L22.1055 2872L17 2863.34Z" fill="white" fill-opacity="0.34"/>
<path d="M152.797 2941.17L156.236 2947L152.752 2952.84L159.267 2951.31L163.611 2956.45L164.199 2949.69L170.352 2947L164.244 2944.31L163.656 2937.55L159.267 2942.69L152.797 2941.17ZM149 2938.34L158.616 2940.64L165.08 2933L165.931 2943.06L175 2947L165.933 2950.94L165.082 2961L158.617 2953.36L149.002 2955.66L154.106 2947L149 2938.34Z" fill="white" fill-opacity="0.34"/>
<path d="M86.8343 3205.8L80.9991 3209.24L75.1638 3205.75L76.6921 3212.27L71.5515 3216.61L78.313 3217.2L80.9991 3223.35L83.6851 3217.24L90.4466 3216.66L85.3061 3212.27L86.8343 3205.8ZM89.6593 3202L87.3623 3211.62L95 3218.08L84.9393 3218.93L80.9991 3228L77.0589 3218.93L67 3218.08L74.6377 3211.62L72.3388 3202L80.9991 3207.11L89.6593 3202Z" fill="white" fill-opacity="0.34"/>
<path d="M161.293 3346.43L151.498 3352.25L141.704 3346.35L144.269 3357.38L135.64 3364.73L146.99 3365.72L151.498 3376.13L156.007 3365.8L167.357 3364.8L158.728 3357.38L161.293 3346.43ZM166.035 3340L162.18 3356.27L175 3367.21L158.112 3368.65L151.498 3384L144.885 3368.66L128 3367.22L140.82 3356.28L136.962 3340L151.498 3348.64L166.035 3340Z" fill="white" fill-opacity="0.34"/>
<path d="M302.587 3794.85L282.997 3806.49L263.407 3794.7L268.538 3816.75L251.28 3831.45L273.979 3833.44L282.997 3854.27L292.014 3833.6L314.714 3831.6L297.456 3816.75L302.587 3794.85ZM312.071 3782L304.359 3814.55L330 3836.43L296.225 3839.3L282.997 3870L269.769 3839.31L236 3836.43L261.641 3814.55L253.923 3782.01L282.997 3799.28L312.071 3782Z" fill="white" fill-opacity="0.34"/>
<path d="M31.1657 3046.2L37.0009 3042.76L42.8362 3046.25L41.3079 3039.73L46.4485 3035.39L39.687 3034.8L37.0009 3028.65L34.3149 3034.76L27.5534 3035.34L32.6939 3039.73L31.1657 3046.2ZM28.3407 3050L30.6377 3040.38L23 3033.92L33.0607 3033.07L37.0009 3024L40.9411 3033.07L51 3033.92L43.3623 3040.38L45.6612 3050L37.0009 3044.89L28.3407 3050Z" fill="white" fill-opacity="0.34"/>
<path d="M125.164 3112.63L141.003 3103.24L156.841 3112.75L152.693 3094.96L166.646 3083.1L148.293 3081.5L141.003 3064.69L133.712 3081.37L115.359 3082.98L129.312 3094.96L125.164 3112.63ZM117.496 3123L123.731 3096.74L103 3079.09L130.308 3076.77L141.003 3052L151.697 3076.76L179 3079.08L158.269 3096.74L164.509 3123L141.003 3109.06L117.496 3123Z" fill="white" fill-opacity="0.34"/>
<path d="M11.8069 3421.62L21.5939 3438.5L11.6781 3455.38L30.2219 3450.96L42.5844 3465.83L44.2585 3446.27L61.7721 3438.5L44.3873 3430.73L42.7132 3411.17L30.2219 3426.04L11.8069 3421.62ZM1 3413.45L28.3675 3420.09L46.7671 3398L49.1881 3427.1L75 3438.5L49.1932 3449.9L46.7722 3479L28.3727 3456.91L1.00515 3463.56L15.5311 3438.5L1 3413.45Z" fill="white" fill-opacity="0.34"/>
<path d="M118.797 3554.17L122.236 3560L118.752 3565.84L125.267 3564.31L129.611 3569.45L130.199 3562.69L136.352 3560L130.244 3557.31L129.656 3550.55L125.267 3555.69L118.797 3554.17ZM115 3551.34L124.616 3553.64L131.08 3546L131.931 3556.06L141 3560L131.933 3563.94L131.082 3574L124.617 3566.36L115.002 3568.66L120.106 3560L115 3551.34Z" fill="white" fill-opacity="0.34"/>
<path d="M20.797 3664.17L24.2357 3670L20.7518 3675.84L27.2672 3674.31L31.6107 3679.45L32.1989 3672.69L38.3524 3670L32.2442 3667.31L31.656 3660.55L27.2672 3665.69L20.797 3664.17ZM17 3661.34L26.6156 3663.64L33.0803 3656L33.9309 3666.06L43 3670L33.9328 3673.94L33.0821 3684L26.6174 3676.36L17.0018 3678.66L22.1055 3670L17 3661.34Z" fill="white" fill-opacity="0.34"/>
<path d="M152.797 3739.17L156.236 3745L152.752 3750.84L159.267 3749.31L163.611 3754.45L164.199 3747.69L170.352 3745L164.244 3742.31L163.656 3735.55L159.267 3740.69L152.797 3739.17ZM149 3736.34L158.616 3738.64L165.08 3731L165.931 3741.06L175 3745L165.933 3748.94L165.082 3759L158.617 3751.36L149.002 3753.66L154.106 3745L149 3736.34Z" fill="white" fill-opacity="0.34"/>
<path d="M57.797 3836.17L61.2357 3842L57.7518 3847.84L64.2672 3846.31L68.6107 3851.45L69.1989 3844.69L75.3524 3842L69.2442 3839.31L68.656 3832.55L64.2672 3837.69L57.797 3836.17ZM54 3833.34L63.6156 3835.64L70.0803 3828L70.9309 3838.06L80 3842L70.9328 3845.94L70.0821 3856L63.6174 3848.36L54.0018 3850.66L59.1055 3842L54 3833.34Z" fill="white" fill-opacity="0.34"/>
<path d="M603.707 950.574L613.502 944.755L623.296 950.651L620.731 939.625L629.36 932.274L618.01 931.279L613.502 920.865L608.993 931.202L597.643 932.198L606.272 939.625L603.707 950.574ZM598.965 957L602.82 940.727L590 929.787L606.888 928.348L613.502 913L620.115 928.345L637 929.784L624.18 940.724L628.038 956.997L613.502 948.36L598.965 957Z" fill="white" fill-opacity="0.34"/>
<path d="M170.834 1918.8L164.999 1922.24L159.164 1918.75L160.692 1925.27L155.552 1929.61L162.313 1930.2L164.999 1936.35L167.685 1930.24L174.447 1929.66L169.306 1925.27L170.834 1918.8ZM173.659 1915L171.362 1924.62L179 1931.08L168.939 1931.93L164.999 1941L161.059 1931.93L151 1931.08L158.638 1924.62L156.339 1915L164.999 1920.11L173.659 1915Z" fill="white" fill-opacity="0.34"/>
<path d="M61.2934 2034.43L51.4984 2040.25L41.7035 2034.35L44.2689 2045.38L35.64 2052.73L46.9897 2053.72L51.4984 2064.13L56.0072 2053.8L67.3569 2052.8L58.728 2045.38L61.2934 2034.43ZM66.0353 2028L62.1796 2044.27L75 2055.21L58.1123 2056.65L51.4984 2072L44.8846 2056.66L28 2055.22L40.8204 2044.28L36.9616 2028L51.4984 2036.64L66.0353 2028Z" fill="white" fill-opacity="0.34"/>
<path d="M31.1657 1849.2L37.0009 1845.76L42.8362 1849.25L41.3079 1842.73L46.4485 1838.39L39.687 1837.8L37.0009 1831.65L34.3149 1837.76L27.5534 1838.34L32.6939 1842.73L31.1657 1849.2ZM28.3407 1853L30.6377 1843.38L23 1836.92L33.0607 1836.07L37.0009 1827L40.9411 1836.07L51 1836.92L43.3623 1843.38L45.6612 1853L37.0009 1847.89L28.3407 1853Z" fill="white" fill-opacity="0.34"/>
<path d="M181.376 1708.53L174.499 1712.63L167.622 1708.47L169.423 1716.24L163.364 1721.42L171.333 1722.12L174.499 1729.46L177.665 1722.18L185.634 1721.47L179.575 1716.24L181.376 1708.53ZM184.706 1704L181.998 1715.46L191 1723.17L179.143 1724.19L174.499 1735L169.855 1724.19L158 1723.17L167.002 1715.47L164.292 1704L174.499 1710.09L184.706 1704Z" fill="white" fill-opacity="0.34"/>
<path d="M321.132 3204.27L319.321 3197.75L324.196 3193.01L317.507 3192.8L314.642 3186.71L312.324 3193.09L305.685 3194.09L310.89 3198.27L309.708 3204.95L315.278 3201.12L321.132 3204.27ZM324.069 3207.99L315.375 3203.28L307.154 3208.98L308.936 3199.04L301.196 3192.89L310.974 3191.43L314.399 3181.94L318.667 3190.99L328.55 3191.25L321.378 3198.3L324.069 3207.99Z" fill="white" fill-opacity="0.34"/>
<path d="M287.842 3506.44L291.767 3520.58L281.203 3530.84L295.696 3531.3L301.904 3544.49L306.927 3530.67L321.312 3528.5L310.034 3519.45L312.595 3504.97L300.527 3513.27L287.842 3506.44ZM281.48 3498.4L300.316 3508.6L318.13 3496.24L314.268 3517.77L331.039 3531.11L309.852 3534.27L302.431 3554.84L293.184 3535.23L271.77 3534.65L287.308 3519.39L281.48 3498.4Z" fill="white" fill-opacity="0.34"/>
<path d="M33.1657 215.203L39.0009 211.764L44.8362 215.248L43.3079 208.733L48.4485 204.389L41.687 203.801L39.0009 197.648L36.3149 203.756L29.5534 204.344L34.6939 208.733L33.1657 215.203ZM30.3407 219L32.6377 209.384L25 202.92L35.0607 202.069L39.0009 193L42.9411 202.067L53 202.918L45.3623 209.383L47.6612 218.998L39.0009 213.894L30.3407 219Z" fill="white" fill-opacity="0.34"/>
<path d="M519.797 3864.17L523.236 3870L519.752 3875.84L526.267 3874.31L530.611 3879.45L531.199 3872.69L537.352 3870L531.244 3867.31L530.656 3860.55L526.267 3865.69L519.797 3864.17ZM516 3861.34L525.616 3863.64L532.08 3856L532.931 3866.06L542 3870L532.933 3873.94L532.082 3884L525.617 3876.36L516.002 3878.66L521.106 3870L516 3861.34Z" fill="white" fill-opacity="0.34"/>
</svg>
