<svg width="693" height="3238" viewBox="0 0 693 3238" fill="none" xmlns="http://www.w3.org/2000/svg">
<path d="M679.171 961.797L673.336 965.236L667.501 961.752L669.029 968.267L663.888 972.611L670.65 973.199L673.336 979.352L676.022 973.244L682.784 972.656L677.643 968.267L679.171 961.797ZM681.996 958L679.699 967.616L687.337 974.08L677.276 974.931L673.336 984L669.396 974.933L659.337 974.082L666.975 967.617L664.676 958.002L673.336 963.106L681.996 958Z" fill="white" fill-opacity="0.34"/>
<path d="M659.63 1087.43L649.835 1093.25L640.04 1087.35L642.606 1098.38L633.977 1105.73L645.327 1106.72L649.835 1117.13L654.344 1106.8L665.694 1105.8L657.065 1098.38L659.63 1087.43ZM664.372 1081L660.516 1097.27L673.337 1108.21L656.449 1109.65L649.835 1125L643.221 1109.66L626.337 1108.22L639.157 1097.28L635.298 1081L649.835 1089.64L664.372 1081Z" fill="white" fill-opacity="0.34"/>
<path d="M630.503 867.203L636.338 863.764L642.173 867.248L640.645 860.733L645.785 856.389L639.024 855.801L636.338 849.648L633.652 855.756L626.89 856.344L632.031 860.733L630.503 867.203ZM627.678 871L629.975 861.384L622.337 854.92L632.398 854.069L636.338 845L640.278 854.067L650.337 854.918L642.699 861.383L644.998 870.998L636.338 865.894L627.678 871Z" fill="white" fill-opacity="0.34"/>
<path d="M209.448 2414.79L214.077 2422.5L209.387 2430.21L218.158 2428.19L224.005 2434.99L224.797 2426.05L233.08 2422.5L224.858 2418.95L224.066 2410.02L218.158 2416.81L209.448 2414.79ZM204.337 2411.06L217.281 2414.09L225.984 2404L227.129 2417.29L239.337 2422.5L227.131 2427.71L225.986 2441L217.283 2430.91L204.339 2433.95L211.21 2422.5L204.337 2411.06Z" fill="white" fill-opacity="0.34"/>
<path d="M455.448 2543.79L460.077 2551.5L455.387 2559.21L464.158 2557.19L470.005 2563.99L470.797 2555.05L479.08 2551.5L470.858 2547.95L470.066 2539.02L464.158 2545.81L455.448 2543.79ZM450.337 2540.06L463.281 2543.09L471.984 2533L473.129 2546.29L485.337 2551.5L473.131 2556.71L471.986 2570L463.283 2559.91L450.339 2562.95L457.21 2551.5L450.337 2540.06Z" fill="white" fill-opacity="0.34"/>
<path d="M190.448 2870.79L195.077 2878.5L190.387 2886.21L199.158 2884.19L205.005 2890.99L205.797 2882.05L214.08 2878.5L205.858 2874.95L205.066 2866.02L199.158 2872.81L190.448 2870.79ZM185.337 2867.06L198.281 2870.09L206.984 2860L208.129 2873.29L220.337 2878.5L208.131 2883.71L206.986 2897L198.283 2886.91L185.339 2889.95L192.21 2878.5L185.337 2867.06Z" fill="white" fill-opacity="0.34"/>
<path d="M40.4483 3000.79L45.0773 3008.5L40.3874 3016.21L49.1581 3014.19L55.0052 3020.99L55.797 3012.05L64.0805 3008.5L55.8579 3004.95L55.0661 2996.02L49.1581 3002.81L40.4483 3000.79ZM35.3369 2997.06L48.281 3000.09L56.9835 2990L58.1286 3003.29L70.3369 3008.5L58.131 3013.71L56.9859 3027L48.2835 3016.91L35.3393 3019.95L42.2097 3008.5L35.3369 2997.06Z" fill="white" fill-opacity="0.34"/>
<path d="M225.448 3093.79L230.077 3101.5L225.387 3109.21L234.158 3107.19L240.005 3113.99L240.797 3105.05L249.08 3101.5L240.858 3097.95L240.066 3089.02L234.158 3095.81L225.448 3093.79ZM220.337 3090.06L233.281 3093.09L241.984 3083L243.129 3096.29L255.337 3101.5L243.131 3106.71L241.986 3120L233.283 3109.91L220.339 3112.95L227.21 3101.5L220.337 3090.06Z" fill="white" fill-opacity="0.34"/>
<path d="M391.448 3119.79L396.077 3127.5L391.387 3135.21L400.158 3133.19L406.005 3139.99L406.797 3131.05L415.08 3127.5L406.858 3123.95L406.066 3115.02L400.158 3121.81L391.448 3119.79ZM386.337 3116.06L399.281 3119.09L407.984 3109L409.129 3122.29L421.337 3127.5L409.131 3132.71L407.986 3146L399.283 3135.91L386.339 3138.95L393.21 3127.5L386.337 3116.06Z" fill="white" fill-opacity="0.34"/>
<path d="M297.953 2954.37L305.756 2967.5L297.851 2980.63L312.635 2977.19L322.492 2988.76L323.827 2973.55L337.79 2967.5L323.929 2961.46L322.595 2946.25L312.635 2957.81L297.953 2954.37ZM289.337 2948.02L311.157 2953.18L325.827 2936L327.757 2958.64L348.337 2967.5L327.761 2976.37L325.831 2999L311.161 2981.82L289.341 2986.99L300.923 2967.5L289.337 2948.02Z" fill="white" fill-opacity="0.34"/>
<path d="M495.953 3193.37L503.756 3206.5L495.851 3219.63L510.635 3216.19L520.492 3227.76L521.827 3212.55L535.79 3206.5L521.929 3200.46L520.595 3185.25L510.635 3196.81L495.953 3193.37ZM487.337 3187.02L509.157 3192.18L523.827 3175L525.757 3197.64L546.337 3206.5L525.761 3215.37L523.831 3238L509.161 3220.82L487.341 3225.99L498.923 3206.5L487.337 3187.02Z" fill="white" fill-opacity="0.34"/>
<path d="M480.042 3036.12L491.549 3055.5L479.891 3074.88L501.692 3069.81L516.227 3086.88L518.195 3064.42L538.785 3055.5L518.346 3046.58L516.378 3024.12L501.692 3041.2L480.042 3036.12ZM467.337 3026.74L499.512 3034.37L521.144 3009L523.99 3042.42L554.337 3055.5L523.997 3068.59L521.15 3102L499.518 3076.63L467.343 3084.27L484.421 3055.5L467.337 3026.74Z" fill="white" fill-opacity="0.34"/>
<path d="M472.448 2909.79L477.077 2917.5L472.387 2925.21L481.158 2923.19L487.005 2929.99L487.797 2921.05L496.08 2917.5L487.858 2913.95L487.066 2905.02L481.158 2911.81L472.448 2909.79ZM467.337 2906.06L480.281 2909.09L488.984 2899L490.129 2912.29L502.337 2917.5L490.131 2922.71L488.986 2936L480.283 2925.91L467.339 2928.95L474.21 2917.5L467.337 2906.06Z" fill="white" fill-opacity="0.34"/>
<path d="M411.055 2411.29L417.139 2421.5L410.975 2431.71L422.502 2429.04L430.187 2438.03L431.227 2426.2L442.114 2421.5L431.307 2416.8L430.267 2404.97L422.502 2413.96L411.055 2411.29ZM404.337 2406.35L421.349 2410.37L432.787 2397L434.292 2414.61L450.337 2421.5L434.295 2428.4L432.79 2446L421.352 2432.63L404.34 2436.66L413.37 2421.5L404.337 2406.35Z" fill="white" fill-opacity="0.34"/>
<path d="M473.931 1694.33L480.808 1706L473.84 1717.67L486.871 1714.62L495.558 1724.9L496.735 1711.37L509.042 1706L496.825 1700.63L495.649 1687.11L486.871 1697.39L473.931 1694.33ZM466.337 1688.68L485.568 1693.28L498.498 1678L500.199 1698.12L518.337 1706L500.202 1713.88L498.501 1734L485.572 1718.72L466.341 1723.32L476.548 1706L466.337 1688.68Z" fill="white" fill-opacity="0.34"/>
<path d="M262.931 2138.33L269.808 2150L262.84 2161.67L275.871 2158.62L284.558 2168.9L285.735 2155.37L298.042 2150L285.825 2144.63L284.649 2131.11L275.871 2141.39L262.931 2138.33ZM255.337 2132.68L274.568 2137.28L287.498 2122L289.199 2142.12L307.337 2150L289.202 2157.88L287.501 2178L274.572 2162.72L255.341 2167.32L265.548 2150L255.337 2132.68Z" fill="white" fill-opacity="0.34"/>
<path d="M473.931 2255.33L480.808 2267L473.84 2278.67L486.871 2275.62L495.558 2285.9L496.735 2272.37L509.042 2267L496.825 2261.63L495.649 2248.11L486.871 2258.39L473.931 2255.33ZM466.337 2249.68L485.568 2254.28L498.498 2239L500.199 2259.12L518.337 2267L500.202 2274.88L498.501 2295L485.572 2279.72L466.341 2284.32L476.548 2267L466.337 2249.68Z" fill="white" fill-opacity="0.34"/>
<path d="M122.998 2233.75L132.653 2250L122.871 2266.26L141.164 2262L153.359 2276.32L155.011 2257.49L172.288 2250L155.138 2242.52L153.486 2223.68L141.164 2238L122.998 2233.75ZM112.337 2225.88L139.335 2232.28L157.486 2211L159.874 2239.03L185.337 2250L159.879 2260.98L157.491 2289L139.34 2267.72L112.342 2274.13L126.672 2250L112.337 2225.88Z" fill="white" fill-opacity="0.34"/>
<path d="M418.63 1777.43L408.835 1783.25L399.04 1777.35L401.606 1788.38L392.977 1795.73L404.327 1796.72L408.835 1807.13L413.344 1796.8L424.694 1795.8L416.065 1788.38L418.63 1777.43ZM423.372 1771L419.516 1787.27L432.337 1798.21L415.449 1799.65L408.835 1815L402.221 1799.66L385.337 1798.22L398.157 1787.28L394.298 1771L408.835 1779.64L423.372 1771Z" fill="white" fill-opacity="0.34"/>
<path d="M281.713 1797.53L274.836 1801.63L267.959 1797.47L269.76 1805.24L263.701 1810.42L271.67 1811.12L274.836 1818.46L278.002 1811.18L285.97 1810.47L279.912 1805.24L281.713 1797.53ZM285.043 1793L282.335 1804.46L291.337 1812.17L279.48 1813.19L274.836 1824L270.192 1813.19L258.337 1812.17L267.339 1804.47L264.629 1793L274.836 1799.09L285.043 1793Z" fill="white" fill-opacity="0.34"/>
<path d="M473.713 1870.53L466.836 1874.63L459.959 1870.47L461.76 1878.24L455.701 1883.42L463.67 1884.12L466.836 1891.46L470.002 1884.18L477.97 1883.47L471.912 1878.24L473.713 1870.53ZM477.043 1866L474.335 1877.46L483.337 1885.17L471.48 1886.19L466.836 1897L462.192 1886.19L450.337 1885.17L459.339 1877.47L456.629 1866L466.836 1872.09L477.043 1866Z" fill="white" fill-opacity="0.34"/>
<path d="M635.503 202.203L641.338 198.764L647.173 202.248L645.645 195.733L650.785 191.389L644.024 190.801L641.338 184.648L638.652 190.756L631.89 191.344L637.031 195.733L635.503 202.203ZM632.678 206L634.975 196.384L627.337 189.92L637.398 189.069L641.338 180L645.278 189.067L655.337 189.918L647.699 196.383L649.998 205.998L641.338 200.894L632.678 206Z" fill="white" fill-opacity="0.34"/>
<path d="M538.503 466.203L544.338 462.764L550.173 466.248L548.645 459.733L553.785 455.389L547.024 454.801L544.338 448.648L541.652 454.756L534.89 455.344L540.031 459.733L538.503 466.203ZM535.678 470L537.975 460.384L530.337 453.92L540.398 453.069L544.338 444L548.278 453.067L558.337 453.918L550.699 460.383L552.998 469.998L544.338 464.894L535.678 470Z" fill="white" fill-opacity="0.34"/>
<path d="M659.044 351.574L668.838 345.755L678.633 351.651L676.068 340.625L684.697 333.274L673.347 332.279L668.838 321.865L664.33 332.202L652.98 333.198L661.609 340.625L659.044 351.574ZM654.302 358L658.157 341.727L645.337 330.787L662.225 329.348L668.838 314L675.452 329.345L692.337 330.784L679.516 341.724L683.375 357.997L668.838 349.36L654.302 358Z" fill="white" fill-opacity="0.34"/>
<path d="M659.044 553.574L668.838 547.755L678.633 553.651L676.068 542.625L684.697 535.274L673.347 534.279L668.838 523.865L664.33 534.202L652.98 535.198L661.609 542.625L659.044 553.574ZM654.302 560L658.157 543.727L645.337 532.787L662.225 531.348L668.838 516L675.452 531.345L692.337 532.784L679.516 543.724L683.375 559.997L668.838 551.36L654.302 560Z" fill="white" fill-opacity="0.34"/>
<path d="M191.171 356.797L185.336 360.236L179.501 356.752L181.029 363.267L175.888 367.611L182.65 368.199L185.336 374.352L188.022 368.244L194.784 367.656L189.643 363.267L191.171 356.797ZM193.996 353L191.699 362.616L199.337 369.08L189.276 369.931L185.336 379L181.396 369.933L171.337 369.082L178.975 362.617L176.676 353.002L185.336 358.106L193.996 353Z" fill="white" fill-opacity="0.34"/>
<path d="M447.63 355.426L437.835 361.245L428.04 355.349L430.606 366.375L421.977 373.726L433.327 374.721L437.835 385.135L442.344 374.798L453.694 373.802L445.065 366.375L447.63 355.426ZM452.372 349L448.516 365.273L461.337 376.213L444.449 377.652L437.835 393L431.221 377.655L414.337 376.216L427.157 365.276L423.298 349.003L437.835 357.64L452.372 349Z" fill="white" fill-opacity="0.34"/>
<path d="M135.63 540.426L125.835 546.245L116.04 540.349L118.606 551.375L109.977 558.726L121.327 559.721L125.835 570.135L130.344 559.798L141.694 558.802L133.065 551.375L135.63 540.426ZM140.372 534L136.516 550.273L149.337 561.213L132.449 562.652L125.835 578L119.221 562.655L102.337 561.216L115.157 550.276L111.298 534.003L125.835 542.64L140.372 534Z" fill="white" fill-opacity="0.34"/>
<path d="M264.006 826.594L252.335 833.471L240.665 826.504L243.721 839.534L233.44 848.221L246.963 849.398L252.335 861.705L257.707 849.488L271.23 848.312L260.949 839.534L264.006 826.594ZM269.656 819L265.061 838.231L280.337 851.161L260.215 852.862L252.335 871L244.455 852.866L224.337 851.164L239.612 838.235L235.015 819.004L252.335 829.211L269.656 819Z" fill="white" fill-opacity="0.34"/>
<path d="M519.381 1449.91L505.835 1457.98L492.289 1449.8L495.836 1465.09L483.903 1475.28L499.599 1476.66L505.835 1491.1L512.07 1476.77L527.767 1475.39L515.833 1465.09L519.381 1449.91ZM525.939 1441L520.607 1463.56L538.337 1478.73L514.982 1480.72L505.835 1502L496.688 1480.73L473.337 1478.73L491.067 1463.56L485.731 1441L505.835 1452.98L525.939 1441Z" fill="white" fill-opacity="0.34"/>
<path d="M276.713 613.527L269.836 617.627L262.959 613.473L264.76 621.242L258.701 626.421L266.67 627.122L269.836 634.459L273.002 627.176L280.97 626.474L274.912 621.242L276.713 613.527ZM280.043 609L277.335 620.465L286.337 628.173L274.48 629.187L269.836 640L265.192 629.189L253.337 628.175L262.339 620.467L259.629 609.002L269.836 615.087L280.043 609Z" fill="white" fill-opacity="0.34"/>
<path d="M404.713 665.527L397.836 669.627L390.959 665.473L392.76 673.242L386.701 678.421L394.67 679.122L397.836 686.459L401.002 679.176L408.97 678.474L402.912 673.242L404.713 665.527ZM408.043 661L405.335 672.465L414.337 680.173L402.48 681.187L397.836 692L393.192 681.189L381.337 680.175L390.339 672.467L387.629 661.002L397.836 667.087L408.043 661Z" fill="white" fill-opacity="0.34"/>
<path d="M635.713 696.527L628.836 700.627L621.959 696.473L623.76 704.242L617.701 709.421L625.67 710.122L628.836 717.459L632.002 710.176L639.97 709.474L633.912 704.242L635.713 696.527ZM639.043 692L636.335 703.465L645.337 711.173L633.48 712.187L628.836 723L624.192 712.189L612.337 711.175L621.339 703.467L618.629 692.002L628.836 698.087L639.043 692Z" fill="white" fill-opacity="0.34"/>
<path d="M404.713 975.527L397.836 979.627L390.959 975.473L392.76 983.242L386.701 988.421L394.67 989.122L397.836 996.459L401.002 989.176L408.97 988.474L402.912 983.242L404.713 975.527ZM408.043 971L405.335 982.465L414.337 990.173L402.48 991.187L397.836 1002L393.192 991.189L381.337 990.175L390.339 982.467L387.629 971.002L397.836 977.087L408.043 971Z" fill="white" fill-opacity="0.34"/>
<path d="M253.589 1323.45L242.335 1330.19L231.081 1323.36L234.029 1336.14L224.115 1344.66L237.155 1345.81L242.335 1357.88L247.515 1345.9L260.555 1344.75L250.641 1336.14L253.589 1323.45ZM259.037 1316L254.607 1334.86L269.337 1347.54L249.934 1349.21L242.335 1367L234.736 1349.21L215.337 1347.55L230.067 1334.86L225.633 1316L242.335 1326.01L259.037 1316Z" fill="white" fill-opacity="0.34"/>
<path d="M218.715 1513.1L201.834 1523.15L184.954 1512.97L189.375 1532.01L174.504 1544.71L194.064 1546.43L201.834 1564.41L209.605 1546.56L229.165 1544.84L214.294 1532.01L218.715 1513.1ZM226.887 1502L220.242 1530.11L242.337 1549L213.233 1551.49L201.834 1578L190.436 1551.5L161.337 1549.01L183.432 1530.11L176.781 1502.01L201.834 1516.92L226.887 1502Z" fill="white" fill-opacity="0.34"/>
<path d="M320.171 436.797L314.336 440.236L308.501 436.752L310.029 443.267L304.888 447.611L311.65 448.199L314.336 454.352L317.022 448.244L323.784 447.656L318.643 443.267L320.171 436.797ZM322.996 433L320.699 442.616L328.337 449.08L318.276 449.931L314.336 459L310.396 449.933L300.337 449.082L307.975 442.617L305.676 433.002L314.336 438.106L322.996 433Z" fill="white" fill-opacity="0.34"/>
<path d="M71.1713 157.797L65.336 161.236L59.5007 157.752L61.029 164.267L55.8884 168.611L62.6499 169.199L65.336 175.352L68.0221 169.244L74.7836 168.656L69.643 164.267L71.1713 157.797ZM73.9963 154L71.6992 163.616L79.3369 170.08L69.2762 170.931L65.336 180L61.3958 170.933L51.3369 170.082L58.9746 163.617L56.6757 154.002L65.336 159.106L73.9963 154Z" fill="white" fill-opacity="0.34"/>
<path d="M51.6303 283.426L41.8354 289.245L32.0405 283.349L34.6058 294.375L25.9769 301.726L37.3266 302.721L41.8354 313.135L46.3441 302.798L57.6938 301.802L49.0649 294.375L51.6303 283.426ZM56.3722 277L52.5165 293.273L65.3369 304.213L48.4493 305.652L41.8354 321L35.2215 305.655L18.3369 304.216L31.1574 293.276L27.2985 277.003L41.8354 285.64L56.3722 277Z" fill="white" fill-opacity="0.34"/>
<path d="M22.5026 63.203L28.3378 59.7643L34.1731 63.2482L32.6448 56.7328L37.7854 52.3893L31.0239 51.8011L28.3378 45.6476L25.6518 51.7558L18.8903 52.344L24.0309 56.7328L22.5026 63.203ZM19.6776 67L21.9746 57.3844L14.3369 50.9197L24.3976 50.0691L28.3378 41L32.278 50.0672L42.3369 50.9179L34.6992 57.3826L36.9981 66.9982L28.3378 61.8945L19.6776 67Z" fill="white" fill-opacity="0.34"/>
<path d="M71.1713 725.797L65.336 729.236L59.5007 725.752L61.029 732.267L55.8884 736.611L62.6499 737.199L65.336 743.352L68.0221 737.244L74.7836 736.656L69.643 732.267L71.1713 725.797ZM73.9963 722L71.6992 731.616L79.3369 738.08L69.2762 738.931L65.336 748L61.3958 738.933L51.3369 738.082L58.9746 731.617L56.6757 722.002L65.336 727.106L73.9963 722Z" fill="white" fill-opacity="0.34"/>
<path d="M51.6303 851.426L41.8354 857.245L32.0405 851.349L34.6058 862.375L25.9769 869.726L37.3266 870.721L41.8354 881.135L46.3441 870.798L57.6938 869.802L49.0649 862.375L51.6303 851.426ZM56.3722 845L52.5165 861.273L65.3369 872.213L48.4493 873.652L41.8354 889L35.2215 873.655L18.3369 872.216L31.1574 861.276L27.2985 845.003L41.8354 853.64L56.3722 845Z" fill="white" fill-opacity="0.34"/>
<path d="M22.5026 631.203L28.3378 627.764L34.1731 631.248L32.6448 624.733L37.7854 620.389L31.0239 619.801L28.3378 613.648L25.6518 619.756L18.8903 620.344L24.0309 624.733L22.5026 631.203ZM19.6776 635L21.9746 625.384L14.3369 618.92L24.3976 618.069L28.3378 609L32.278 618.067L42.3369 618.918L34.6992 625.383L36.9981 634.998L28.3378 629.894L19.6776 635Z" fill="white" fill-opacity="0.34"/>
<path d="M71.1713 2355.8L65.336 2359.24L59.5007 2355.75L61.029 2362.27L55.8884 2366.61L62.6499 2367.2L65.336 2373.35L68.0221 2367.24L74.7836 2366.66L69.643 2362.27L71.1713 2355.8ZM73.9963 2352L71.6992 2361.62L79.3369 2368.08L69.2762 2368.93L65.336 2378L61.3958 2368.93L51.3369 2368.08L58.9746 2361.62L56.6757 2352L65.336 2357.11L73.9963 2352Z" fill="white" fill-opacity="0.34"/>
<path d="M51.6303 2481.43L41.8354 2487.25L32.0405 2481.35L34.6058 2492.38L25.9769 2499.73L37.3266 2500.72L41.8354 2511.13L46.3441 2500.8L57.6938 2499.8L49.0649 2492.38L51.6303 2481.43ZM56.3722 2475L52.5165 2491.27L65.3369 2502.21L48.4493 2503.65L41.8354 2519L35.2215 2503.66L18.3369 2502.22L31.1574 2491.28L27.2985 2475L41.8354 2483.64L56.3722 2475Z" fill="white" fill-opacity="0.34"/>
<path d="M22.5026 2261.2L28.3378 2257.76L34.1731 2261.25L32.6448 2254.73L37.7854 2250.39L31.0239 2249.8L28.3378 2243.65L25.6518 2249.76L18.8903 2250.34L24.0309 2254.73L22.5026 2261.2ZM19.6776 2265L21.9746 2255.38L14.3369 2248.92L24.3976 2248.07L28.3378 2239L32.278 2248.07L42.3369 2248.92L34.6992 2255.38L36.9981 2265L28.3378 2259.89L19.6776 2265Z" fill="white" fill-opacity="0.34"/>
<path d="M665.171 2538.8L659.336 2542.24L653.501 2538.75L655.029 2545.27L649.888 2549.61L656.65 2550.2L659.336 2556.35L662.022 2550.24L668.784 2549.66L663.643 2545.27L665.171 2538.8ZM667.996 2535L665.699 2544.62L673.337 2551.08L663.276 2551.93L659.336 2561L655.396 2551.93L645.337 2551.08L652.975 2544.62L650.676 2535L659.336 2540.11L667.996 2535Z" fill="white" fill-opacity="0.34"/>
<path d="M645.63 2664.43L635.835 2670.25L626.04 2664.35L628.606 2675.38L619.977 2682.73L631.327 2683.72L635.835 2694.13L640.344 2683.8L651.694 2682.8L643.065 2675.38L645.63 2664.43ZM650.372 2658L646.516 2674.27L659.337 2685.21L642.449 2686.65L635.835 2702L629.221 2686.66L612.337 2685.22L625.157 2674.28L621.298 2658L635.835 2666.64L650.372 2658Z" fill="white" fill-opacity="0.34"/>
<path d="M616.503 2444.2L622.338 2440.76L628.173 2444.25L626.645 2437.73L631.785 2433.39L625.024 2432.8L622.338 2426.65L619.652 2432.76L612.89 2433.34L618.031 2437.73L616.503 2444.2ZM613.678 2448L615.975 2438.38L608.337 2431.92L618.398 2431.07L622.338 2422L626.278 2431.07L636.337 2431.92L628.699 2438.38L630.998 2448L622.338 2442.89L613.678 2448Z" fill="white" fill-opacity="0.34"/>
<path d="M141.544 27.3267L148.838 23.0945L156.132 27.3824L154.222 19.3635L160.648 14.0175L152.196 13.2936L148.838 5.72017L145.48 13.2379L137.029 13.9619L143.454 19.3635L141.544 27.3267ZM138.013 32L140.884 20.1654L131.337 12.2088L143.913 11.1619L148.838 0L153.763 11.1597L166.337 12.2066L156.79 20.1632L159.663 31.9978L148.838 25.7163L138.013 32Z" fill="white" fill-opacity="0.34"/>
<path d="M280.503 76.203L286.338 72.7643L292.173 76.2482L290.645 69.7328L295.785 65.3893L289.024 64.8011L286.338 58.6476L283.652 64.7558L276.89 65.344L282.031 69.7328L280.503 76.203ZM277.678 80L279.975 70.3844L272.337 63.9197L282.398 63.0691L286.338 54L290.278 63.0672L300.337 63.9179L292.699 70.3826L294.998 79.9982L286.338 74.8945L277.678 80Z" fill="white" fill-opacity="0.34"/>
<path d="M375.503 22.203L381.338 18.7643L387.173 22.2482L385.645 15.7328L390.785 11.3893L384.024 10.8011L381.338 4.64764L378.652 10.7558L371.89 11.344L377.031 15.7328L375.503 22.203ZM372.678 26L374.975 16.3844L367.337 9.91967L377.398 9.06905L381.338 0L385.278 9.06724L395.337 9.91786L387.699 16.3826L389.998 25.9982L381.338 20.8945L372.678 26Z" fill="white" fill-opacity="0.34"/>
<path d="M528.503 64.203L534.338 60.7643L540.173 64.2482L538.645 57.7328L543.785 53.3893L537.024 52.8011L534.338 46.6476L531.652 52.7558L524.89 53.344L530.031 57.7328L528.503 64.203ZM525.678 68L527.975 58.3844L520.337 51.9197L530.398 51.0691L534.338 42L538.278 51.0672L548.337 51.9179L540.699 58.3826L542.998 67.9982L534.338 62.8945L525.678 68Z" fill="white" fill-opacity="0.34"/>
<path d="M663.503 38.203L669.338 34.7643L675.173 38.2482L673.645 31.7328L678.785 27.3893L672.024 26.8011L669.338 20.6476L666.652 26.7558L659.89 27.344L665.031 31.7328L663.503 38.203ZM660.678 42L662.975 32.3844L655.337 25.9197L665.398 25.0691L669.338 16L673.278 25.0672L683.337 25.9179L675.699 32.3826L677.998 41.9982L669.338 36.8945L660.678 42Z" fill="white" fill-opacity="0.34"/>
<path d="M52.6735 1052.27L56.9057 1059.56L52.6178 1066.85L60.6367 1064.94L65.9827 1071.37L66.7066 1062.92L74.2801 1059.56L66.7623 1056.2L66.0384 1047.75L60.6367 1054.18L52.6735 1052.27ZM48.0002 1048.73L59.8349 1051.61L67.7914 1042.06L68.8383 1054.63L80.0002 1059.56L68.8406 1064.48L67.7936 1077.06L59.8371 1067.51L48.0025 1070.38L54.284 1059.56L48.0002 1048.73Z" fill="white" fill-opacity="0.34"/>
<path d="M3.79702 1191.22L7.2357 1197.06L3.75177 1202.89L10.2672 1201.37L14.6107 1206.51L15.1989 1199.75L21.3524 1197.06L15.2442 1194.37L14.656 1187.61L10.2672 1192.75L3.79702 1191.22ZM1.26023e-07 1188.4L9.61562 1190.7L16.0803 1183.06L16.9309 1193.12L26 1197.06L16.9328 1201L16.0821 1211.06L9.61743 1203.42L0.0018087 1205.72L5.10553 1197.06L1.26023e-07 1188.4Z" fill="white" fill-opacity="0.34"/>
<path d="M57.7973 1286.22L61.2359 1292.06L57.752 1297.89L64.2674 1296.37L68.611 1301.51L69.1992 1294.75L75.3526 1292.06L69.2444 1289.37L68.6562 1282.61L64.2674 1287.75L57.7973 1286.22ZM54.0002 1283.4L63.6159 1285.7L70.0806 1278.06L70.9312 1288.12L80.0002 1292.06L70.933 1296L70.0824 1306.06L63.6177 1298.42L54.0021 1300.72L59.1058 1292.06L54.0002 1283.4Z" fill="white" fill-opacity="0.34"/>
<path d="M15.7975 1439.22L19.2362 1445.06L15.7523 1450.89L22.2676 1449.37L26.6112 1454.51L27.1994 1447.75L33.3528 1445.06L27.2447 1442.37L26.6565 1435.61L22.2676 1440.75L15.7975 1439.22ZM12.0005 1436.4L21.6161 1438.7L28.0808 1431.06L28.9314 1441.12L38.0005 1445.06L28.9332 1449L28.0826 1459.06L21.6179 1451.42L12.0023 1453.72L17.106 1445.06L12.0005 1436.4Z" fill="white" fill-opacity="0.34"/>
<path d="M41.7975 1574.22L45.2362 1580.06L41.7523 1585.89L48.2676 1584.37L52.6112 1589.51L53.1994 1582.75L59.3528 1580.06L53.2447 1577.37L52.6565 1570.61L48.2676 1575.75L41.7975 1574.22ZM38.0005 1571.4L47.6161 1573.7L54.0808 1566.06L54.9314 1576.12L64.0005 1580.06L54.9332 1584L54.0826 1594.06L47.6179 1586.42L38.0023 1588.72L43.106 1580.06L38.0005 1571.4Z" fill="white" fill-opacity="0.34"/>
<path d="M656.01 1251.21L660.243 1258.5L655.955 1265.8L663.974 1263.88L669.32 1270.31L670.044 1261.86L677.617 1258.5L670.099 1255.14L669.375 1246.69L663.974 1253.12L656.01 1251.21ZM651.337 1247.68L663.172 1250.55L671.128 1241L672.175 1253.58L683.337 1258.5L672.177 1263.43L671.131 1276L663.174 1266.45L651.339 1269.33L657.621 1258.5L651.337 1247.68Z" fill="white" fill-opacity="0.34"/>
<path d="M446.01 1298.21L450.242 1305.5L445.954 1312.8L453.973 1310.88L459.319 1317.31L460.043 1308.86L467.617 1305.5L460.099 1302.14L459.375 1293.69L453.973 1300.12L446.01 1298.21ZM441.337 1294.68L453.172 1297.55L461.128 1288L462.175 1300.58L473.337 1305.5L462.177 1310.43L461.13 1323L453.174 1313.45L441.339 1316.33L447.621 1305.5L441.337 1294.68Z" fill="white" fill-opacity="0.34"/>
<path d="M607.134 1390.17L610.573 1396L607.089 1401.84L613.604 1400.31L617.948 1405.45L618.536 1398.69L624.689 1396L618.581 1393.31L617.993 1386.55L613.604 1391.69L607.134 1390.17ZM603.337 1387.34L612.953 1389.64L619.417 1382L620.268 1392.06L629.337 1396L620.27 1399.94L619.419 1410L612.954 1402.36L603.339 1404.66L608.442 1396L603.337 1387.34Z" fill="white" fill-opacity="0.34"/>
<path d="M661.134 1485.17L664.573 1491L661.089 1496.84L667.604 1495.31L671.948 1500.45L672.536 1493.69L678.69 1491L672.581 1488.31L671.993 1481.55L667.604 1486.69L661.134 1485.17ZM657.337 1482.34L666.953 1484.64L673.417 1477L674.268 1487.06L683.337 1491L674.27 1494.94L673.419 1505L666.955 1497.36L657.339 1499.66L662.443 1491L657.337 1482.34Z" fill="white" fill-opacity="0.34"/>
<path d="M619.134 1638.17L622.573 1644L619.089 1649.84L625.605 1648.31L629.948 1653.45L630.536 1646.69L636.69 1644L630.582 1641.31L629.993 1634.55L625.605 1639.69L619.134 1638.17ZM615.337 1635.34L624.953 1637.64L631.418 1630L632.268 1640.06L641.337 1644L632.27 1647.94L631.42 1658L624.955 1650.36L615.339 1652.66L620.443 1644L615.337 1635.34Z" fill="white" fill-opacity="0.34"/>
<path d="M645.134 1773.17L648.573 1779L645.089 1784.84L651.605 1783.31L655.948 1788.45L656.536 1781.69L662.69 1779L656.582 1776.31L655.993 1769.55L651.605 1774.69L645.134 1773.17ZM641.337 1770.34L650.953 1772.64L657.418 1765L658.268 1775.06L667.337 1779L658.27 1782.94L657.42 1793L650.955 1785.36L641.339 1787.66L646.443 1779L641.337 1770.34Z" fill="white" fill-opacity="0.34"/>
<path d="M457.044 886.574L466.838 880.755L476.633 886.651L474.068 875.625L482.697 868.274L471.347 867.279L466.838 856.865L462.33 867.202L450.98 868.198L459.609 875.625L457.044 886.574ZM452.302 893L456.157 876.727L443.337 865.787L460.225 864.348L466.838 849L473.452 864.345L490.337 865.784L477.516 876.724L481.375 892.997L466.838 884.36L452.302 893Z" fill="white" fill-opacity="0.34"/>
<path d="M679.171 2166.8L673.336 2170.24L667.501 2166.75L669.029 2173.27L663.888 2177.61L670.65 2178.2L673.336 2184.35L676.022 2178.24L682.784 2177.66L677.643 2173.27L679.171 2166.8ZM681.996 2163L679.699 2172.62L687.337 2179.08L677.276 2179.93L673.336 2189L669.396 2179.93L659.337 2179.08L666.975 2172.62L664.676 2163L673.336 2168.11L681.996 2163Z" fill="white" fill-opacity="0.34"/>
<path d="M659.63 2292.43L649.835 2298.25L640.04 2292.35L642.606 2303.38L633.977 2310.73L645.327 2311.72L649.835 2322.13L654.344 2311.8L665.694 2310.8L657.065 2303.38L659.63 2292.43ZM664.372 2286L660.516 2302.27L673.337 2313.21L656.449 2314.65L649.835 2330L643.221 2314.66L626.337 2313.22L639.157 2302.28L635.298 2286L649.835 2294.64L664.372 2286Z" fill="white" fill-opacity="0.34"/>
<path d="M630.503 2072.2L636.338 2068.76L642.173 2072.25L640.645 2065.73L645.785 2061.39L639.024 2060.8L636.338 2054.65L633.652 2060.76L626.89 2061.34L632.031 2065.73L630.503 2072.2ZM627.678 2076L629.975 2066.38L622.337 2059.92L632.398 2059.07L636.338 2050L640.278 2059.07L650.337 2059.92L642.699 2066.38L644.998 2076L636.338 2070.89L627.678 2076Z" fill="white" fill-opacity="0.34"/>
<path d="M635.713 1901.53L628.836 1905.63L621.959 1901.47L623.76 1909.24L617.701 1914.42L625.67 1915.12L628.836 1922.46L632.002 1915.18L639.97 1914.47L633.912 1909.24L635.713 1901.53ZM639.043 1897L636.335 1908.46L645.337 1916.17L633.48 1917.19L628.836 1928L624.192 1917.19L612.337 1916.17L621.339 1908.47L618.629 1897L628.836 1903.09L639.043 1897Z" fill="white" fill-opacity="0.34"/>
<path d="M72.1713 1950.8L66.336 1954.24L60.5007 1950.75L62.029 1957.27L56.8884 1961.61L63.6499 1962.2L66.336 1968.35L69.0221 1962.24L75.7836 1961.66L70.643 1957.27L72.1713 1950.8ZM74.9963 1947L72.6992 1956.62L80.3369 1963.08L70.2762 1963.93L66.336 1973L62.3958 1963.93L52.3369 1963.08L59.9746 1956.62L57.6757 1947L66.336 1952.11L74.9963 1947Z" fill="white" fill-opacity="0.34"/>
<path d="M52.6303 2076.43L42.8354 2082.25L33.0405 2076.35L35.6058 2087.38L26.9769 2094.73L38.3266 2095.72L42.8354 2106.13L47.3441 2095.8L58.6938 2094.8L50.0649 2087.38L52.6303 2076.43ZM57.3722 2070L53.5165 2086.27L66.3369 2097.21L49.4493 2098.65L42.8354 2114L36.2215 2098.66L19.3369 2097.22L32.1574 2086.28L28.2985 2070L42.8354 2078.64L57.3722 2070Z" fill="white" fill-opacity="0.34"/>
<path d="M23.5026 1856.2L29.3378 1852.76L35.1731 1856.25L33.6448 1849.73L38.7854 1845.39L32.0239 1844.8L29.3378 1838.65L26.6518 1844.76L19.8903 1845.34L25.0309 1849.73L23.5026 1856.2ZM20.6776 1860L22.9746 1850.38L15.3369 1843.92L25.3976 1843.07L29.3378 1834L33.278 1843.07L43.3369 1843.92L35.6992 1850.38L37.9981 1860L29.3378 1854.89L20.6776 1860Z" fill="white" fill-opacity="0.34"/>
<path d="M28.7131 1685.53L21.8358 1689.63L14.9585 1685.47L16.7597 1693.24L10.7012 1698.42L18.6701 1699.12L21.8358 1706.46L25.0016 1699.18L32.9705 1698.47L26.9119 1693.24L28.7131 1685.53ZM32.0426 1681L29.3353 1692.46L38.3369 1700.17L26.4796 1701.19L21.8358 1712L17.192 1701.19L5.33691 1700.17L14.3385 1692.47L11.6291 1681L21.8358 1687.09L32.0426 1681Z" fill="white" fill-opacity="0.34"/>
<path d="M76.1713 2733.8L70.336 2737.24L64.5007 2733.75L66.029 2740.27L60.8884 2744.61L67.6499 2745.2L70.336 2751.35L73.0221 2745.24L79.7836 2744.66L74.643 2740.27L76.1713 2733.8ZM78.9963 2730L76.6992 2739.62L84.3369 2746.08L74.2762 2746.93L70.336 2756L66.3958 2746.93L56.3369 2746.08L63.9746 2739.62L61.6757 2730L70.336 2735.11L78.9963 2730Z" fill="white" fill-opacity="0.34"/>
<path d="M56.6303 2859.43L46.8354 2865.25L37.0405 2859.35L39.6058 2870.38L30.9769 2877.73L42.3266 2878.72L46.8354 2889.13L51.3441 2878.8L62.6938 2877.8L54.0649 2870.38L56.6303 2859.43ZM61.3722 2853L57.5165 2869.27L70.3369 2880.21L53.4493 2881.65L46.8354 2897L40.2215 2881.66L23.3369 2880.22L36.1574 2869.28L32.2985 2853L46.8354 2861.64L61.3722 2853Z" fill="white" fill-opacity="0.34"/>
<path d="M27.5026 2639.2L33.3378 2635.76L39.1731 2639.25L37.6448 2632.73L42.7854 2628.39L36.0239 2627.8L33.3378 2621.65L30.6518 2627.76L23.8903 2628.34L29.0309 2632.73L27.5026 2639.2ZM24.6776 2643L26.9746 2633.38L19.3369 2626.92L29.3976 2626.07L33.3378 2617L37.278 2626.07L47.3369 2626.92L39.6992 2633.38L41.9981 2643L33.3378 2637.89L24.6776 2643Z" fill="white" fill-opacity="0.34"/>
<path d="M665.171 2944.8L659.336 2948.24L653.501 2944.75L655.029 2951.27L649.888 2955.61L656.65 2956.2L659.336 2962.35L662.022 2956.24L668.784 2955.66L663.643 2951.27L665.171 2944.8ZM667.996 2941L665.699 2950.62L673.337 2957.08L663.276 2957.93L659.336 2967L655.396 2957.93L645.337 2957.08L652.975 2950.62L650.676 2941L659.336 2946.11L667.996 2941Z" fill="white" fill-opacity="0.34"/>
<path d="M668.63 3108.43L658.835 3114.25L649.04 3108.35L651.606 3119.38L642.977 3126.73L654.327 3127.72L658.835 3138.13L663.344 3127.8L674.694 3126.8L666.065 3119.38L668.63 3108.43ZM673.372 3102L669.516 3118.27L682.337 3129.21L665.449 3130.65L658.835 3146L652.221 3130.66L635.337 3129.22L648.157 3118.28L644.298 3102L658.835 3110.64L673.372 3102Z" fill="white" fill-opacity="0.34"/>
<path d="M616.503 2850.2L622.338 2846.76L628.173 2850.25L626.645 2843.73L631.785 2839.39L625.024 2838.8L622.338 2832.65L619.652 2838.76L612.89 2839.34L618.031 2843.73L616.503 2850.2ZM613.678 2854L615.975 2844.38L608.337 2837.92L618.398 2837.07L622.338 2828L626.278 2837.07L636.337 2837.92L628.699 2844.38L630.998 2854L622.338 2848.89L613.678 2854Z" fill="white" fill-opacity="0.34"/>
<path d="M189.469 3217.27L187.658 3210.75L192.533 3206.01L185.844 3205.8L182.979 3199.71L180.661 3206.09L174.022 3207.09L179.227 3211.27L178.045 3217.95L183.615 3214.12L189.469 3217.27ZM192.405 3220.99L183.712 3216.28L175.491 3221.98L177.273 3212.04L169.533 3205.89L179.311 3204.43L182.736 3194.94L187.003 3203.99L196.886 3204.25L189.715 3211.3L192.405 3220.99Z" fill="white" fill-opacity="0.34"/>
<path d="M73.1784 3165.88L70.0925 3154.92L78.3226 3146.98L67.0083 3146.61L62.1414 3136.37L58.2424 3147.07L47.0168 3148.73L55.8345 3155.76L53.8585 3166.98L63.266 3160.57L73.1784 3165.88ZM78.1579 3172.13L63.4377 3164.19L49.552 3173.74L52.5324 3157.06L39.4196 3146.7L55.9531 3144.28L61.7136 3128.34L68.9629 3143.56L85.6798 3144.04L73.5746 3155.85L78.1579 3172.13Z" fill="white" fill-opacity="0.34"/>
<path d="M293.436 3194.75L295.247 3201.27L290.372 3206.01L297.061 3206.22L299.926 3212.31L302.244 3205.93L308.883 3204.93L303.678 3200.75L304.86 3194.07L299.29 3197.9L293.436 3194.75ZM290.5 3191.03L299.193 3195.74L307.414 3190.04L305.632 3199.98L313.372 3206.13L303.594 3207.59L300.169 3217.08L295.901 3208.03L286.018 3207.77L293.19 3200.72L290.5 3191.03Z" fill="white" fill-opacity="0.34"/>
</svg>
